FrauncesLightOpMin.ufo
<glyph name="dollar" format="2">
  <advance width="970"/>
  <unicode hex="0024"/>
  <outline>
    <contour>
      <point x="505" y="0" type="curve" smooth="yes"/>
      <point x="711" y="0"/>
      <point x="833" y="143"/>
      <point x="833" y="320" type="curve" smooth="yes"/>
      <point x="833" y="447"/>
      <point x="756" y="559"/>
      <point x="541" y="658" type="curve" smooth="yes"/>
      <point x="310" y="737"/>
      <point x="237" y="839"/>
      <point x="237" y="964" type="curve" smooth="yes"/>
      <point x="237" y="1125"/>
      <point x="365" y="1217"/>
      <point x="517" y="1217" type="curve" smooth="yes"/>
      <point x="631" y="1217"/>
      <point x="706" y="1145"/>
      <point x="706" y="1052" type="curve" smooth="yes"/>
      <point x="706" y="1000" type="line" smooth="yes"/>
      <point x="706" y="957"/>
      <point x="735" y="926"/>
      <point x="768" y="926" type="curve" smooth="yes"/>
      <point x="800" y="926"/>
      <point x="829" y="961"/>
      <point x="829" y="1006" type="curve" smooth="yes"/>
      <point x="829" y="1145"/>
      <point x="686" y="1258"/>
      <point x="512" y="1258" type="curve" smooth="yes"/>
      <point x="282" y="1258"/>
      <point x="125" y="1105"/>
      <point x="125" y="920" type="curve" smooth="yes"/>
      <point x="125" y="765"/>
      <point x="224" y="657"/>
      <point x="451" y="576" type="curve" smooth="yes"/>
      <point x="676" y="490"/>
      <point x="745" y="389"/>
      <point x="745" y="270" type="curve" smooth="yes"/>
      <point x="745" y="127"/>
      <point x="648" y="45"/>
      <point x="504" y="45" type="curve" smooth="yes"/>
      <point x="356" y="45"/>
      <point x="269" y="124"/>
      <point x="269" y="226" type="curve" smooth="yes"/>
      <point x="269" y="278" type="line" smooth="yes"/>
      <point x="269" y="323"/>
      <point x="241" y="352"/>
      <point x="208" y="352" type="curve" smooth="yes"/>
      <point x="174" y="352"/>
      <point x="147" y="319"/>
      <point x="147" y="272" type="curve" smooth="yes"/>
      <point x="147" y="123"/>
      <point x="308" y="0"/>
    </contour>
    <contour>
      <point x="468" y="632" type="line"/>
      <point x="468" y="94"/>
      <point x="455" y="-8"/>
      <point x="455" y="-62" type="curve" smooth="yes"/>
      <point x="455" y="-106"/>
      <point x="476" y="-126"/>
      <point x="500" y="-126" type="curve" smooth="yes"/>
      <point x="523" y="-126"/>
      <point x="538" y="-105"/>
      <point x="541" y="-62" type="curve" smooth="yes"/>
      <point x="543" y="-8"/>
      <point x="527" y="92"/>
      <point x="527" y="632" type="curve"/>
    </contour>
    <contour>
      <point x="523" y="642" type="line"/>
      <point x="523" y="1180"/>
      <point x="539" y="1270"/>
      <point x="539" y="1330" type="curve" smooth="yes"/>
      <point x="539" y="1373"/>
      <point x="515" y="1394"/>
      <point x="494" y="1394" type="curve" smooth="yes"/>
      <point x="471" y="1394"/>
      <point x="451" y="1374"/>
      <point x="451" y="1334" type="curve" smooth="yes"/>
      <point x="451" y="1286"/>
      <point x="468" y="1188"/>
      <point x="466" y="642" type="curve"/>
    </contour>
  </outline>
</glyph>
<glyph name="ampersand" format="2">
  <advance width="1223"/>
  <unicode hex="0026"/>
  <outline>
    <contour>
      <point x="486" y="1280" type="curve" smooth="yes"/>
      <point x="355" y="1280"/>
      <point x="269" y="1186"/>
      <point x="269" y="1060" type="curve" smooth="yes"/>
      <point x="269" y="923"/>
      <point x="328" y="807"/>
      <point x="423" y="766" type="curve" smooth="yes"/>
      <point x="545" y="714"/>
      <point x="614" y="674"/>
      <point x="696" y="558" type="curve" smooth="yes"/>
      <point x="962" y="189" type="line" smooth="yes"/>
      <point x="1012" y="127"/>
      <point x="1065" y="75"/>
      <point x="1154" y="59" type="curve" smooth="yes"/>
      <point x="1186" y="51"/>
      <point x="1200" y="44"/>
      <point x="1200" y="25" type="curve" smooth="yes"/>
      <point x="1200" y="6"/>
      <point x="1185" y="-3"/>
      <point x="1156" y="-3" type="curve" smooth="yes"/>
      <point x="1060" y="-3" type="line" smooth="yes"/>
      <point x="998" y="-3"/>
      <point x="955" y="16"/>
      <point x="923" y="67" type="curve" smooth="yes"/>
      <point x="643" y="460" type="line" smooth="yes"/>
      <point x="571" y="560"/>
      <point x="514" y="601"/>
      <point x="412" y="648" type="curve" smooth="yes"/>
      <point x="284" y="700"/>
      <point x="206" y="831"/>
      <point x="206" y="990" type="curve" smooth="yes"/>
      <point x="206" y="1185"/>
      <point x="360" y="1336"/>
      <point x="489" y="1336" type="curve" smooth="yes"/>
      <point x="659" y="1336"/>
      <point x="758" y="1229"/>
      <point x="758" y="1074" type="curve" smooth="yes"/>
      <point x="758" y="913"/>
      <point x="697" y="797"/>
      <point x="544" y="691" type="curve"/>
      <point x="481" y="715" type="line"/>
      <point x="639" y="812"/>
      <point x="704" y="898"/>
      <point x="704" y="1028" type="curve" smooth="yes"/>
      <point x="704" y="1188"/>
      <point x="594" y="1280"/>
    </contour>
    <contour>
      <point x="457" y="674" type="line"/>
      <point x="307" y="666"/>
      <point x="163" y="528"/>
      <point x="163" y="380" type="curve" smooth="yes"/>
      <point x="163" y="204"/>
      <point x="320" y="94"/>
      <point x="586" y="94" type="curve" smooth="yes"/>
      <point x="696" y="94"/>
      <point x="801" y="152"/>
      <point x="854" y="234" type="curve"/>
      <point x="862" y="198" type="line"/>
      <point x="733" y="34"/>
      <point x="619" y="-30"/>
      <point x="451" y="-30" type="curve" smooth="yes"/>
      <point x="224" y="-30"/>
      <point x="102" y="130"/>
      <point x="102" y="318" type="curve" smooth="yes"/>
      <point x="102" y="525"/>
      <point x="260" y="690"/>
      <point x="457" y="690" type="curve"/>
    </contour>
    <contour>
      <point x="868" y="342" type="line"/>
      <point x="1005" y="573" type="line" smooth="yes"/>
      <point x="1007" y="599"/>
      <point x="1010" y="598"/>
      <point x="1010" y="625" type="curve" smooth="yes"/>
      <point x="1010" y="640"/>
      <point x="997" y="637"/>
      <point x="969" y="651" type="curve" smooth="yes"/>
      <point x="927" y="670" type="line" smooth="yes"/>
      <point x="891" y="687"/>
      <point x="876" y="679"/>
      <point x="876" y="704" type="curve" smooth="yes"/>
      <point x="876" y="724"/>
      <point x="893" y="724"/>
      <point x="919" y="724" type="curve" smooth="yes"/>
      <point x="1202" y="724" type="line" smooth="yes"/>
      <point x="1210" y="724"/>
      <point x="1225" y="718"/>
      <point x="1225" y="706" type="curve" smooth="yes"/>
      <point x="1225" y="695"/>
      <point x="1201" y="700"/>
      <point x="1192" y="694" type="curve" smooth="yes"/>
      <point x="1125" y="666"/>
      <point x="1084" y="626"/>
      <point x="1066" y="583" type="curve" smooth="yes"/>
      <point x="893" y="290" type="line"/>
    </contour>
  </outline>
</glyph>
<glyph name="zero" format="2">
  <advance width="1099"/>
  <unicode hex="0030"/>
  <outline>
    <contour>
      <point x="540" y="1279" type="curve" smooth="yes"/>
      <point x="293" y="1279"/>
      <point x="134" y="1034"/>
      <point x="134" y="641" type="curve" smooth="yes"/>
      <point x="134" y="211"/>
      <point x="280" y="-30"/>
      <point x="540" y="-30" type="curve" smooth="yes"/>
      <point x="782" y="-30"/>
      <point x="959" y="202"/>
      <point x="959" y="641" type="curve" smooth="yes"/>
      <point x="959" y="1040"/>
      <point x="792" y="1279"/>
    </contour>
    <contour>
      <point x="873" y="559" type="curve" smooth="yes"/>
      <point x="873" y="183"/>
      <point x="743" y="44"/>
      <point x="569" y="44" type="curve" smooth="yes"/>
      <point x="338" y="44"/>
      <point x="217" y="238"/>
      <point x="217" y="709" type="curve" smooth="yes"/>
      <point x="217" y="1030"/>
      <point x="319" y="1205"/>
      <point x="516" y="1205" type="curve" smooth="yes"/>
      <point x="743" y="1205"/>
      <point x="873" y="1005"/>
    </contour>
  </outline>
</glyph>
<glyph name="six" format="2">
  <advance width="1023"/>
  <unicode hex="0036"/>
  <outline>
    <contour>
      <point x="576" y="1282" type="curve" smooth="yes"/>
      <point x="343" y="1282"/>
      <point x="167" y="1086"/>
      <point x="167" y="605" type="curve" smooth="yes"/>
      <point x="167" y="167"/>
      <point x="320" y="-30"/>
      <point x="524" y="-30" type="curve" smooth="yes"/>
      <point x="731" y="-30"/>
      <point x="907" y="178"/>
      <point x="907" y="403" type="curve" smooth="yes"/>
      <point x="907" y="657"/>
      <point x="785" y="799"/>
      <point x="612" y="799" type="curve" smooth="yes"/>
      <point x="412" y="799"/>
      <point x="251" y="634"/>
      <point x="251" y="437" type="curve"/>
      <point x="272" y="410" type="line"/>
      <point x="272" y="578"/>
      <point x="408" y="698"/>
      <point x="573" y="698" type="curve" smooth="yes"/>
      <point x="705" y="698"/>
      <point x="814" y="578"/>
      <point x="814" y="338" type="curve" smooth="yes"/>
      <point x="814" y="158"/>
      <point x="719" y="57"/>
      <point x="569" y="57" type="curve" smooth="yes"/>
      <point x="397" y="57"/>
      <point x="252" y="193"/>
      <point x="252" y="639" type="curve" smooth="yes"/>
      <point x="252" y="1075"/>
      <point x="412" y="1213"/>
      <point x="581" y="1213" type="curve" smooth="yes"/>
      <point x="673" y="1213"/>
      <point x="727" y="1163"/>
      <point x="727" y="1109" type="curve" smooth="yes"/>
      <point x="727" y="1079" type="line" smooth="yes"/>
      <point x="727" y="1022"/>
      <point x="760" y="991"/>
      <point x="797" y="991" type="curve" smooth="yes"/>
      <point x="834" y="991"/>
      <point x="859" y="1024"/>
      <point x="859" y="1077" type="curve" smooth="yes"/>
      <point x="859" y="1185"/>
      <point x="760" y="1282"/>
    </contour>
  </outline>
</glyph>
<glyph name="colon" format="2">
  <advance width="533"/>
  <unicode hex="003A"/>
  <outline>
    <contour>
      <point x="227" y="-30" type="curve" smooth="yes"/>
      <point x="264" y="-30"/>
      <point x="294" y="7"/>
      <point x="294" y="52" type="curve" smooth="yes"/>
      <point x="294" y="98"/>
      <point x="264" y="133"/>
      <point x="227" y="133" type="curve" smooth="yes"/>
      <point x="189" y="133"/>
      <point x="159" y="98"/>
      <point x="159" y="52" type="curve" smooth="yes"/>
      <point x="159" y="7"/>
      <point x="189" y="-30"/>
    </contour>
    <contour>
      <point x="227" y="564" type="curve" smooth="yes"/>
      <point x="264" y="564"/>
      <point x="294" y="601"/>
      <point x="294" y="646" type="curve" smooth="yes"/>
      <point x="294" y="692"/>
      <point x="264" y="727"/>
      <point x="227" y="727" type="curve" smooth="yes"/>
      <point x="189" y="727"/>
      <point x="159" y="692"/>
      <point x="159" y="646" type="curve" smooth="yes"/>
      <point x="159" y="601"/>
      <point x="189" y="564"/>
    </contour>
  </outline>
</glyph>
<glyph name="question" format="2">
  <advance width="943"/>
  <unicode hex="003F"/>
  <outline>
    <contour>
      <point x="385" y="564" type="line" smooth="yes"/>
      <point x="383" y="578"/>
      <point x="383" y="582"/>
      <point x="383" y="590" type="curve" smooth="yes"/>
      <point x="383" y="617"/>
      <point x="399" y="636"/>
      <point x="417" y="655" type="curve" smooth="yes"/>
      <point x="527" y="733" type="line" smooth="yes"/>
      <point x="675" y="833"/>
      <point x="731" y="911"/>
      <point x="731" y="1072" type="curve" smooth="yes"/>
      <point x="731" y="1275"/>
      <point x="635" y="1378"/>
      <point x="486" y="1378" type="curve" smooth="yes"/>
      <point x="366" y="1378"/>
      <point x="298" y="1338"/>
      <point x="298" y="1218" type="curve" smooth="yes"/>
      <point x="298" y="1185" type="line" smooth="yes"/>
      <point x="298" y="1128"/>
      <point x="260" y="1083"/>
      <point x="216" y="1083" type="curve" smooth="yes"/>
      <point x="180" y="1083"/>
      <point x="155" y="1116"/>
      <point x="155" y="1172" type="curve" smooth="yes"/>
      <point x="155" y="1297"/>
      <point x="279" y="1430"/>
      <point x="501" y="1430" type="curve" smooth="yes"/>
      <point x="712" y="1430"/>
      <point x="832" y="1295"/>
      <point x="832" y="1088" type="curve" smooth="yes"/>
      <point x="832" y="898"/>
      <point x="741" y="761"/>
      <point x="585" y="694" type="curve" smooth="yes"/>
      <point x="518" y="669" type="line" smooth="yes"/>
      <point x="492" y="658"/>
      <point x="483" y="630"/>
      <point x="488" y="606" type="curve" smooth="yes"/>
      <point x="466" y="394" type="line" smooth="yes"/>
      <point x="466" y="366"/>
      <point x="458" y="353"/>
      <point x="437" y="353" type="curve" smooth="yes"/>
      <point x="410" y="353"/>
      <point x="410" y="373"/>
      <point x="410" y="386" type="curve" smooth="yes"/>
    </contour>
    <contour>
      <point x="446" y="-20" type="curve" smooth="yes"/>
      <point x="483" y="-20"/>
      <point x="514" y="17"/>
      <point x="514" y="63" type="curve" smooth="yes"/>
      <point x="514" y="110"/>
      <point x="483" y="145"/>
      <point x="446" y="145" type="curve" smooth="yes"/>
      <point x="408" y="145"/>
      <point x="377" y="110"/>
      <point x="377" y="63" type="curve" smooth="yes"/>
      <point x="377" y="17"/>
      <point x="408" y="-20"/>
    </contour>
  </outline>
</glyph>
<glyph name="C" format="2">
  <advance width="1288"/>
  <unicode hex="0043"/>
  <anchor x="722" y="1550" name="center"/>
  <outline>
    <contour>
      <point x="1211" y="255" type="curve" smooth="yes"/>
      <point x="1211" y="258"/>
      <point x="1212" y="259"/>
      <point x="1199" y="259" type="curve" smooth="yes"/>
      <point x="1190" y="259"/>
      <point x="1180" y="243"/>
      <point x="1168" y="236" type="curve" smooth="yes"/>
      <point x="1079" y="156"/>
      <point x="941" y="103"/>
      <point x="783" y="103" type="curve" smooth="yes"/>
      <point x="418" y="103"/>
      <point x="170" y="372"/>
      <point x="170" y="756" type="curve" smooth="yes"/>
      <point x="170" y="1135"/>
      <point x="416" y="1360"/>
      <point x="758" y="1360" type="curve" smooth="yes"/>
      <point x="901" y="1360"/>
      <point x="987" y="1300"/>
      <point x="1144" y="1122" type="curve" smooth="yes"/>
      <point x="1172" y="1093"/>
      <point x="1182" y="1075"/>
      <point x="1201" y="1075" type="curve" smooth="yes"/>
      <point x="1211" y="1075"/>
      <point x="1224" y="1088"/>
      <point x="1224" y="1107" type="curve" smooth="yes"/>
      <point x="1224" y="1118"/>
      <point x="1219" y="1127"/>
      <point x="1208" y="1158" type="curve" smooth="yes"/>
      <point x="1121" y="1400" type="line" smooth="yes"/>
      <point x="1116" y="1420"/>
      <point x="1107" y="1429"/>
      <point x="1098" y="1429" type="curve" smooth="yes"/>
      <point x="1076" y="1429"/>
      <point x="1070" y="1366"/>
      <point x="1046" y="1366" type="curve" smooth="yes"/>
      <point x="996" y="1366"/>
      <point x="903" y="1426"/>
      <point x="744" y="1426" type="curve" smooth="yes"/>
      <point x="365" y="1426"/>
      <point x="85" y="1115"/>
      <point x="85" y="676" type="curve" smooth="yes"/>
      <point x="85" y="259"/>
      <point x="338" y="-30"/>
      <point x="732" y="-30" type="curve" smooth="yes"/>
      <point x="1005" y="-30"/>
      <point x="1211" y="121"/>
    </contour>
  </outline>
</glyph>
<glyph name="D" format="2">
  <advance width="1470"/>
  <unicode hex="0044"/>
  <outline>
    <contour>
      <point x="100" y="16" type="curve" smooth="yes"/>
      <point x="100" y="5"/>
      <point x="112" y="0"/>
      <point x="143" y="0" type="curve" smooth="yes"/>
      <point x="690" y="0" type="line" smooth="yes"/>
      <point x="1083" y="0"/>
      <point x="1382" y="272"/>
      <point x="1382" y="640" type="curve" smooth="yes"/>
      <point x="1382" y="1086"/>
      <point x="1042" y="1400"/>
      <point x="608" y="1400" type="curve" smooth="yes"/>
      <point x="143" y="1400" type="line" smooth="yes"/>
      <point x="112" y="1400"/>
      <point x="100" y="1395"/>
      <point x="100" y="1383" type="curve" smooth="yes"/>
      <point x="100" y="1368"/>
      <point x="120" y="1363"/>
      <point x="155" y="1358" type="curve" smooth="yes"/>
      <point x="204" y="1346" type="line" smooth="yes"/>
      <point x="251" y="1337"/>
      <point x="276" y="1310"/>
      <point x="276" y="1256" type="curve" smooth="yes"/>
      <point x="276" y="141" type="line" smooth="yes"/>
      <point x="276" y="89"/>
      <point x="251" y="61"/>
      <point x="204" y="53" type="curve" smooth="yes"/>
      <point x="139" y="38" type="line" smooth="yes"/>
      <point x="113" y="33"/>
      <point x="100" y="31"/>
    </contour>
    <contour>
      <point x="696" y="72" type="curve" smooth="yes"/>
      <point x="525" y="72" type="line" smooth="yes"/>
      <point x="429" y="72"/>
      <point x="374" y="130"/>
      <point x="374" y="236" type="curve" smooth="yes"/>
      <point x="374" y="1225" type="line" smooth="yes"/>
      <point x="374" y="1295"/>
      <point x="400" y="1327"/>
      <point x="468" y="1327" type="curve" smooth="yes"/>
      <point x="641" y="1327" type="line" smooth="yes"/>
      <point x="981" y="1327"/>
      <point x="1261" y="1056"/>
      <point x="1261" y="688" type="curve" smooth="yes"/>
      <point x="1261" y="328"/>
      <point x="1012" y="72"/>
    </contour>
  </outline>
</glyph>
<glyph name="F" format="2">
  <advance width="1094"/>
  <unicode hex="0046"/>
  <outline>
    <contour>
      <point x="859" y="1400" type="curve" smooth="yes"/>
      <point x="148" y="1400" type="line" smooth="yes"/>
      <point x="120" y="1400"/>
      <point x="105" y="1393"/>
      <point x="105" y="1380" type="curve" smooth="yes"/>
      <point x="105" y="1368"/>
      <point x="124" y="1366"/>
      <point x="150" y="1358" type="curve" smooth="yes"/>
      <point x="244" y="1337" type="line" smooth="yes"/>
      <point x="269" y="1332"/>
      <point x="281" y="1316"/>
      <point x="281" y="1293" type="curve" smooth="yes"/>
      <point x="281" y="162" type="line" smooth="yes"/>
      <point x="281" y="103"/>
      <point x="258" y="77"/>
      <point x="207" y="61" type="curve" smooth="yes"/>
      <point x="154" y="48" type="line" smooth="yes"/>
      <point x="123" y="37"/>
      <point x="105" y="36"/>
      <point x="105" y="21" type="curve" smooth="yes"/>
      <point x="105" y="7"/>
      <point x="122" y="0"/>
      <point x="148" y="0" type="curve" smooth="yes"/>
      <point x="541" y="0" type="line" smooth="yes"/>
      <point x="565" y="0"/>
      <point x="586" y="7"/>
      <point x="586" y="21" type="curve" smooth="yes"/>
      <point x="586" y="28"/>
      <point x="577" y="33"/>
      <point x="557" y="36" type="curve" smooth="yes"/>
      <point x="466" y="52" type="line" smooth="yes"/>
      <point x="407" y="64"/>
      <point x="379" y="98"/>
      <point x="379" y="167" type="curve" smooth="yes"/>
      <point x="379" y="1326" type="line"/>
      <point x="728" y="1326" type="line" smooth="yes"/>
      <point x="792" y="1326"/>
      <point x="844" y="1273"/>
      <point x="959" y="1127" type="curve" smooth="yes"/>
      <point x="960" y="1120"/>
      <point x="967" y="1114"/>
      <point x="974" y="1114" type="curve" smooth="yes"/>
      <point x="980" y="1114"/>
      <point x="983" y="1121"/>
      <point x="983" y="1133" type="curve" smooth="yes"/>
      <point x="983" y="1136"/>
      <point x="985" y="1144"/>
      <point x="983" y="1155" type="curve" smooth="yes"/>
      <point x="910" y="1427" type="line" smooth="yes"/>
      <point x="903" y="1449"/>
      <point x="899" y="1459"/>
      <point x="877" y="1459" type="curve" smooth="yes"/>
      <point x="873" y="1459"/>
      <point x="859" y="1449"/>
      <point x="861" y="1430" type="curve" smooth="yes"/>
      <point x="867" y="1412"/>
      <point x="859" y="1400"/>
    </contour>
    <contour>
      <point x="346" y="668" type="line"/>
      <point x="334" y="604" type="line"/>
      <point x="628" y="604" type="line" smooth="yes"/>
      <point x="724" y="604"/>
      <point x="776" y="575"/>
      <point x="815" y="523" type="curve" smooth="yes"/>
      <point x="834" y="497"/>
      <point x="847" y="482"/>
      <point x="865" y="482" type="curve" smooth="yes"/>
      <point x="874" y="482"/>
      <point x="881" y="488"/>
      <point x="881" y="502" type="curve" smooth="yes"/>
      <point x="881" y="496"/>
      <point x="888" y="490"/>
      <point x="882" y="504" type="curve" smooth="yes"/>
      <point x="804" y="776" type="line" smooth="yes"/>
      <point x="801" y="783"/>
      <point x="797" y="790"/>
      <point x="787" y="790" type="curve" smooth="yes"/>
      <point x="780" y="790"/>
      <point x="773" y="784"/>
      <point x="772" y="776" type="curve" smooth="yes"/>
      <point x="733" y="695"/>
      <point x="689" y="668"/>
      <point x="624" y="668" type="curve" smooth="yes"/>
    </contour>
  </outline>
</glyph>
<glyph name="O" format="2">
  <advance width="1536"/>
  <unicode hex="004F"/>
  <outline>
    <contour>
      <point x="767" y="1426" type="curve" smooth="yes"/>
      <point x="393" y="1426"/>
      <point x="85" y="1144"/>
      <point x="85" y="708" type="curve" smooth="yes"/>
      <point x="85" y="294"/>
      <point x="397" y="-30"/>
      <point x="767" y="-30" type="curve" smooth="yes"/>
      <point x="1157" y="-30"/>
      <point x="1447" y="277"/>
      <point x="1447" y="710" type="curve" smooth="yes"/>
      <point x="1447" y="1112"/>
      <point x="1155" y="1426"/>
    </contour>
    <contour>
      <point x="1322" y="612" type="curve" smooth="yes"/>
      <point x="1322" y="273"/>
      <point x="1107" y="45"/>
      <point x="839" y="45" type="curve" smooth="yes"/>
      <point x="451" y="45"/>
      <point x="206" y="358"/>
      <point x="206" y="796" type="curve" smooth="yes"/>
      <point x="206" y="1128"/>
      <point x="422" y="1348"/>
      <point x="697" y="1348" type="curve" smooth="yes"/>
      <point x="1079" y="1348"/>
      <point x="1322" y="1040"/>
    </contour>
  </outline>
</glyph>
<glyph name="P" format="2">
  <advance width="1148"/>
  <unicode hex="0050"/>
  <outline>
    <contour>
      <point x="1090" y="909" type="curve" smooth="yes"/>
      <point x="1090" y="1203"/>
      <point x="877" y="1400"/>
      <point x="559" y="1400" type="curve" smooth="yes"/>
      <point x="157" y="1400" type="line" smooth="yes"/>
      <point x="118" y="1400"/>
      <point x="96" y="1394"/>
      <point x="96" y="1384" type="curve" smooth="yes"/>
      <point x="96" y="1372"/>
      <point x="114" y="1363"/>
      <point x="151" y="1359" type="curve" smooth="yes"/>
      <point x="200" y="1347" type="line" smooth="yes"/>
      <point x="247" y="1339"/>
      <point x="272" y="1303"/>
      <point x="272" y="1257" type="curve" smooth="yes"/>
      <point x="272" y="142" type="line" smooth="yes"/>
      <point x="272" y="98"/>
      <point x="247" y="63"/>
      <point x="200" y="54" type="curve" smooth="yes"/>
      <point x="151" y="42" type="line" smooth="yes"/>
      <point x="116" y="35"/>
      <point x="96" y="30"/>
      <point x="96" y="17" type="curve" smooth="yes"/>
      <point x="96" y="6"/>
      <point x="118" y="0"/>
      <point x="157" y="0" type="curve" smooth="yes"/>
      <point x="486" y="0" type="line" smooth="yes"/>
      <point x="523" y="0"/>
      <point x="547" y="6"/>
      <point x="547" y="17" type="curve" smooth="yes"/>
      <point x="547" y="30"/>
      <point x="527" y="34"/>
      <point x="492" y="42" type="curve" smooth="yes"/>
      <point x="443" y="54" type="line" smooth="yes"/>
      <point x="396" y="63"/>
      <point x="370" y="98"/>
      <point x="370" y="142" type="curve" smooth="yes"/>
      <point x="370" y="1320" type="line"/>
      <point x="549" y="1320" type="line" smooth="yes"/>
      <point x="800" y="1320"/>
      <point x="980" y="1165"/>
      <point x="980" y="949" type="curve" smooth="yes"/>
      <point x="980" y="722"/>
      <point x="832" y="549"/>
      <point x="577" y="549" type="curve" smooth="yes"/>
      <point x="413" y="549"/>
      <point x="325" y="572"/>
      <point x="245" y="619" type="curve"/>
      <point x="225" y="557" type="line"/>
      <point x="290" y="517"/>
      <point x="360" y="487"/>
      <point x="502" y="487" type="curve" smooth="yes"/>
      <point x="852" y="487"/>
      <point x="1090" y="656"/>
    </contour>
  </outline>
</glyph>
<glyph name="R" format="2">
  <advance width="1306"/>
  <unicode hex="0052"/>
  <anchor x="615" y="1476" name="center"/>
  <outline>
    <contour>
      <point x="1089" y="933" type="curve" smooth="yes"/>
      <point x="1089" y="1214"/>
      <point x="851" y="1400"/>
      <point x="536" y="1400" type="curve" smooth="yes"/>
      <point x="161" y="1400" type="line" smooth="yes"/>
      <point x="126" y="1400"/>
      <point x="109" y="1396"/>
      <point x="109" y="1387" type="curve" smooth="yes"/>
      <point x="109" y="1374"/>
      <point x="124" y="1365"/>
      <point x="155" y="1364" type="curve" smooth="yes"/>
      <point x="204" y="1352" type="line" smooth="yes"/>
      <point x="251" y="1343"/>
      <point x="276" y="1308"/>
      <point x="276" y="1262" type="curve" smooth="yes"/>
      <point x="276" y="138" type="line" smooth="yes"/>
      <point x="276" y="94"/>
      <point x="251" y="58"/>
      <point x="204" y="50" type="curve" smooth="yes"/>
      <point x="155" y="38" type="line" smooth="yes"/>
      <point x="124" y="31"/>
      <point x="107" y="27"/>
      <point x="107" y="14" type="curve" smooth="yes"/>
      <point x="107" y="4"/>
      <point x="126" y="0"/>
      <point x="161" y="0" type="curve" smooth="yes"/>
      <point x="472" y="0" type="line" smooth="yes"/>
      <point x="504" y="0"/>
      <point x="524" y="4"/>
      <point x="524" y="14" type="curve" smooth="yes"/>
      <point x="524" y="25"/>
      <point x="508" y="25"/>
      <point x="480" y="34" type="curve" smooth="yes"/>
      <point x="427" y="50" type="line" smooth="yes"/>
      <point x="394" y="56"/>
      <point x="374" y="88"/>
      <point x="374" y="138" type="curve" smooth="yes"/>
      <point x="374" y="1320" type="line"/>
      <point x="524" y="1320" type="line" smooth="yes"/>
      <point x="799" y="1320"/>
      <point x="985" y="1184"/>
      <point x="985" y="984" type="curve" smooth="yes"/>
      <point x="985" y="741"/>
      <point x="818" y="576"/>
      <point x="579" y="576" type="curve" smooth="yes"/>
      <point x="416" y="576"/>
      <point x="321" y="597"/>
      <point x="214" y="653" type="curve"/>
      <point x="194" y="587" type="line"/>
      <point x="297" y="526"/>
      <point x="381" y="508"/>
      <point x="529" y="508" type="curve" smooth="yes"/>
      <point x="865" y="508"/>
      <point x="1089" y="677"/>
    </contour>
    <contour>
      <point x="654" y="544" type="line"/>
      <point x="948" y="146" type="line" smooth="yes"/>
      <point x="966" y="124"/>
      <point x="973" y="106"/>
      <point x="973" y="84" type="curve" smooth="yes"/>
      <point x="973" y="61"/>
      <point x="959" y="51"/>
      <point x="932" y="30" type="curve" smooth="yes"/>
      <point x="927" y="27"/>
      <point x="922" y="23"/>
      <point x="922" y="15" type="curve" smooth="yes"/>
      <point x="922" y="1"/>
      <point x="937" y="0"/>
      <point x="959" y="0" type="curve" smooth="yes"/>
      <point x="1230" y="0" type="line" smooth="yes"/>
      <point x="1270" y="0"/>
      <point x="1280" y="8"/>
      <point x="1280" y="21" type="curve" smooth="yes"/>
      <point x="1280" y="33"/>
      <point x="1270" y="28"/>
      <point x="1250" y="30" type="curve" smooth="yes"/>
      <point x="1178" y="54"/>
      <point x="1147" y="87"/>
      <point x="1106" y="134" type="curve" smooth="yes"/>
      <point x="745" y="566" type="line"/>
    </contour>
  </outline>
</glyph>
<glyph name="W" format="2">
  <advance width="1940"/>
  <unicode hex="0057"/>
  <outline>
    <contour>
      <point x="907" y="1078" type="line"/>
      <point x="551" y="172" type="line"/>
      <point x="593" y="190" type="line"/>
      <point x="265" y="1229" type="line" smooth="yes"/>
      <point x="250" y="1284"/>
      <point x="273" y="1331"/>
      <point x="322" y="1340" type="curve" smooth="yes"/>
      <point x="384" y="1354" type="line" smooth="yes"/>
      <point x="394" y="1355"/>
      <point x="407" y="1362"/>
      <point x="407" y="1377" type="curve" smooth="yes"/>
      <point x="407" y="1392"/>
      <point x="394" y="1400"/>
      <point x="377" y="1400" type="curve" smooth="yes"/>
      <point x="26" y="1400" type="line" smooth="yes"/>
      <point x="6" y="1400"/>
      <point x="-9" y="1397"/>
      <point x="-9" y="1388" type="curve" smooth="yes"/>
      <point x="-9" y="1357"/>
      <point x="-4" y="1349"/>
      <point x="56" y="1328" type="curve" smooth="yes"/>
      <point x="100" y="1307"/>
      <point x="142" y="1289"/>
      <point x="157" y="1237" type="curve" smooth="yes"/>
      <point x="497" y="227" type="line" smooth="yes"/>
      <point x="490" y="227"/>
      <point x="503" y="188"/>
      <point x="503" y="150" type="curve" smooth="yes"/>
      <point x="503" y="56" type="line" smooth="yes"/>
      <point x="503" y="24"/>
      <point x="525" y="0"/>
      <point x="554" y="0" type="curve" smooth="yes"/>
      <point x="603" y="0" type="line" smooth="yes"/>
      <point x="635" y="0"/>
      <point x="654" y="23"/>
      <point x="654" y="50" type="curve" smooth="yes"/>
      <point x="654" y="149" type="line" smooth="yes"/>
      <point x="654" y="198"/>
      <point x="654" y="244"/>
      <point x="660" y="266" type="curve" smooth="yes"/>
      <point x="945" y="966" type="line"/>
    </contour>
    <contour>
      <point x="1516" y="1371" type="curve" smooth="yes"/>
      <point x="1516" y="1353"/>
      <point x="1531" y="1336"/>
      <point x="1543" y="1333" type="curve" smooth="yes"/>
      <point x="1691" y="1273" type="line" smooth="yes"/>
      <point x="1703" y="1275"/>
      <point x="1705" y="1240"/>
      <point x="1688" y="1187" type="curve" smooth="yes"/>
      <point x="1302" y="122" type="line"/>
      <point x="1353" y="158" type="line"/>
      <point x="1015" y="1243" type="line" smooth="yes"/>
      <point x="1003" y="1288"/>
      <point x="1030" y="1335"/>
      <point x="1049" y="1339" type="curve" smooth="yes"/>
      <point x="1109" y="1353" type="line" smooth="yes"/>
      <point x="1130" y="1356"/>
      <point x="1142" y="1363"/>
      <point x="1142" y="1377" type="curve" smooth="yes"/>
      <point x="1142" y="1392"/>
      <point x="1131" y="1400"/>
      <point x="1114" y="1400" type="curve" smooth="yes"/>
      <point x="816" y="1400" type="line" smooth="yes"/>
      <point x="792" y="1400"/>
      <point x="777" y="1393"/>
      <point x="777" y="1381" type="curve" smooth="yes"/>
      <point x="777" y="1365"/>
      <point x="787" y="1366"/>
      <point x="817" y="1345" type="curve" smooth="yes"/>
      <point x="836" y="1332"/>
      <point x="892" y="1313"/>
      <point x="918" y="1231" type="curve" smooth="yes"/>
      <point x="1243" y="229" type="line" smooth="yes"/>
      <point x="1246" y="208"/>
      <point x="1255" y="170"/>
      <point x="1255" y="118" type="curve" smooth="yes"/>
      <point x="1255" y="60" type="line" smooth="yes"/>
      <point x="1255" y="27"/>
      <point x="1278" y="0"/>
      <point x="1304" y="0" type="curve" smooth="yes"/>
      <point x="1357" y="0" type="line" smooth="yes"/>
      <point x="1388" y="0"/>
      <point x="1406" y="27"/>
      <point x="1406" y="55" type="curve" smooth="yes"/>
      <point x="1406" y="112" type="line" smooth="yes"/>
      <point x="1406" y="158"/>
      <point x="1405" y="188"/>
      <point x="1417" y="230" type="curve" smooth="yes"/>
      <point x="1769" y="1174" type="line" smooth="yes"/>
      <point x="1815" y="1296"/>
      <point x="1853" y="1308"/>
      <point x="1915" y="1351" type="curve" smooth="yes"/>
      <point x="1946" y="1373"/>
      <point x="1945" y="1366"/>
      <point x="1945" y="1381" type="curve" smooth="yes"/>
      <point x="1945" y="1396"/>
      <point x="1951" y="1400"/>
      <point x="1936" y="1400" type="curve" smooth="yes"/>
      <point x="1569" y="1400" type="line" smooth="yes"/>
      <point x="1535" y="1400"/>
      <point x="1516" y="1388"/>
    </contour>
  </outline>
</glyph>
<glyph name="X" format="2">
  <advance width="1296"/>
  <unicode hex="0058"/>
  <outline>
    <contour>
      <point x="1180" y="134" type="curve" smooth="yes"/>
      <point x="257" y="1285" type="line" smooth="yes"/>
      <point x="218" y="1339"/>
      <point x="299" y="1333"/>
      <point x="322" y="1339" type="curve" smooth="yes"/>
      <point x="381" y="1351" type="line" smooth="yes"/>
      <point x="410" y="1359"/>
      <point x="417" y="1362"/>
      <point x="417" y="1377" type="curve" smooth="yes"/>
      <point x="417" y="1391"/>
      <point x="409" y="1400"/>
      <point x="399" y="1400" type="curve" smooth="yes"/>
      <point x="66" y="1400" type="line" smooth="yes"/>
      <point x="30" y="1400"/>
      <point x="5" y="1393"/>
      <point x="5" y="1381" type="curve" smooth="yes"/>
      <point x="5" y="1365"/>
      <point x="25" y="1361"/>
      <point x="69" y="1344" type="curve" smooth="yes"/>
      <point x="120" y="1326"/>
      <point x="122" y="1313"/>
      <point x="167" y="1260" type="curve" smooth="yes"/>
      <point x="1134" y="74" type="line" smooth="yes"/>
      <point x="1140" y="61"/>
      <point x="1048" y="36"/>
      <point x="1017" y="53" type="curve" smooth="yes"/>
      <point x="978" y="60"/>
      <point x="956" y="42"/>
      <point x="956" y="22" type="curve" smooth="yes"/>
      <point x="956" y="8"/>
      <point x="971" y="0"/>
      <point x="989" y="0" type="curve" smooth="yes"/>
      <point x="1265" y="0" type="line" smooth="yes"/>
      <point x="1287" y="0"/>
      <point x="1308" y="10"/>
      <point x="1308" y="25" type="curve" smooth="yes"/>
      <point x="1308" y="43"/>
      <point x="1289" y="49"/>
      <point x="1251" y="53" type="curve" smooth="yes"/>
      <point x="1221" y="52"/>
      <point x="1212" y="92"/>
    </contour>
    <contour>
      <point x="634" y="622" type="line"/>
      <point x="1020" y="1174" type="line" smooth="yes"/>
      <point x="1093" y="1276"/>
      <point x="1192" y="1329"/>
      <point x="1212" y="1339" type="curve" smooth="yes"/>
      <point x="1279" y="1364"/>
      <point x="1312" y="1365"/>
      <point x="1310" y="1387" type="curve" smooth="yes"/>
      <point x="1308" y="1402"/>
      <point x="1309" y="1400"/>
      <point x="1290" y="1400" type="curve" smooth="yes"/>
      <point x="895" y="1400" type="line" smooth="yes"/>
      <point x="870" y="1400"/>
      <point x="856" y="1391"/>
      <point x="856" y="1377" type="curve" smooth="yes"/>
      <point x="856" y="1358"/>
      <point x="879" y="1345"/>
      <point x="917" y="1340" type="curve" smooth="yes"/>
      <point x="979" y="1333" type="line" smooth="yes"/>
      <point x="1007" y="1331"/>
      <point x="1014" y="1268"/>
      <point x="1023" y="1261" type="curve" smooth="yes"/>
      <point x="620" y="692" type="line"/>
    </contour>
    <contour>
      <point x="669" y="780" type="line"/>
      <point x="246" y="227" type="line" smooth="yes"/>
      <point x="191" y="158"/>
      <point x="123" y="88"/>
      <point x="80" y="67" type="curve" smooth="yes"/>
      <point x="25" y="41"/>
      <point x="-9" y="29"/>
      <point x="-9" y="8" type="curve" smooth="yes"/>
      <point x="-9" y="4"/>
      <point x="-13" y="3"/>
      <point x="5" y="3" type="curve" smooth="yes"/>
      <point x="396" y="3" type="line" smooth="yes"/>
      <point x="421" y="3"/>
      <point x="435" y="11"/>
      <point x="435" y="24" type="curve" smooth="yes"/>
      <point x="435" y="39"/>
      <point x="415" y="41"/>
      <point x="363" y="65" type="curve" smooth="yes"/>
      <point x="310" y="89" type="line" smooth="yes"/>
      <point x="270" y="107"/>
      <point x="267" y="144"/>
      <point x="298" y="191" type="curve" smooth="yes"/>
      <point x="681" y="710" type="line"/>
    </contour>
  </outline>
</glyph>
<glyph name="backslash" format="2">
  <advance width="823"/>
  <unicode hex="005C"/>
  <outline>
    <contour>
      <point x="137" y="1432" type="curve" smooth="yes"/>
      <point x="101" y="1515"/>
      <point x="146" y="1526"/>
      <point x="145" y="1527" type="curve" smooth="yes"/>
      <point x="178" y="1538"/>
      <point x="181" y="1518"/>
      <point x="188" y="1492" type="curve" smooth="yes"/>
      <point x="215" y="1393"/>
      <point x="496" y="590"/>
      <point x="442" y="683" type="curve" smooth="yes"/>
      <point x="369" y="817"/>
      <point x="666" y="-27"/>
      <point x="686" y="-104" type="curve" smooth="yes"/>
      <point x="708" y="-176"/>
      <point x="712" y="-191"/>
      <point x="690" y="-204" type="curve" smooth="yes"/>
      <point x="652" y="-218"/>
      <point x="631" y="-186"/>
      <point x="625" y="-152" type="curve" smooth="yes"/>
      <point x="601" y="-41"/>
      <point x="344" y="729"/>
      <point x="376" y="661" type="curve" smooth="yes"/>
      <point x="414" y="598"/>
      <point x="170" y="1357"/>
    </contour>
  </outline>
</glyph>
<glyph name="asciicircum" format="2">
  <advance width="843"/>
  <unicode hex="005E"/>
  <outline>
    <contour>
      <point x="171" y="976" type="curve" smooth="yes"/>
      <point x="307" y="1309" type="line" smooth="yes"/>
      <point x="335" y="1393"/>
      <point x="375" y="1416"/>
      <point x="423" y="1416" type="curve" smooth="yes"/>
      <point x="466" y="1416"/>
      <point x="512" y="1393"/>
      <point x="536" y="1313" type="curve" smooth="yes"/>
      <point x="673" y="976" type="line" smooth="yes"/>
      <point x="670" y="971"/>
      <point x="673" y="954"/>
      <point x="673" y="942" type="curve" smooth="yes"/>
      <point x="673" y="923"/>
      <point x="662" y="916"/>
      <point x="639" y="916" type="curve" smooth="yes"/>
      <point x="635" y="916"/>
      <point x="621" y="921"/>
      <point x="616" y="945" type="curve" smooth="yes"/>
      <point x="370" y="1350" type="line"/>
      <point x="474" y="1350" type="line"/>
      <point x="228" y="945" type="line" smooth="yes"/>
      <point x="223" y="920"/>
      <point x="208" y="916"/>
      <point x="203" y="916" type="curve" smooth="yes"/>
      <point x="180" y="916"/>
      <point x="168" y="924"/>
      <point x="168" y="943" type="curve" smooth="yes"/>
      <point x="168" y="955"/>
      <point x="172" y="970"/>
    </contour>
  </outline>
</glyph>
<glyph name="underscore" format="2">
  <advance width="1211"/>
  <unicode hex="005F"/>
  <outline>
    <contour>
      <point x="98" y="22" type="curve" smooth="yes"/>
      <point x="98" y="9"/>
      <point x="103" y="0"/>
      <point x="112" y="0" type="curve" smooth="yes"/>
      <point x="1131" y="0" type="line" smooth="yes"/>
      <point x="1141" y="0"/>
      <point x="1147" y="9"/>
      <point x="1147" y="22" type="curve" smooth="yes"/>
      <point x="1147" y="37"/>
      <point x="1140" y="48"/>
      <point x="1131" y="48" type="curve" smooth="yes"/>
      <point x="114" y="48" type="line" smooth="yes"/>
      <point x="106" y="48"/>
      <point x="98" y="37"/>
    </contour>
  </outline>
</glyph>
<glyph name="grave" format="2">
  <advance width="578"/>
  <unicode hex="0060"/>
  <anchor x="442" y="996" name="center"/>
  <outline>
    <contour>
      <point x="433" y="1072" type="curve" smooth="yes"/>
      <point x="306" y="1251" type="line" smooth="yes"/>
      <point x="294" y="1294"/>
      <point x="290" y="1309"/>
      <point x="247" y="1309" type="curve" smooth="yes"/>
      <point x="228" y="1309"/>
      <point x="210" y="1284"/>
      <point x="210" y="1261" type="curve" smooth="yes"/>
      <point x="210" y="1233"/>
      <point x="213" y="1206"/>
      <point x="230" y="1179" type="curve" smooth="yes"/>
      <point x="396" y="1049" type="line" smooth="yes"/>
      <point x="405" y="1034"/>
      <point x="419" y="1021"/>
      <point x="427" y="1021" type="curve" smooth="yes"/>
      <point x="438" y="1021"/>
      <point x="443" y="1024"/>
      <point x="443" y="1039" type="curve" smooth="yes"/>
      <point x="443" y="1050"/>
      <point x="435" y="1064"/>
    </contour>
  </outline>
</glyph>
<glyph name="a" format="2">
  <advance width="885"/>
  <unicode hex="0061"/>
  <anchor x="464" y="992" name="center"/>
  <outline>
    <contour>
      <point x="146" y="687" type="curve" smooth="yes"/>
      <point x="146" y="646"/>
      <point x="168" y="613"/>
      <point x="198" y="613" type="curve" smooth="yes"/>
      <point x="227" y="613"/>
      <point x="255" y="640"/>
      <point x="255" y="694" type="curve" smooth="yes"/>
      <point x="255" y="766" type="line" smooth="yes"/>
      <point x="255" y="840"/>
      <point x="313" y="878"/>
      <point x="439" y="878" type="curve" smooth="yes"/>
      <point x="593" y="878"/>
      <point x="675" y="795"/>
      <point x="675" y="637" type="curve" smooth="yes"/>
      <point x="675" y="100" type="line" smooth="yes"/>
      <point x="675" y="9"/>
      <point x="725" y="-29"/>
      <point x="779" y="-29" type="curve" smooth="yes"/>
      <point x="803" y="-29"/>
      <point x="843" y="12"/>
      <point x="843" y="46" type="curve" smooth="yes"/>
      <point x="843" y="46"/>
      <point x="848" y="45"/>
      <point x="855" y="45" type="curve" smooth="yes"/>
      <point x="843" y="45"/>
      <point x="831" y="26"/>
      <point x="797" y="26" type="curve" smooth="yes"/>
      <point x="773" y="26"/>
      <point x="742" y="45"/>
      <point x="742" y="93" type="curve" smooth="yes"/>
      <point x="742" y="690" type="line" smooth="yes"/>
      <point x="742" y="835"/>
      <point x="658" y="925"/>
      <point x="488" y="925" type="curve" smooth="yes"/>
      <point x="278" y="925"/>
      <point x="146" y="795"/>
    </contour>
    <contour>
      <point x="711" y="363" type="curve"/>
      <point x="711" y="401" type="line"/>
      <point x="623" y="421"/>
      <point x="526" y="446"/>
      <point x="416" y="446" type="curve" smooth="yes"/>
      <point x="213" y="446"/>
      <point x="100" y="325"/>
      <point x="100" y="203" type="curve" smooth="yes"/>
      <point x="100" y="67"/>
      <point x="208" y="-29"/>
      <point x="362" y="-29" type="curve" smooth="yes"/>
      <point x="496" y="-29"/>
      <point x="616" y="30"/>
      <point x="698" y="129" type="curve"/>
      <point x="672" y="167" type="line"/>
      <point x="596" y="82"/>
      <point x="495" y="37"/>
      <point x="389" y="37" type="curve" smooth="yes"/>
      <point x="273" y="37"/>
      <point x="192" y="117"/>
      <point x="192" y="224" type="curve" smooth="yes"/>
      <point x="192" y="317"/>
      <point x="266" y="398"/>
      <point x="435" y="398" type="curve" smooth="yes"/>
      <point x="541" y="398"/>
      <point x="625" y="379"/>
    </contour>
  </outline>
</glyph>
<glyph name="d" format="2">
  <advance width="1067"/>
  <unicode hex="0064"/>
  <outline>
    <contour>
      <point x="870" y="1339" type="line" smooth="yes"/>
      <point x="870" y="1365"/>
      <point x="851" y="1386"/>
      <point x="821" y="1386" type="curve" smooth="yes"/>
      <point x="807" y="1386"/>
      <point x="789" y="1370"/>
      <point x="759" y="1359" type="curve" smooth="yes"/>
      <point x="640" y="1305" type="line" smooth="yes"/>
      <point x="624" y="1298"/>
      <point x="613" y="1275"/>
      <point x="613" y="1266" type="curve" smooth="yes"/>
      <point x="613" y="1261"/>
      <point x="615" y="1250"/>
      <point x="625" y="1250" type="curve" smooth="yes"/>
      <point x="695" y="1250" type="line" smooth="yes"/>
      <point x="753" y="1250"/>
      <point x="789" y="1231"/>
      <point x="789" y="1182" type="curve" smooth="yes"/>
      <point x="789" y="53" type="line" smooth="yes"/>
      <point x="789" y="9"/>
      <point x="805" y="0"/>
      <point x="838" y="0" type="curve" smooth="yes"/>
      <point x="985" y="0" type="line" smooth="yes"/>
      <point x="1013" y="0"/>
      <point x="1024" y="8"/>
      <point x="1024" y="25" type="curve" smooth="yes"/>
      <point x="1024" y="42"/>
      <point x="1003" y="41"/>
      <point x="976" y="53" type="curve" smooth="yes"/>
      <point x="927" y="67" type="line" smooth="yes"/>
      <point x="892" y="79"/>
      <point x="870" y="104"/>
      <point x="870" y="163" type="curve" smooth="yes"/>
    </contour>
    <contour>
      <point x="834" y="189" type="line"/>
      <point x="721" y="93"/>
      <point x="588" y="57"/>
      <point x="503" y="57" type="curve" smooth="yes"/>
      <point x="285" y="57"/>
      <point x="139" y="193"/>
      <point x="139" y="474" type="curve" smooth="yes"/>
      <point x="139" y="718"/>
      <point x="317" y="884"/>
      <point x="511" y="884" type="curve" smooth="yes"/>
      <point x="648" y="884"/>
      <point x="721" y="844"/>
      <point x="791" y="738" type="curve"/>
      <point x="836" y="731" type="line"/>
      <point x="744" y="860"/>
      <point x="662" y="927"/>
      <point x="527" y="927" type="curve" smooth="yes"/>
      <point x="278" y="927"/>
      <point x="70" y="705"/>
      <point x="70" y="413" type="curve" smooth="yes"/>
      <point x="70" y="154"/>
      <point x="230" y="-27"/>
      <point x="433" y="-27" type="curve" smooth="yes"/>
      <point x="605" y="-27"/>
      <point x="717" y="46"/>
      <point x="854" y="193" type="curve"/>
    </contour>
  </outline>
</glyph>
<glyph name="m" format="2">
  <advance width="1779"/>
  <unicode hex="006D"/>
  <outline>
    <contour>
      <point x="205" y="64" type="curve" smooth="yes"/>
      <point x="143" y="54" type="line" smooth="yes"/>
      <point x="121" y="54"/>
      <point x="105" y="46"/>
      <point x="105" y="28" type="curve" smooth="yes"/>
      <point x="105" y="10"/>
      <point x="118" y="0"/>
      <point x="136" y="0" type="curve" smooth="yes"/>
      <point x="449" y="0" type="line" smooth="yes"/>
      <point x="475" y="0"/>
      <point x="488" y="10"/>
      <point x="488" y="26" type="curve" smooth="yes"/>
      <point x="488" y="43"/>
      <point x="472" y="54"/>
      <point x="435" y="58" type="curve" smooth="yes"/>
      <point x="408" y="59" type="line" smooth="yes"/>
      <point x="368" y="63"/>
      <point x="329" y="90"/>
      <point x="329" y="138" type="curve" smooth="yes"/>
      <point x="329" y="874" type="line" smooth="yes"/>
      <point x="329" y="907"/>
      <point x="315" y="927"/>
      <point x="291" y="927" type="curve" smooth="yes"/>
      <point x="278" y="927"/>
      <point x="260" y="923"/>
      <point x="238" y="904" type="curve" smooth="yes"/>
      <point x="124" y="814" type="line" smooth="yes"/>
      <point x="117" y="801"/>
      <point x="93" y="790"/>
      <point x="93" y="775" type="curve" smooth="yes"/>
      <point x="93" y="767"/>
      <point x="102" y="766"/>
      <point x="113" y="766" type="curve" smooth="yes"/>
      <point x="209" y="766" type="line" smooth="yes"/>
      <point x="236" y="766"/>
      <point x="268" y="745"/>
      <point x="268" y="697" type="curve" smooth="yes"/>
      <point x="268" y="146" type="line" smooth="yes"/>
      <point x="268" y="75"/>
      <point x="237" y="59"/>
    </contour>
    <contour>
      <point x="959" y="665" type="line" smooth="yes"/>
      <point x="959" y="807"/>
      <point x="831" y="927"/>
      <point x="656" y="927" type="curve" smooth="yes"/>
      <point x="536" y="927"/>
      <point x="417" y="859"/>
      <point x="326" y="734" type="curve"/>
      <point x="327" y="719" type="line"/>
      <point x="331" y="693" type="line"/>
      <point x="337" y="706" type="line" smooth="yes"/>
      <point x="434" y="807"/>
      <point x="549" y="867"/>
      <point x="641" y="867" type="curve" smooth="yes"/>
      <point x="768" y="867"/>
      <point x="896" y="801"/>
      <point x="896" y="588" type="curve" smooth="yes"/>
      <point x="896" y="134" type="line" smooth="yes"/>
      <point x="896" y="119"/>
      <point x="871" y="79"/>
      <point x="847" y="72" type="curve" smooth="yes"/>
      <point x="805" y="65" type="line" smooth="yes"/>
      <point x="769" y="57"/>
      <point x="752" y="49"/>
      <point x="752" y="33" type="curve" smooth="yes"/>
      <point x="752" y="12"/>
      <point x="769" y="0"/>
      <point x="792" y="0" type="curve" smooth="yes"/>
      <point x="1107" y="0" type="line" smooth="yes"/>
      <point x="1139" y="0"/>
      <point x="1150" y="26"/>
      <point x="1150" y="36" type="curve" smooth="yes"/>
      <point x="1150" y="47"/>
      <point x="1131" y="60"/>
      <point x="1093" y="64" type="curve" smooth="yes"/>
      <point x="1032" y="72" type="line" smooth="yes"/>
      <point x="983" y="80"/>
      <point x="959" y="123"/>
      <point x="959" y="172" type="curve" smooth="yes"/>
    </contour>
    <contour>
      <point x="957" y="697" type="line" smooth="yes"/>
      <point x="1008" y="742" type="line" smooth="yes"/>
      <point x="1109" y="830"/>
      <point x="1179" y="864"/>
      <point x="1260" y="864" type="curve" smooth="yes"/>
      <point x="1374" y="864"/>
      <point x="1446" y="801"/>
      <point x="1469" y="658" type="curve" smooth="yes"/>
      <point x="1544" y="168" type="line" smooth="yes"/>
      <point x="1552" y="92"/>
      <point x="1520" y="67"/>
      <point x="1454" y="62" type="curve" smooth="yes"/>
      <point x="1420" y="58" type="line" smooth="yes"/>
      <point x="1399" y="57"/>
      <point x="1378" y="59"/>
      <point x="1378" y="30" type="curve" smooth="yes"/>
      <point x="1378" y="12"/>
      <point x="1399" y="0"/>
      <point x="1433" y="0" type="curve" smooth="yes"/>
      <point x="1704" y="0" type="line" smooth="yes"/>
      <point x="1754" y="0"/>
      <point x="1761" y="10"/>
      <point x="1761" y="26" type="curve" smooth="yes"/>
      <point x="1761" y="43"/>
      <point x="1740" y="50"/>
      <point x="1712" y="58" type="curve" smooth="yes"/>
      <point x="1700" y="62" type="line" smooth="yes"/>
      <point x="1656" y="70"/>
      <point x="1626" y="93"/>
      <point x="1620" y="129" type="curve" smooth="yes"/>
      <point x="1532" y="668" type="line" smooth="yes"/>
      <point x="1504" y="840"/>
      <point x="1404" y="927"/>
      <point x="1274" y="927" type="curve" smooth="yes"/>
      <point x="1185" y="927"/>
      <point x="1107" y="889"/>
      <point x="1013" y="791" type="curve" smooth="yes"/>
      <point x="954" y="729" type="line"/>
    </contour>
  </outline>
</glyph>
<glyph name="o" format="2">
  <advance width="1116"/>
  <unicode hex="006F"/>
  <outline>
    <contour>
      <point x="582" y="925" type="curve" smooth="yes"/>
      <point x="276" y="925"/>
      <point x="87" y="724"/>
      <point x="87" y="458" type="curve" smooth="yes"/>
      <point x="87" y="181"/>
      <point x="281" y="-29"/>
      <point x="532" y="-29" type="curve" smooth="yes"/>
      <point x="814" y="-29"/>
      <point x="1033" y="167"/>
      <point x="1033" y="458" type="curve" smooth="yes"/>
      <point x="1033" y="728"/>
      <point x="838" y="925"/>
    </contour>
    <contour>
      <point x="950" y="403" type="curve" smooth="yes"/>
      <point x="950" y="182"/>
      <point x="805" y="27"/>
      <point x="597" y="27" type="curve" smooth="yes"/>
      <point x="339" y="27"/>
      <point x="163" y="239"/>
      <point x="163" y="490" type="curve" smooth="yes"/>
      <point x="163" y="708"/>
      <point x="315" y="872"/>
      <point x="523" y="872" type="curve" smooth="yes"/>
      <point x="790" y="872"/>
      <point x="950" y="671"/>
    </contour>
  </outline>
</glyph>
<glyph name="z" format="2">
  <advance width="847"/>
  <unicode hex="007A"/>
  <anchor x="447" y="1004" name="center"/>
  <outline>
    <contour>
      <point x="680" y="771" type="line" smooth="yes"/>
      <point x="717" y="830"/>
      <point x="720" y="854"/>
      <point x="720" y="861" type="curve" smooth="yes"/>
      <point x="720" y="878"/>
      <point x="710" y="898"/>
      <point x="687" y="898" type="curve" smooth="yes"/>
      <point x="259" y="898" type="line" smooth="yes"/>
      <point x="229" y="898"/>
      <point x="205" y="922"/>
      <point x="178" y="922" type="curve" smooth="yes"/>
      <point x="155" y="922"/>
      <point x="142" y="905"/>
      <point x="136" y="880" type="curve" smooth="yes"/>
      <point x="88" y="728" type="line" smooth="yes"/>
      <point x="85" y="724"/>
      <point x="83" y="719"/>
      <point x="83" y="713" type="curve" smooth="yes"/>
      <point x="83" y="697"/>
      <point x="94" y="690"/>
      <point x="107" y="690" type="curve" smooth="yes"/>
      <point x="127" y="690"/>
      <point x="151" y="700"/>
      <point x="170" y="731" type="curve" smooth="yes"/>
      <point x="214" y="794" type="line" smooth="yes"/>
      <point x="231" y="827"/>
      <point x="237" y="840"/>
      <point x="241" y="840" type="curve" smooth="yes"/>
      <point x="639" y="840" type="line"/>
      <point x="621" y="840" type="line"/>
      <point x="124" y="104" type="line" smooth="yes"/>
      <point x="91" y="57"/>
      <point x="98" y="38"/>
      <point x="98" y="33" type="curve" smooth="yes"/>
      <point x="98" y="15"/>
      <point x="102" y="-2"/>
      <point x="142" y="-2" type="curve" smooth="yes"/>
      <point x="492" y="-2" type="line" smooth="yes"/>
      <point x="609" y="-2"/>
      <point x="658" y="-29"/>
      <point x="711" y="-29" type="curve" smooth="yes"/>
      <point x="726" y="-29"/>
      <point x="726" y="-11"/>
      <point x="736" y="25" type="curve" smooth="yes"/>
      <point x="786" y="211" type="line" smooth="yes"/>
      <point x="785" y="213"/>
      <point x="783" y="214"/>
      <point x="783" y="216" type="curve" smooth="yes"/>
      <point x="783" y="235"/>
      <point x="772" y="247"/>
      <point x="761" y="247" type="curve" smooth="yes"/>
      <point x="741" y="247"/>
      <point x="730" y="235"/>
      <point x="711" y="210" type="curve" smooth="yes"/>
      <point x="653" y="121" type="line" smooth="yes"/>
      <point x="639" y="90"/>
      <point x="634" y="58"/>
      <point x="609" y="58" type="curve" smooth="yes"/>
      <point x="178" y="58" type="line"/>
      <point x="202" y="56" type="line"/>
    </contour>
  </outline>
</glyph>
<glyph name="braceright" format="2">
  <advance width="802"/>
  <unicode hex="007D"/>
  <outline>
    <contour>
      <point x="448" y="562" type="curve" smooth="yes"/>
      <point x="448" y="556"/>
      <point x="444" y="551"/>
      <point x="440" y="551" type="curve" smooth="yes"/>
      <point x="368" y="551"/>
      <point x="321" y="493"/>
      <point x="321" y="411" type="curve" smooth="yes"/>
      <point x="321" y="244"/>
      <point x="453" y="97"/>
      <point x="453" y="-56" type="curve" smooth="yes"/>
      <point x="453" y="-212"/>
      <point x="356" y="-335"/>
      <point x="243" y="-335" type="curve" smooth="yes"/>
      <point x="92" y="-335" type="line" smooth="yes"/>
      <point x="86" y="-335"/>
      <point x="82" y="-342"/>
      <point x="82" y="-354" type="curve" smooth="yes"/>
      <point x="82" y="-362"/>
      <point x="85" y="-370"/>
      <point x="88" y="-370" type="curve" smooth="yes"/>
      <point x="155" y="-370" type="line" smooth="yes"/>
      <point x="372" y="-370"/>
      <point x="527" y="-244"/>
      <point x="527" y="-60" type="curve" smooth="yes"/>
      <point x="527" y="150"/>
      <point x="390" y="284"/>
      <point x="390" y="457" type="curve" smooth="yes"/>
      <point x="390" y="498"/>
      <point x="424" y="520"/>
      <point x="479" y="519" type="curve" smooth="yes"/>
      <point x="497" y="519"/>
      <point x="579" y="503"/>
      <point x="599" y="503" type="curve" smooth="yes"/>
      <point x="634" y="503"/>
      <point x="667" y="538"/>
      <point x="667" y="560" type="curve" smooth="yes"/>
      <point x="667" y="585"/>
      <point x="636" y="617"/>
      <point x="592" y="617" type="curve" smooth="yes"/>
      <point x="581" y="617"/>
      <point x="511" y="601"/>
      <point x="482" y="601" type="curve" smooth="yes"/>
      <point x="422" y="600"/>
      <point x="390" y="625"/>
      <point x="390" y="673" type="curve" smooth="yes"/>
      <point x="390" y="834"/>
      <point x="527" y="973"/>
      <point x="527" y="1200" type="curve" smooth="yes"/>
      <point x="527" y="1380"/>
      <point x="372" y="1510"/>
      <point x="155" y="1510" type="curve" smooth="yes"/>
      <point x="88" y="1510" type="line" smooth="yes"/>
      <point x="85" y="1510"/>
      <point x="82" y="1501"/>
      <point x="82" y="1494" type="curve" smooth="yes"/>
      <point x="82" y="1480"/>
      <point x="86" y="1475"/>
      <point x="92" y="1475" type="curve" smooth="yes"/>
      <point x="243" y="1475" type="line" smooth="yes"/>
      <point x="356" y="1475"/>
      <point x="453" y="1347"/>
      <point x="453" y="1196" type="curve" smooth="yes"/>
      <point x="453" y="1033"/>
      <point x="321" y="878"/>
      <point x="321" y="717" type="curve" smooth="yes"/>
      <point x="321" y="635"/>
      <point x="363" y="569"/>
      <point x="440" y="569" type="curve" smooth="yes"/>
      <point x="444" y="569"/>
      <point x="448" y="568"/>
    </contour>
  </outline>
</glyph>
<glyph name="currency" format="2">
  <advance width="898"/>
  <unicode hex="00A4"/>
  <outline>
    <contour>
      <point x="447" y="327" type="curve" smooth="yes"/>
      <point x="280" y="327"/>
      <point x="142" y="474"/>
      <point x="142" y="645" type="curve" smooth="yes"/>
      <point x="142" y="819"/>
      <point x="280" y="960"/>
      <point x="447" y="960" type="curve" smooth="yes"/>
      <point x="617" y="960"/>
      <point x="754" y="819"/>
      <point x="754" y="645" type="curve" smooth="yes"/>
      <point x="754" y="474"/>
      <point x="617" y="327"/>
    </contour>
    <contour>
      <point x="449" y="411" type="curve" smooth="yes"/>
      <point x="575" y="411"/>
      <point x="684" y="515"/>
      <point x="684" y="645" type="curve" smooth="yes"/>
      <point x="684" y="776"/>
      <point x="575" y="878"/>
      <point x="449" y="878" type="curve" smooth="yes"/>
      <point x="317" y="878"/>
      <point x="216" y="776"/>
      <point x="216" y="645" type="curve" smooth="yes"/>
      <point x="216" y="515"/>
      <point x="317" y="411"/>
    </contour>
    <contour>
      <point x="619" y="897" type="line"/>
      <point x="662" y="956"/>
      <point x="683" y="991"/>
      <point x="700" y="1010" type="curve" smooth="yes"/>
      <point x="734" y="1046"/>
      <point x="761" y="1044"/>
      <point x="778" y="1025" type="curve" smooth="yes"/>
      <point x="794" y="1006"/>
      <point x="796" y="976"/>
      <point x="762" y="942" type="curve" smooth="yes"/>
      <point x="746" y="927"/>
      <point x="713" y="901"/>
      <point x="656" y="856" type="curve"/>
    </contour>
    <contour>
      <point x="236" y="852" type="line"/>
      <point x="180" y="895"/>
      <point x="150" y="919"/>
      <point x="132" y="938" type="curve" smooth="yes"/>
      <point x="100" y="973"/>
      <point x="104" y="1006"/>
      <point x="120" y="1025" type="curve" smooth="yes"/>
      <point x="136" y="1042"/>
      <point x="164" y="1046"/>
      <point x="196" y="1009" type="curve" smooth="yes"/>
      <point x="215" y="991"/>
      <point x="236" y="958"/>
      <point x="276" y="899" type="curve"/>
    </contour>
    <contour>
      <point x="134" y="343" type="curve" smooth="yes"/>
      <point x="152" y="360"/>
      <point x="186" y="384"/>
      <point x="242" y="431" type="curve"/>
      <point x="278" y="392" type="line"/>
      <point x="234" y="333"/>
      <point x="213" y="298"/>
      <point x="196" y="278" type="curve" smooth="yes"/>
      <point x="166" y="243"/>
      <point x="136" y="245"/>
      <point x="120" y="262" type="curve" smooth="yes"/>
      <point x="104" y="279"/>
      <point x="102" y="309"/>
    </contour>
    <contour>
      <point x="763" y="343" type="curve" smooth="yes"/>
      <point x="796" y="309"/>
      <point x="794" y="279"/>
      <point x="778" y="262" type="curve" smooth="yes"/>
      <point x="761" y="245"/>
      <point x="733" y="241"/>
      <point x="702" y="277" type="curve" smooth="yes"/>
      <point x="687" y="296"/>
      <point x="667" y="331"/>
      <point x="621" y="388" type="curve"/>
      <point x="660" y="427" type="line"/>
      <point x="713" y="382"/>
      <point x="748" y="359"/>
    </contour>
  </outline>
</glyph>
<glyph name="section" format="2">
  <advance width="1037"/>
  <unicode hex="00A7"/>
  <outline>
    <contour>
      <point x="566" y="-406" type="curve" smooth="yes"/>
      <point x="453" y="-406"/>
      <point x="366" y="-330"/>
      <point x="267" y="-154" type="curve" smooth="yes"/>
      <point x="246" y="-113"/>
      <point x="224" y="-94"/>
      <point x="206" y="-94" type="curve" smooth="yes"/>
      <point x="187" y="-94"/>
      <point x="178" y="-108"/>
      <point x="178" y="-132" type="curve" smooth="yes"/>
      <point x="178" y="-154"/>
      <point x="180" y="-184"/>
      <point x="196" y="-220" type="curve" smooth="yes"/>
      <point x="291" y="-470" type="line" smooth="yes"/>
      <point x="297" y="-482"/>
      <point x="301" y="-485"/>
      <point x="308" y="-485" type="curve" smooth="yes"/>
      <point x="333" y="-485"/>
      <point x="355" y="-440"/>
      <point x="382" y="-440" type="curve" smooth="yes"/>
      <point x="409" y="-440"/>
      <point x="476" y="-486"/>
      <point x="563" y="-486" type="curve" smooth="yes"/>
      <point x="759" y="-486"/>
      <point x="878" y="-326"/>
      <point x="878" y="-136" type="curve" smooth="yes"/>
      <point x="878" y="-2"/>
      <point x="816" y="85"/>
      <point x="545" y="259" type="curve" smooth="yes"/>
      <point x="264" y="434"/>
      <point x="175" y="552"/>
      <point x="175" y="662" type="curve" smooth="yes"/>
      <point x="175" y="739"/>
      <point x="236" y="791"/>
      <point x="309" y="791" type="curve"/>
      <point x="325" y="849" type="line"/>
      <point x="210" y="849"/>
      <point x="116" y="712"/>
      <point x="116" y="558" type="curve" smooth="yes"/>
      <point x="116" y="410"/>
      <point x="204" y="271"/>
      <point x="475" y="134" type="curve" smooth="yes"/>
      <point x="774" y="-15"/>
      <point x="827" y="-93"/>
      <point x="823" y="-205" type="curve" smooth="yes"/>
      <point x="819" y="-326"/>
      <point x="725" y="-406"/>
    </contour>
    <contour>
      <point x="682" y="184" type="curve"/>
      <point x="643" y="124" type="line"/>
      <point x="808" y="124"/>
      <point x="907" y="263"/>
      <point x="907" y="428" type="curve" smooth="yes"/>
      <point x="907" y="541"/>
      <point x="840" y="634"/>
      <point x="539" y="805" type="curve" smooth="yes"/>
      <point x="316" y="939"/>
      <point x="243" y="1040"/>
      <point x="243" y="1164" type="curve" smooth="yes"/>
      <point x="243" y="1276"/>
      <point x="336" y="1350"/>
      <point x="448" y="1350" type="curve" smooth="yes"/>
      <point x="553" y="1350"/>
      <point x="652" y="1277"/>
      <point x="782" y="1086" type="curve" smooth="yes"/>
      <point x="800" y="1056"/>
      <point x="824" y="1037"/>
      <point x="853" y="1037" type="curve" smooth="yes"/>
      <point x="873" y="1037"/>
      <point x="880" y="1052"/>
      <point x="880" y="1072" type="curve" smooth="yes"/>
      <point x="880" y="1088"/>
      <point x="873" y="1116"/>
      <point x="862" y="1140" type="curve" smooth="yes"/>
      <point x="747" y="1398" type="line" smooth="yes"/>
      <point x="736" y="1421"/>
      <point x="731" y="1432"/>
      <point x="718" y="1432" type="curve" smooth="yes"/>
      <point x="698" y="1432"/>
      <point x="684" y="1386"/>
      <point x="657" y="1386" type="curve" smooth="yes"/>
      <point x="620" y="1386"/>
      <point x="554" y="1430"/>
      <point x="454" y="1430" type="curve" smooth="yes"/>
      <point x="294" y="1430"/>
      <point x="163" y="1271"/>
      <point x="163" y="1094" type="curve" smooth="yes"/>
      <point x="163" y="936"/>
      <point x="255" y="832"/>
      <point x="507" y="684" type="curve" smooth="yes"/>
      <point x="769" y="535"/>
      <point x="845" y="427"/>
      <point x="845" y="334" type="curve" smooth="yes"/>
      <point x="845" y="246"/>
      <point x="783" y="184"/>
    </contour>
  </outline>
</glyph>
<glyph name="dieresis" format="2">
  <advance width="725"/>
  <unicode hex="00A8"/>
  <outline>
    <contour>
      <point x="165" y="1106" type="curve" smooth="yes"/>
      <point x="200" y="1106"/>
      <point x="224" y="1141"/>
      <point x="224" y="1185" type="curve" smooth="yes"/>
      <point x="224" y="1228"/>
      <point x="200" y="1263"/>
      <point x="165" y="1263" type="curve" smooth="yes"/>
      <point x="130" y="1263"/>
      <point x="106" y="1228"/>
      <point x="106" y="1185" type="curve" smooth="yes"/>
      <point x="106" y="1141"/>
      <point x="130" y="1106"/>
    </contour>
    <contour>
      <point x="514" y="1106" type="curve" smooth="yes"/>
      <point x="549" y="1106"/>
      <point x="573" y="1141"/>
      <point x="573" y="1185" type="curve" smooth="yes"/>
      <point x="573" y="1228"/>
      <point x="549" y="1263"/>
      <point x="514" y="1263" type="curve" smooth="yes"/>
      <point x="479" y="1263"/>
      <point x="455" y="1228"/>
      <point x="455" y="1185" type="curve" smooth="yes"/>
      <point x="455" y="1141"/>
      <point x="479" y="1106"/>
    </contour>
  </outline>
</glyph>
<glyph name="macron" format="2">
  <advance width="774"/>
  <unicode hex="00AF"/>
  <outline>
    <contour>
      <point x="133" y="1113" type="curve" smooth="yes"/>
      <point x="133" y="1088"/>
      <point x="150" y="1071"/>
      <point x="178" y="1071" type="curve" smooth="yes"/>
      <point x="594" y="1071" type="line" smooth="yes"/>
      <point x="622" y="1071"/>
      <point x="641" y="1088"/>
      <point x="641" y="1113" type="curve" smooth="yes"/>
      <point x="641" y="1139"/>
      <point x="620" y="1158"/>
      <point x="594" y="1158" type="curve" smooth="yes"/>
      <point x="180" y="1158" type="line" smooth="yes"/>
      <point x="154" y="1158"/>
      <point x="133" y="1139"/>
    </contour>
  </outline>
</glyph>
<glyph name="twosuperior" format="2">
  <advance width="714"/>
  <unicode hex="00B2"/>
  <outline>
    <contour>
      <point x="377" y="937" type="curve" smooth="yes"/>
      <point x="188" y="826"/>
      <point x="136" y="730"/>
      <point x="136" y="633" type="curve" smooth="yes"/>
      <point x="136" y="604"/>
      <point x="150" y="584"/>
      <point x="164" y="584" type="curve" smooth="yes"/>
      <point x="208" y="584"/>
      <point x="224" y="660"/>
      <point x="265" y="660" type="curve" smooth="yes"/>
      <point x="275" y="660"/>
      <point x="358" y="580"/>
      <point x="406" y="580" type="curve" smooth="yes"/>
      <point x="515" y="580"/>
      <point x="555" y="644"/>
      <point x="555" y="726" type="curve" smooth="yes"/>
      <point x="555" y="729"/>
      <point x="554" y="731"/>
      <point x="545" y="731" type="curve" smooth="yes"/>
      <point x="533" y="731"/>
      <point x="526" y="730"/>
      <point x="511" y="703" type="curve" smooth="yes"/>
      <point x="497" y="669"/>
      <point x="487" y="665"/>
      <point x="448" y="665" type="curve" smooth="yes"/>
      <point x="405" y="665"/>
      <point x="340" y="731"/>
      <point x="255" y="731" type="curve" smooth="yes"/>
      <point x="217" y="731"/>
      <point x="177" y="684"/>
      <point x="177" y="631" type="curve"/>
      <point x="182" y="633" type="line"/>
      <point x="182" y="740"/>
      <point x="232" y="787"/>
      <point x="458" y="936" type="curve" smooth="yes"/>
      <point x="515" y="1000"/>
      <point x="526" y="1040"/>
      <point x="526" y="1119" type="curve" smooth="yes"/>
      <point x="526" y="1202"/>
      <point x="462" y="1266"/>
      <point x="355" y="1266" type="curve" smooth="yes"/>
      <point x="224" y="1266"/>
      <point x="149" y="1167"/>
      <point x="149" y="1120" type="curve" smooth="yes"/>
      <point x="149" y="1073"/>
      <point x="172" y="1045"/>
      <point x="210" y="1045" type="curve" smooth="yes"/>
      <point x="227" y="1045"/>
      <point x="248" y="1070"/>
      <point x="248" y="1097" type="curve" smooth="yes"/>
      <point x="248" y="1118" type="line" smooth="yes"/>
      <point x="248" y="1187"/>
      <point x="280" y="1238"/>
      <point x="363" y="1238" type="curve" smooth="yes"/>
      <point x="420" y="1238"/>
      <point x="471" y="1193"/>
      <point x="471" y="1107" type="curve" smooth="yes"/>
      <point x="471" y="1027"/>
      <point x="451" y="982"/>
    </contour>
  </outline>
</glyph>
<glyph name="acute" format="2">
  <advance width="578"/>
  <unicode hex="00B4"/>
  <anchor x="143" y="995" name="center"/>
  <outline>
    <contour>
      <point x="145" y="1072" type="curve" smooth="yes"/>
      <point x="272" y="1251" type="line" smooth="yes"/>
      <point x="284" y="1294"/>
      <point x="288" y="1309"/>
      <point x="331" y="1309" type="curve" smooth="yes"/>
      <point x="350" y="1309"/>
      <point x="368" y="1284"/>
      <point x="368" y="1261" type="curve" smooth="yes"/>
      <point x="368" y="1233"/>
      <point x="366" y="1206"/>
      <point x="348" y="1179" type="curve" smooth="yes"/>
      <point x="182" y="1049" type="line" smooth="yes"/>
      <point x="173" y="1034"/>
      <point x="159" y="1021"/>
      <point x="151" y="1021" type="curve" smooth="yes"/>
      <point x="140" y="1021"/>
      <point x="135" y="1024"/>
      <point x="135" y="1039" type="curve" smooth="yes"/>
      <point x="135" y="1050"/>
      <point x="143" y="1064"/>
    </contour>
  </outline>
</glyph>
<glyph name="paragraph" format="2">
  <advance width="1129"/>
  <unicode hex="00B6"/>
  <outline>
    <contour>
      <point x="29" y="1067" type="curve" smooth="yes"/>
      <point x="29" y="889"/>
      <point x="150" y="770"/>
      <point x="345" y="770" type="curve" smooth="yes"/>
      <point x="402" y="770"/>
      <point x="438" y="778"/>
      <point x="461" y="784" type="curve"/>
      <point x="461" y="128" type="line" smooth="yes"/>
      <point x="461" y="90"/>
      <point x="431" y="65"/>
      <point x="388" y="54" type="curve" smooth="yes"/>
      <point x="357" y="42" type="line" smooth="yes"/>
      <point x="325" y="34"/>
      <point x="311" y="30"/>
      <point x="311" y="17" type="curve" smooth="yes"/>
      <point x="311" y="6"/>
      <point x="329" y="0"/>
      <point x="363" y="0" type="curve" smooth="yes"/>
      <point x="990" y="0" type="line" smooth="yes"/>
      <point x="1029" y="0"/>
      <point x="1024" y="6"/>
      <point x="1024" y="17" type="curve" smooth="yes"/>
      <point x="1024" y="37"/>
      <point x="1009" y="35"/>
      <point x="978" y="42" type="curve" smooth="yes"/>
      <point x="929" y="54" type="line" smooth="yes"/>
      <point x="884" y="66"/>
      <point x="857" y="76"/>
      <point x="857" y="128" type="curve" smooth="yes"/>
      <point x="857" y="1270" type="line" smooth="yes"/>
      <point x="857" y="1325"/>
      <point x="884" y="1334"/>
      <point x="929" y="1346" type="curve" smooth="yes"/>
      <point x="978" y="1358" type="line" smooth="yes"/>
      <point x="1013" y="1366"/>
      <point x="1033" y="1362"/>
      <point x="1033" y="1383" type="curve" smooth="yes"/>
      <point x="1033" y="1395"/>
      <point x="1031" y="1400"/>
      <point x="990" y="1400" type="curve" smooth="yes"/>
      <point x="380" y="1400" type="line" smooth="yes"/>
      <point x="160" y="1400"/>
      <point x="29" y="1267"/>
    </contour>
    <contour>
      <point x="747" y="114" type="line" smooth="yes"/>
      <point x="747" y="70"/>
      <point x="725" y="36"/>
      <point x="659" y="36" type="curve" smooth="yes"/>
      <point x="594" y="36"/>
      <point x="570" y="77"/>
      <point x="570" y="114" type="curve" smooth="yes"/>
      <point x="570" y="1270" type="line" smooth="yes"/>
      <point x="570" y="1309"/>
      <point x="594" y="1350"/>
      <point x="659" y="1350" type="curve" smooth="yes"/>
      <point x="725" y="1350"/>
      <point x="747" y="1316"/>
      <point x="747" y="1270" type="curve" smooth="yes"/>
    </contour>
  </outline>
</glyph>
<glyph name="periodcentered" format="2">
  <advance width="667"/>
  <unicode hex="00B7"/>
  <outline>
    <contour>
      <point x="334" y="370" type="curve" smooth="yes"/>
      <point x="381" y="370"/>
      <point x="418" y="414"/>
      <point x="418" y="468" type="curve" smooth="yes"/>
      <point x="418" y="523"/>
      <point x="381" y="564"/>
      <point x="334" y="564" type="curve" smooth="yes"/>
      <point x="286" y="564"/>
      <point x="249" y="523"/>
      <point x="249" y="468" type="curve" smooth="yes"/>
      <point x="249" y="414"/>
      <point x="286" y="370"/>
    </contour>
  </outline>
</glyph>
<glyph name="onehalf" format="2">
  <advance width="1417"/>
  <unicode hex="00BD"/>
  <outline>
    <contour>
      <point x="1187" y="1175" type="curve" smooth="yes"/>
      <point x="1203" y="1197"/>
      <point x="1203" y="1213"/>
      <point x="1203" y="1229" type="curve" smooth="yes"/>
      <point x="1203" y="1245"/>
      <point x="1191" y="1266"/>
      <point x="1174" y="1266" type="curve" smooth="yes"/>
      <point x="1159" y="1266"/>
      <point x="1150" y="1256"/>
      <point x="1143" y="1238" type="curve" smooth="yes"/>
      <point x="1004" y="1051"/>
      <point x="854" y="881"/>
      <point x="710" y="692" type="curve" smooth="yes"/>
      <point x="536" y="465"/>
      <point x="419" y="269"/>
      <point x="167" y="12" type="curve" smooth="yes"/>
      <point x="173" y="12"/>
      <point x="184" y="3"/>
      <point x="184" y="9" type="curve" smooth="yes"/>
      <point x="184" y="2"/>
      <point x="187" y="-33"/>
      <point x="220" y="-33" type="curve" smooth="yes"/>
      <point x="214" y="-33"/>
      <point x="218" y="-44"/>
      <point x="221" y="-29" type="curve" smooth="yes"/>
      <point x="402" y="214"/>
      <point x="550" y="384"/>
      <point x="756" y="645" type="curve" smooth="yes"/>
      <point x="907" y="838"/>
      <point x="1030" y="1009"/>
    </contour>
    <contour>
      <point x="151" y="1158" type="line" smooth="yes"/>
      <point x="142" y="1158"/>
      <point x="137" y="1168"/>
      <point x="137" y="1179" type="curve" smooth="yes"/>
      <point x="137" y="1193"/>
      <point x="144" y="1203"/>
      <point x="155" y="1203" type="curve" smooth="yes"/>
      <point x="158" y="1203" type="line" smooth="yes"/>
      <point x="206" y="1203"/>
      <point x="240" y="1212"/>
      <point x="290" y="1256" type="curve" smooth="yes"/>
      <point x="296" y="1265"/>
      <point x="303" y="1269"/>
      <point x="316" y="1269" type="curve" smooth="yes"/>
      <point x="322" y="1269"/>
      <point x="327" y="1264"/>
      <point x="327" y="1250" type="curve" smooth="yes"/>
      <point x="327" y="705" type="line" smooth="yes"/>
      <point x="327" y="676"/>
      <point x="349" y="651"/>
      <point x="376" y="650" type="curve" smooth="yes"/>
      <point x="449" y="646" type="line" smooth="yes"/>
      <point x="456" y="646"/>
      <point x="459" y="639"/>
      <point x="459" y="627" type="curve" smooth="yes"/>
      <point x="459" y="610"/>
      <point x="455" y="604"/>
      <point x="449" y="604" type="curve" smooth="yes"/>
      <point x="145" y="604" type="line" smooth="yes"/>
      <point x="134" y="604"/>
      <point x="129" y="610"/>
      <point x="129" y="627" type="curve" smooth="yes"/>
      <point x="129" y="641"/>
      <point x="134" y="650"/>
      <point x="145" y="650" type="curve" smooth="yes"/>
      <point x="214" y="654" type="line" smooth="yes"/>
      <point x="246" y="655"/>
      <point x="275" y="676"/>
      <point x="275" y="705" type="curve" smooth="yes"/>
      <point x="275" y="1096" type="line" smooth="yes"/>
      <point x="275" y="1140"/>
      <point x="254" y="1158"/>
      <point x="217" y="1158" type="curve" smooth="yes"/>
    </contour>
    <contour>
      <point x="1073" y="333" type="curve" smooth="yes"/>
      <point x="884" y="222"/>
      <point x="832" y="126"/>
      <point x="832" y="29" type="curve" smooth="yes"/>
      <point x="832" y="0"/>
      <point x="846" y="-20"/>
      <point x="859" y="-20" type="curve" smooth="yes"/>
      <point x="904" y="-20"/>
      <point x="920" y="56"/>
      <point x="960" y="56" type="curve" smooth="yes"/>
      <point x="971" y="56"/>
      <point x="1054" y="-24"/>
      <point x="1102" y="-24" type="curve" smooth="yes"/>
      <point x="1211" y="-24"/>
      <point x="1250" y="40"/>
      <point x="1250" y="122" type="curve" smooth="yes"/>
      <point x="1250" y="125"/>
      <point x="1250" y="127"/>
      <point x="1241" y="127" type="curve" smooth="yes"/>
      <point x="1229" y="127"/>
      <point x="1222" y="126"/>
      <point x="1206" y="99" type="curve" smooth="yes"/>
      <point x="1193" y="65"/>
      <point x="1183" y="61"/>
      <point x="1144" y="61" type="curve" smooth="yes"/>
      <point x="1101" y="61"/>
      <point x="1036" y="127"/>
      <point x="951" y="127" type="curve" smooth="yes"/>
      <point x="912" y="127"/>
      <point x="873" y="80"/>
      <point x="873" y="27" type="curve"/>
      <point x="878" y="29" type="line"/>
      <point x="878" y="136"/>
      <point x="928" y="183"/>
      <point x="1153" y="332" type="curve" smooth="yes"/>
      <point x="1211" y="396"/>
      <point x="1222" y="437"/>
      <point x="1222" y="515" type="curve" smooth="yes"/>
      <point x="1222" y="598"/>
      <point x="1157" y="662"/>
      <point x="1051" y="662" type="curve" smooth="yes"/>
      <point x="920" y="662"/>
      <point x="845" y="563"/>
      <point x="845" y="516" type="curve" smooth="yes"/>
      <point x="845" y="469"/>
      <point x="867" y="442"/>
      <point x="906" y="442" type="curve" smooth="yes"/>
      <point x="923" y="442"/>
      <point x="944" y="466"/>
      <point x="944" y="493" type="curve" smooth="yes"/>
      <point x="944" y="514" type="line" smooth="yes"/>
      <point x="944" y="583"/>
      <point x="976" y="634"/>
      <point x="1058" y="634" type="curve" smooth="yes"/>
      <point x="1116" y="634"/>
      <point x="1167" y="589"/>
      <point x="1167" y="503" type="curve" smooth="yes"/>
      <point x="1167" y="423"/>
      <point x="1147" y="378"/>
    </contour>
  </outline>
</glyph>
<glyph name="Ntilde" format="2">
  <advance width="1552"/>
  <unicode hex="00D1"/>
  <outline>
    <contour>
      <point x="537" y="23" type="curve" smooth="yes"/>
      <point x="537" y="42"/>
      <point x="526" y="48"/>
      <point x="501" y="56" type="curve" smooth="yes"/>
      <point x="439" y="82" type="line" smooth="yes"/>
      <point x="382" y="102"/>
      <point x="345" y="97"/>
      <point x="345" y="124" type="curve" smooth="yes"/>
      <point x="345" y="1079" type="line"/>
      <point x="355" y="1109" type="line"/>
      <point x="1176" y="102" type="line" smooth="yes"/>
      <point x="1184" y="85"/>
      <point x="1216" y="49"/>
      <point x="1216" y="14" type="curve" smooth="yes"/>
      <point x="1216" y="-2"/>
      <point x="1216" y="0"/>
      <point x="1214" y="0" type="curve" smooth="yes"/>
      <point x="1373" y="0" type="line" smooth="yes"/>
      <point x="1398" y="0"/>
      <point x="1412" y="7"/>
      <point x="1412" y="18" type="curve" smooth="yes"/>
      <point x="1412" y="31"/>
      <point x="1396" y="39"/>
      <point x="1381" y="56" type="curve" smooth="yes"/>
      <point x="1336" y="108" type="line" smooth="yes"/>
      <point x="1310" y="138"/>
      <point x="1287" y="175"/>
      <point x="1287" y="225" type="curve" smooth="yes"/>
      <point x="1287" y="1252" type="line" smooth="yes"/>
      <point x="1287" y="1255"/>
      <point x="1312" y="1263"/>
      <point x="1326" y="1273" type="curve" smooth="yes"/>
      <point x="1442" y="1332" type="line" smooth="yes"/>
      <point x="1459" y="1339"/>
      <point x="1469" y="1348"/>
      <point x="1469" y="1361" type="curve" smooth="yes"/>
      <point x="1469" y="1374"/>
      <point x="1454" y="1386"/>
      <point x="1432" y="1386" type="curve" smooth="yes"/>
      <point x="1054" y="1386" type="line" smooth="yes"/>
      <point x="1035" y="1386"/>
      <point x="1024" y="1378"/>
      <point x="1024" y="1365" type="curve" smooth="yes"/>
      <point x="1024" y="1350"/>
      <point x="1041" y="1339"/>
      <point x="1065" y="1329" type="curve" smooth="yes"/>
      <point x="1150" y="1293" type="line" smooth="yes"/>
      <point x="1215" y="1266"/>
      <point x="1226" y="1260"/>
      <point x="1226" y="1262" type="curve" smooth="yes"/>
      <point x="1226" y="295" type="line"/>
      <point x="1216" y="212" type="line"/>
      <point x="349" y="1307" type="line" smooth="yes"/>
      <point x="294" y="1373"/>
      <point x="270" y="1386"/>
      <point x="227" y="1386" type="curve" smooth="yes"/>
      <point x="181" y="1386" type="line" smooth="yes"/>
      <point x="150" y="1386"/>
      <point x="129" y="1376"/>
      <point x="129" y="1357" type="curve" smooth="yes"/>
      <point x="129" y="1341"/>
      <point x="135" y="1338"/>
      <point x="155" y="1320" type="curve" smooth="yes"/>
      <point x="227" y="1253" type="line" smooth="yes"/>
      <point x="257" y="1227"/>
      <point x="284" y="1202"/>
      <point x="284" y="1164" type="curve" smooth="yes"/>
      <point x="284" y="131" type="line" smooth="yes"/>
      <point x="284" y="112"/>
      <point x="251" y="100"/>
      <point x="208" y="82" type="curve" smooth="yes"/>
      <point x="148" y="58" type="line" smooth="yes"/>
      <point x="112" y="46"/>
      <point x="90" y="38"/>
      <point x="90" y="17" type="curve" smooth="yes"/>
      <point x="90" y="4"/>
      <point x="109" y="0"/>
      <point x="133" y="0" type="curve" smooth="yes"/>
      <point x="486" y="0" type="line" smooth="yes"/>
      <point x="516" y="0"/>
      <point x="537" y="9"/>
    </contour>
    <contour>
      <point x="561" y="1539" type="curve" smooth="yes"/>
      <point x="561" y="1606"/>
      <point x="600" y="1655"/>
      <point x="669" y="1655" type="curve" smooth="yes"/>
      <point x="681" y="1655"/>
      <point x="731" y="1646"/>
      <point x="772" y="1600" type="curve" smooth="yes"/>
      <point x="816" y="1558"/>
      <point x="813" y="1545"/>
      <point x="832" y="1545" type="curve" smooth="yes"/>
      <point x="845" y="1545"/>
      <point x="856" y="1572"/>
      <point x="856" y="1625" type="curve" smooth="yes"/>
      <point x="856" y="1643"/>
      <point x="864" y="1655"/>
      <point x="877" y="1655" type="curve" smooth="yes"/>
      <point x="879" y="1655"/>
      <point x="896" y="1654"/>
      <point x="896" y="1612" type="curve" smooth="yes"/>
      <point x="896" y="1537"/>
      <point x="858" y="1505"/>
      <point x="800" y="1507" type="curve" smooth="yes"/>
      <point x="750" y="1506"/>
      <point x="711" y="1519"/>
      <point x="673" y="1558" type="curve" smooth="yes"/>
      <point x="627" y="1602"/>
      <point x="625" y="1615"/>
      <point x="628" y="1615" type="curve" smooth="yes"/>
      <point x="608" y="1615"/>
      <point x="596" y="1582"/>
      <point x="596" y="1516" type="curve" smooth="yes"/>
      <point x="596" y="1506"/>
      <point x="588" y="1495"/>
      <point x="575" y="1495" type="curve" smooth="yes"/>
      <point x="575" y="1495"/>
      <point x="561" y="1499"/>
    </contour>
  </outline>
</glyph>
<glyph name="Otilde" format="2">
  <advance width="1536"/>
  <unicode hex="00D5"/>
  <outline>
    <contour>
      <point x="767" y="1412" type="curve" smooth="yes"/>
      <point x="393" y="1412"/>
      <point x="85" y="1133"/>
      <point x="85" y="701" type="curve" smooth="yes"/>
      <point x="85" y="291"/>
      <point x="397" y="-30"/>
      <point x="767" y="-30" type="curve" smooth="yes"/>
      <point x="1157" y="-30"/>
      <point x="1447" y="274"/>
      <point x="1447" y="703" type="curve" smooth="yes"/>
      <point x="1447" y="1101"/>
      <point x="1155" y="1412"/>
    </contour>
    <contour>
      <point x="1322" y="606" type="curve" smooth="yes"/>
      <point x="1322" y="270"/>
      <point x="1107" y="45"/>
      <point x="839" y="45" type="curve" smooth="yes"/>
      <point x="451" y="45"/>
      <point x="206" y="354"/>
      <point x="206" y="788" type="curve" smooth="yes"/>
      <point x="206" y="1117"/>
      <point x="422" y="1335"/>
      <point x="697" y="1335" type="curve" smooth="yes"/>
      <point x="1079" y="1335"/>
      <point x="1322" y="1030"/>
    </contour>
    <contour>
      <point x="502" y="1539" type="curve" smooth="yes"/>
      <point x="502" y="1606"/>
      <point x="541" y="1655"/>
      <point x="611" y="1655" type="curve" smooth="yes"/>
      <point x="622" y="1655"/>
      <point x="671" y="1646"/>
      <point x="712" y="1600" type="curve" smooth="yes"/>
      <point x="758" y="1558"/>
      <point x="754" y="1545"/>
      <point x="772" y="1545" type="curve" smooth="yes"/>
      <point x="786" y="1545"/>
      <point x="797" y="1572"/>
      <point x="797" y="1625" type="curve" smooth="yes"/>
      <point x="797" y="1643"/>
      <point x="805" y="1655"/>
      <point x="818" y="1655" type="curve" smooth="yes"/>
      <point x="820" y="1655"/>
      <point x="836" y="1654"/>
      <point x="836" y="1612" type="curve" smooth="yes"/>
      <point x="836" y="1537"/>
      <point x="798" y="1505"/>
      <point x="741" y="1507" type="curve" smooth="yes"/>
      <point x="691" y="1506"/>
      <point x="652" y="1519"/>
      <point x="613" y="1558" type="curve" smooth="yes"/>
      <point x="568" y="1602"/>
      <point x="565" y="1615"/>
      <point x="568" y="1615" type="curve" smooth="yes"/>
      <point x="549" y="1615"/>
      <point x="536" y="1582"/>
      <point x="536" y="1516" type="curve" smooth="yes"/>
      <point x="536" y="1506"/>
      <point x="529" y="1495"/>
      <point x="516" y="1495" type="curve" smooth="yes"/>
      <point x="515" y="1495"/>
      <point x="502" y="1499"/>
    </contour>
  </outline>
</glyph>
<glyph name="Thorn" format="2">
  <advance width="1138"/>
  <unicode hex="00DE"/>
  <outline>
    <contour>
      <point x="272" y="1062" type="line"/>
      <point x="633" y="1062" type="line" smooth="yes"/>
      <point x="816" y="1062"/>
      <point x="988" y="955"/>
      <point x="988" y="714" type="curve" smooth="yes"/>
      <point x="988" y="472"/>
      <point x="831" y="350"/>
      <point x="619" y="350" type="curve" smooth="yes"/>
      <point x="445" y="350"/>
      <point x="363" y="388"/>
      <point x="270" y="440" type="curve"/>
      <point x="251" y="378" type="line"/>
      <point x="373" y="308"/>
      <point x="470" y="282"/>
      <point x="625" y="282" type="curve" smooth="yes"/>
      <point x="875" y="282"/>
      <point x="1080" y="399"/>
      <point x="1080" y="660" type="curve" smooth="yes"/>
      <point x="1080" y="964"/>
      <point x="866" y="1142"/>
      <point x="572" y="1142" type="curve" smooth="yes"/>
      <point x="272" y="1142" type="line"/>
    </contour>
    <contour>
      <point x="372" y="136" type="curve" smooth="yes"/>
      <point x="372" y="1262" type="line" smooth="yes"/>
      <point x="372" y="1316"/>
      <point x="396" y="1343"/>
      <point x="445" y="1352" type="curve" smooth="yes"/>
      <point x="499" y="1365" type="line" smooth="yes"/>
      <point x="520" y="1368"/>
      <point x="540" y="1372"/>
      <point x="540" y="1386" type="curve" smooth="yes"/>
      <point x="540" y="1395"/>
      <point x="525" y="1400"/>
      <point x="495" y="1400" type="curve" smooth="yes"/>
      <point x="150" y="1400" type="line" smooth="yes"/>
      <point x="121" y="1400"/>
      <point x="109" y="1395"/>
      <point x="109" y="1386" type="curve" smooth="yes"/>
      <point x="109" y="1372"/>
      <point x="126" y="1365"/>
      <point x="153" y="1364" type="curve" smooth="yes"/>
      <point x="202" y="1352" type="line" smooth="yes"/>
      <point x="249" y="1343"/>
      <point x="274" y="1316"/>
      <point x="274" y="1262" type="curve" smooth="yes"/>
      <point x="274" y="136" type="line" smooth="yes"/>
      <point x="274" y="84"/>
      <point x="249" y="57"/>
      <point x="202" y="48" type="curve" smooth="yes"/>
      <point x="142" y="35" type="line" smooth="yes"/>
      <point x="122" y="31"/>
      <point x="107" y="30"/>
      <point x="107" y="14" type="curve" smooth="yes"/>
      <point x="107" y="5"/>
      <point x="121" y="0"/>
      <point x="150" y="0" type="curve" smooth="yes"/>
      <point x="497" y="0" type="line" smooth="yes"/>
      <point x="525" y="0"/>
      <point x="538" y="5"/>
      <point x="538" y="14" type="curve" smooth="yes"/>
      <point x="538" y="28"/>
      <point x="518" y="28"/>
      <point x="498" y="35" type="curve" smooth="yes"/>
      <point x="445" y="48" type="line" smooth="yes"/>
      <point x="396" y="58"/>
      <point x="372" y="84"/>
    </contour>
  </outline>
</glyph>
<glyph name="atilde" format="2">
  <advance width="885"/>
  <unicode hex="00E3"/>
  <outline>
    <contour>
      <point x="146" y="694" type="curve" smooth="yes"/>
      <point x="146" y="652"/>
      <point x="168" y="620"/>
      <point x="198" y="620" type="curve" smooth="yes"/>
      <point x="227" y="620"/>
      <point x="255" y="646"/>
      <point x="255" y="701" type="curve" smooth="yes"/>
      <point x="255" y="774" type="line" smooth="yes"/>
      <point x="255" y="848"/>
      <point x="313" y="887"/>
      <point x="439" y="887" type="curve" smooth="yes"/>
      <point x="593" y="887"/>
      <point x="675" y="803"/>
      <point x="675" y="644" type="curve" smooth="yes"/>
      <point x="675" y="101" type="line" smooth="yes"/>
      <point x="675" y="9"/>
      <point x="725" y="-30"/>
      <point x="779" y="-30" type="curve" smooth="yes"/>
      <point x="803" y="-30"/>
      <point x="843" y="12"/>
      <point x="843" y="47" type="curve" smooth="yes"/>
      <point x="843" y="47"/>
      <point x="848" y="46"/>
      <point x="855" y="46" type="curve" smooth="yes"/>
      <point x="843" y="46"/>
      <point x="831" y="27"/>
      <point x="797" y="27" type="curve" smooth="yes"/>
      <point x="773" y="27"/>
      <point x="742" y="46"/>
      <point x="742" y="94" type="curve" smooth="yes"/>
      <point x="742" y="697" type="line" smooth="yes"/>
      <point x="742" y="843"/>
      <point x="658" y="935"/>
      <point x="488" y="935" type="curve" smooth="yes"/>
      <point x="278" y="935"/>
      <point x="146" y="803"/>
    </contour>
    <contour>
      <point x="711" y="366" type="curve"/>
      <point x="711" y="405" type="line"/>
      <point x="623" y="426"/>
      <point x="526" y="450"/>
      <point x="416" y="450" type="curve" smooth="yes"/>
      <point x="213" y="450"/>
      <point x="100" y="329"/>
      <point x="100" y="205" type="curve" smooth="yes"/>
      <point x="100" y="67"/>
      <point x="208" y="-30"/>
      <point x="362" y="-30" type="curve" smooth="yes"/>
      <point x="496" y="-30"/>
      <point x="616" y="31"/>
      <point x="698" y="131" type="curve"/>
      <point x="672" y="168" type="line"/>
      <point x="596" y="83"/>
      <point x="495" y="38"/>
      <point x="389" y="38" type="curve" smooth="yes"/>
      <point x="273" y="38"/>
      <point x="192" y="118"/>
      <point x="192" y="227" type="curve" smooth="yes"/>
      <point x="192" y="320"/>
      <point x="266" y="402"/>
      <point x="435" y="402" type="curve" smooth="yes"/>
      <point x="541" y="402"/>
      <point x="625" y="383"/>
    </contour>
    <contour>
      <point x="301" y="1085" type="curve" smooth="yes"/>
      <point x="301" y="1166"/>
      <point x="338" y="1226"/>
      <point x="408" y="1226" type="curve" smooth="yes"/>
      <point x="416" y="1226"/>
      <point x="453" y="1208"/>
      <point x="498" y="1144" type="curve" smooth="yes"/>
      <point x="534" y="1089"/>
      <point x="554" y="1075"/>
      <point x="576" y="1075" type="curve" smooth="yes"/>
      <point x="591" y="1075"/>
      <point x="600" y="1112"/>
      <point x="600" y="1188" type="curve" smooth="yes"/>
      <point x="600" y="1212"/>
      <point x="605" y="1226"/>
      <point x="614" y="1226" type="curve" smooth="yes"/>
      <point x="621" y="1226"/>
      <point x="627" y="1215"/>
      <point x="627" y="1170" type="curve" smooth="yes"/>
      <point x="627" y="1065"/>
      <point x="599" y="1015"/>
      <point x="547" y="1018" type="curve" smooth="yes"/>
      <point x="489" y="1021"/>
      <point x="445" y="1055"/>
      <point x="421" y="1100" type="curve" smooth="yes"/>
      <point x="391" y="1154"/>
      <point x="372" y="1169"/>
      <point x="357" y="1169" type="curve" smooth="yes"/>
      <point x="338" y="1169"/>
      <point x="327" y="1129"/>
      <point x="327" y="1040" type="curve" smooth="yes"/>
      <point x="327" y="1020"/>
      <point x="320" y="1008"/>
      <point x="314" y="1008" type="curve" smooth="yes"/>
      <point x="308" y="1008"/>
      <point x="301" y="1024"/>
    </contour>
  </outline>
</glyph>
<glyph name="adieresis" format="2">
  <advance width="885"/>
  <unicode hex="00E4"/>
  <outline>
    <contour>
      <point x="146" y="694" type="curve" smooth="yes"/>
      <point x="146" y="652"/>
      <point x="168" y="620"/>
      <point x="198" y="620" type="curve" smooth="yes"/>
      <point x="227" y="620"/>
      <point x="255" y="646"/>
      <point x="255" y="701" type="curve" smooth="yes"/>
      <point x="255" y="774" type="line" smooth="yes"/>
      <point x="255" y="848"/>
      <point x="313" y="887"/>
      <point x="439" y="887" type="curve" smooth="yes"/>
      <point x="593" y="887"/>
      <point x="675" y="803"/>
      <point x="675" y="644" type="curve" smooth="yes"/>
      <point x="675" y="101" type="line" smooth="yes"/>
      <point x="675" y="9"/>
      <point x="725" y="-30"/>
      <point x="779" y="-30" type="curve" smooth="yes"/>
      <point x="803" y="-30"/>
      <point x="843" y="12"/>
      <point x="843" y="47" type="curve" smooth="yes"/>
      <point x="843" y="47"/>
      <point x="848" y="46"/>
      <point x="855" y="46" type="curve" smooth="yes"/>
      <point x="843" y="46"/>
      <point x="831" y="27"/>
      <point x="797" y="27" type="curve" smooth="yes"/>
      <point x="773" y="27"/>
      <point x="742" y="46"/>
      <point x="742" y="94" type="curve" smooth="yes"/>
      <point x="742" y="697" type="line" smooth="yes"/>
      <point x="742" y="843"/>
      <point x="658" y="935"/>
      <point x="488" y="935" type="curve" smooth="yes"/>
      <point x="278" y="935"/>
      <point x="146" y="803"/>
    </contour>
    <contour>
      <point x="711" y="366" type="curve"/>
      <point x="711" y="405" type="line"/>
      <point x="623" y="426"/>
      <point x="526" y="450"/>
      <point x="416" y="450" type="curve" smooth="yes"/>
      <point x="213" y="450"/>
      <point x="100" y="329"/>
      <point x="100" y="205" type="curve" smooth="yes"/>
      <point x="100" y="67"/>
      <point x="208" y="-30"/>
      <point x="362" y="-30" type="curve" smooth="yes"/>
      <point x="496" y="-30"/>
      <point x="616" y="31"/>
      <point x="698" y="131" type="curve"/>
      <point x="672" y="168" type="line"/>
      <point x="596" y="83"/>
      <point x="495" y="38"/>
      <point x="389" y="38" type="curve" smooth="yes"/>
      <point x="273" y="38"/>
      <point x="192" y="118"/>
      <point x="192" y="227" type="curve" smooth="yes"/>
      <point x="192" y="320"/>
      <point x="266" y="402"/>
      <point x="435" y="402" type="curve" smooth="yes"/>
      <point x="541" y="402"/>
      <point x="625" y="383"/>
    </contour>
    <contour>
      <point x="288" y="1078" type="curve" smooth="yes"/>
      <point x="324" y="1078"/>
      <point x="349" y="1114"/>
      <point x="349" y="1157" type="curve" smooth="yes"/>
      <point x="349" y="1201"/>
      <point x="324" y="1236"/>
      <point x="288" y="1236" type="curve" smooth="yes"/>
      <point x="255" y="1236"/>
      <point x="229" y="1201"/>
      <point x="229" y="1157" type="curve" smooth="yes"/>
      <point x="229" y="1114"/>
      <point x="255" y="1078"/>
    </contour>
    <contour>
      <point x="637" y="1078" type="curve" smooth="yes"/>
      <point x="673" y="1078"/>
      <point x="698" y="1114"/>
      <point x="698" y="1157" type="curve" smooth="yes"/>
      <point x="698" y="1201"/>
      <point x="673" y="1236"/>
      <point x="637" y="1236" type="curve" smooth="yes"/>
      <point x="604" y="1236"/>
      <point x="578" y="1201"/>
      <point x="578" y="1157" type="curve" smooth="yes"/>
      <point x="578" y="1114"/>
      <point x="604" y="1078"/>
    </contour>
  </outline>
</glyph>
<glyph name="ae" format="2">
  <advance width="1481"/>
  <unicode hex="00E6"/>
  <anchor x="788" y="1000" name="center"/>
  <outline>
    <contour>
      <point x="706" y="365" type="curve"/>
      <point x="707" y="403" type="line"/>
      <point x="631" y="429"/>
      <point x="550" y="442"/>
      <point x="459" y="442" type="curve" smooth="yes"/>
      <point x="211" y="442"/>
      <point x="77" y="321"/>
      <point x="77" y="200" type="curve" smooth="yes"/>
      <point x="77" y="66"/>
      <point x="182" y="-29"/>
      <point x="332" y="-29" type="curve" smooth="yes"/>
      <point x="496" y="-29"/>
      <point x="638" y="49"/>
      <point x="736" y="170" type="curve"/>
      <point x="713" y="207" type="line"/>
      <point x="615" y="100"/>
      <point x="496" y="37"/>
      <point x="368" y="37" type="curve" smooth="yes"/>
      <point x="252" y="37"/>
      <point x="170" y="116"/>
      <point x="170" y="221" type="curve" smooth="yes"/>
      <point x="170" y="313"/>
      <point x="256" y="393"/>
      <point x="461" y="393" type="curve" smooth="yes"/>
      <point x="555" y="393"/>
      <point x="624" y="389"/>
    </contour>
    <contour>
      <point x="123" y="667" type="curve" smooth="yes"/>
      <point x="123" y="626"/>
      <point x="145" y="594"/>
      <point x="175" y="594" type="curve" smooth="yes"/>
      <point x="205" y="594"/>
      <point x="233" y="614"/>
      <point x="233" y="661" type="curve" smooth="yes"/>
      <point x="233" y="733" type="line" smooth="yes"/>
      <point x="233" y="828"/>
      <point x="290" y="878"/>
      <point x="417" y="878" type="curve" smooth="yes"/>
      <point x="581" y="878"/>
      <point x="666" y="790"/>
      <point x="666" y="623" type="curve" smooth="yes"/>
      <point x="666" y="440" type="line"/>
      <point x="751" y="609" type="line"/>
      <point x="751" y="704" type="line" smooth="yes"/>
      <point x="751" y="840"/>
      <point x="668" y="925"/>
      <point x="501" y="925" type="curve" smooth="yes"/>
      <point x="269" y="925"/>
      <point x="123" y="784"/>
    </contour>
    <contour>
      <point x="1386" y="613" type="curve" smooth="yes"/>
      <point x="1386" y="801"/>
      <point x="1258" y="925"/>
      <point x="1089" y="925" type="curve" smooth="yes"/>
      <point x="839" y="925"/>
      <point x="664" y="687"/>
      <point x="664" y="420" type="curve" smooth="yes"/>
      <point x="664" y="170"/>
      <point x="818" y="-29"/>
      <point x="1054" y="-29" type="curve" smooth="yes"/>
      <point x="1230" y="-29"/>
      <point x="1382" y="104"/>
      <point x="1382" y="204" type="curve" smooth="yes"/>
      <point x="1382" y="203"/>
      <point x="1381" y="214"/>
      <point x="1376" y="214" type="curve" smooth="yes"/>
      <point x="1361" y="214"/>
      <point x="1358" y="200"/>
      <point x="1367" y="186" type="curve" smooth="yes"/>
      <point x="1355" y="131"/>
      <point x="1230" y="67"/>
      <point x="1096" y="67" type="curve" smooth="yes"/>
      <point x="890" y="67"/>
      <point x="745" y="223"/>
      <point x="745" y="478" type="curve" smooth="yes"/>
      <point x="745" y="665"/>
      <point x="838" y="867"/>
      <point x="1045" y="867" type="curve" smooth="yes"/>
      <point x="1198" y="867"/>
      <point x="1294" y="769"/>
      <point x="1294" y="636" type="curve" smooth="yes"/>
      <point x="1294" y="596"/>
      <point x="1261" y="574"/>
      <point x="1219" y="574" type="curve" smooth="yes"/>
      <point x="689" y="574" type="line"/>
      <point x="689" y="524" type="line"/>
      <point x="1281" y="524" type="line" smooth="yes"/>
      <point x="1335" y="524"/>
      <point x="1386" y="553"/>
    </contour>
  </outline>
</glyph>
<glyph name="ccedilla" format="2">
  <advance width="840"/>
  <unicode hex="00E7"/>
  <outline>
    <contour>
      <point x="778" y="772" type="curve" smooth="yes"/>
      <point x="778" y="852"/>
      <point x="660" y="935"/>
      <point x="545" y="935" type="curve" smooth="yes"/>
      <point x="269" y="935"/>
      <point x="78" y="725"/>
      <point x="78" y="419" type="curve" smooth="yes"/>
      <point x="78" y="170"/>
      <point x="240" y="-30"/>
      <point x="461" y="-30" type="curve" smooth="yes"/>
      <point x="656" y="-30"/>
      <point x="783" y="115"/>
      <point x="783" y="170" type="curve" smooth="yes"/>
      <point x="783" y="172"/>
      <point x="784" y="167"/>
      <point x="781" y="167" type="curve" smooth="yes"/>
      <point x="776" y="167"/>
      <point x="761" y="157"/>
      <point x="756" y="151" type="curve" smooth="yes"/>
      <point x="695" y="100"/>
      <point x="623" y="56"/>
      <point x="506" y="56" type="curve" smooth="yes"/>
      <point x="300" y="56"/>
      <point x="141" y="224"/>
      <point x="141" y="513" type="curve" smooth="yes"/>
      <point x="141" y="720"/>
      <point x="293" y="874"/>
      <point x="463" y="874" type="curve" smooth="yes"/>
      <point x="575" y="874"/>
      <point x="647" y="842"/>
      <point x="647" y="805" type="curve" smooth="yes"/>
      <point x="647" y="773" type="line" smooth="yes"/>
      <point x="647" y="719"/>
      <point x="680" y="683"/>
      <point x="710" y="683" type="curve" smooth="yes"/>
      <point x="740" y="683"/>
      <point x="778" y="724"/>
    </contour>
    <contour>
      <point x="584" y="11" type="line"/>
      <point x="481" y="-227" type="line" smooth="yes"/>
      <point x="492" y="-222"/>
      <point x="515" y="-213"/>
      <point x="502" y="-213" type="curve" smooth="yes"/>
      <point x="517" y="-213"/>
      <point x="531" y="-201"/>
      <point x="558" y="-201" type="curve" smooth="yes"/>
      <point x="613" y="-201"/>
      <point x="645" y="-237"/>
      <point x="645" y="-316" type="curve" smooth="yes"/>
      <point x="645" y="-390"/>
      <point x="607" y="-431"/>
      <point x="550" y="-431" type="curve" smooth="yes"/>
      <point x="500" y="-431"/>
      <point x="471" y="-421"/>
      <point x="471" y="-407" type="curve" smooth="yes"/>
      <point x="471" y="-400" type="line" smooth="yes"/>
      <point x="471" y="-345"/>
      <point x="457" y="-309"/>
      <point x="442" y="-309" type="curve" smooth="yes"/>
      <point x="430" y="-309"/>
      <point x="414" y="-330"/>
      <point x="414" y="-357" type="curve" smooth="yes"/>
      <point x="414" y="-435"/>
      <point x="472" y="-490"/>
      <point x="525" y="-490" type="curve" smooth="yes"/>
      <point x="614" y="-490"/>
      <point x="687" y="-427"/>
      <point x="687" y="-330" type="curve" smooth="yes"/>
      <point x="687" y="-235"/>
      <point x="620" y="-181"/>
      <point x="521" y="-181" type="curve" smooth="yes"/>
      <point x="522" y="-181"/>
      <point x="521" y="-176"/>
      <point x="502" y="-207" type="curve"/>
      <point x="501" y="-183" type="line"/>
      <point x="597" y="13" type="line"/>
    </contour>
  </outline>
</glyph>
<glyph name="ntilde" format="2">
  <advance width="1122"/>
  <unicode hex="00F1"/>
  <outline>
    <contour>
      <point x="329" y="883" type="line" smooth="yes"/>
      <point x="329" y="916"/>
      <point x="315" y="937"/>
      <point x="291" y="937" type="curve" smooth="yes"/>
      <point x="278" y="937"/>
      <point x="260" y="930"/>
      <point x="238" y="913" type="curve" smooth="yes"/>
      <point x="124" y="840" type="line" smooth="yes"/>
      <point x="113" y="831"/>
      <point x="93" y="818"/>
      <point x="93" y="803" type="curve" smooth="yes"/>
      <point x="93" y="793"/>
      <point x="102" y="791"/>
      <point x="113" y="791" type="curve" smooth="yes"/>
      <point x="221" y="791" type="line" smooth="yes"/>
      <point x="263" y="791"/>
      <point x="268" y="769"/>
      <point x="268" y="741" type="curve" smooth="yes"/>
      <point x="268" y="131" type="line" smooth="yes"/>
      <point x="268" y="82"/>
      <point x="252" y="73"/>
      <point x="223" y="67" type="curve" smooth="yes"/>
      <point x="143" y="48" type="line" smooth="yes"/>
      <point x="121" y="45"/>
      <point x="105" y="44"/>
      <point x="105" y="29" type="curve" smooth="yes"/>
      <point x="105" y="10"/>
      <point x="118" y="0"/>
      <point x="136" y="0" type="curve" smooth="yes"/>
      <point x="449" y="0" type="line" smooth="yes"/>
      <point x="475" y="0"/>
      <point x="488" y="10"/>
      <point x="488" y="27" type="curve" smooth="yes"/>
      <point x="488" y="41"/>
      <point x="468" y="41"/>
      <point x="435" y="51" type="curve" smooth="yes"/>
      <point x="385" y="66" type="line" smooth="yes"/>
      <point x="354" y="76"/>
      <point x="329" y="97"/>
      <point x="329" y="123" type="curve" smooth="yes"/>
    </contour>
    <contour>
      <point x="301" y="714" type="line" smooth="yes"/>
      <point x="356" y="759" type="line" smooth="yes"/>
      <point x="434" y="826"/>
      <point x="508" y="866"/>
      <point x="597" y="866" type="curve" smooth="yes"/>
      <point x="713" y="866"/>
      <point x="793" y="806"/>
      <point x="812" y="664" type="curve" smooth="yes"/>
      <point x="889" y="129" type="line" smooth="yes"/>
      <point x="893" y="103"/>
      <point x="878" y="77"/>
      <point x="847" y="69" type="curve" smooth="yes"/>
      <point x="738" y="46" type="line" smooth="yes"/>
      <point x="728" y="41"/>
      <point x="721" y="36"/>
      <point x="721" y="24" type="curve" smooth="yes"/>
      <point x="721" y="12"/>
      <point x="743" y="0"/>
      <point x="776" y="0" type="curve" smooth="yes"/>
      <point x="1066" y="0" type="line" smooth="yes"/>
      <point x="1102" y="0"/>
      <point x="1104" y="10"/>
      <point x="1104" y="16" type="curve" smooth="yes"/>
      <point x="1104" y="24"/>
      <point x="1102" y="27"/>
      <point x="1097" y="35" type="curve" smooth="yes"/>
      <point x="1018" y="68" type="line" smooth="yes"/>
      <point x="993" y="83"/>
      <point x="965" y="104"/>
      <point x="963" y="118" type="curve" smooth="yes"/>
      <point x="875" y="675" type="line" smooth="yes"/>
      <point x="848" y="848"/>
      <point x="748" y="937"/>
      <point x="618" y="937" type="curve" smooth="yes"/>
      <point x="528" y="937"/>
      <point x="459" y="898"/>
      <point x="357" y="809" type="curve" smooth="yes"/>
      <point x="290" y="750" type="line"/>
    </contour>
    <contour>
      <point x="436" y="1085" type="curve" smooth="yes"/>
      <point x="436" y="1166"/>
      <point x="473" y="1226"/>
      <point x="543" y="1226" type="curve" smooth="yes"/>
      <point x="551" y="1226"/>
      <point x="588" y="1208"/>
      <point x="633" y="1144" type="curve" smooth="yes"/>
      <point x="669" y="1089"/>
      <point x="689" y="1075"/>
      <point x="711" y="1075" type="curve" smooth="yes"/>
      <point x="726" y="1075"/>
      <point x="735" y="1112"/>
      <point x="735" y="1188" type="curve" smooth="yes"/>
      <point x="735" y="1212"/>
      <point x="740" y="1226"/>
      <point x="750" y="1226" type="curve" smooth="yes"/>
      <point x="757" y="1226"/>
      <point x="762" y="1215"/>
      <point x="762" y="1170" type="curve" smooth="yes"/>
      <point x="762" y="1065"/>
      <point x="734" y="1015"/>
      <point x="682" y="1018" type="curve" smooth="yes"/>
      <point x="624" y="1021"/>
      <point x="580" y="1055"/>
      <point x="557" y="1100" type="curve" smooth="yes"/>
      <point x="526" y="1154"/>
      <point x="508" y="1169"/>
      <point x="492" y="1169" type="curve" smooth="yes"/>
      <point x="473" y="1169"/>
      <point x="463" y="1129"/>
      <point x="463" y="1040" type="curve" smooth="yes"/>
      <point x="463" y="1020"/>
      <point x="456" y="1008"/>
      <point x="449" y="1008" type="curve" smooth="yes"/>
      <point x="443" y="1008"/>
      <point x="436" y="1024"/>
    </contour>
  </outline>
</glyph>
<glyph name="divide" format="2">
  <advance width="976"/>
  <unicode hex="00F7"/>
  <outline>
    <contour>
      <point x="133" y="616" type="curve" smooth="yes"/>
      <point x="133" y="595"/>
      <point x="150" y="580"/>
      <point x="169" y="580" type="curve" smooth="yes"/>
      <point x="280" y="580"/>
      <point x="412" y="598"/>
      <point x="494" y="598" type="curve" smooth="yes"/>
      <point x="578" y="598"/>
      <point x="704" y="580"/>
      <point x="808" y="580" type="curve" smooth="yes"/>
      <point x="829" y="580"/>
      <point x="843" y="595"/>
      <point x="843" y="616" type="curve" smooth="yes"/>
      <point x="843" y="639"/>
      <point x="828" y="655"/>
      <point x="808" y="655" type="curve" smooth="yes"/>
      <point x="704" y="655"/>
      <point x="578" y="638"/>
      <point x="494" y="638" type="curve" smooth="yes"/>
      <point x="398" y="638"/>
      <point x="280" y="655"/>
      <point x="171" y="655" type="curve" smooth="yes"/>
      <point x="153" y="655"/>
      <point x="133" y="639"/>
    </contour>
    <contour>
      <point x="488" y="331" type="curve" smooth="yes"/>
      <point x="519" y="331"/>
      <point x="545" y="359"/>
      <point x="545" y="396" type="curve" smooth="yes"/>
      <point x="545" y="434"/>
      <point x="519" y="461"/>
      <point x="488" y="461" type="curve" smooth="yes"/>
      <point x="456" y="461"/>
      <point x="430" y="434"/>
      <point x="430" y="396" type="curve" smooth="yes"/>
      <point x="430" y="359"/>
      <point x="456" y="331"/>
    </contour>
    <contour>
      <point x="488" y="778" type="curve" smooth="yes"/>
      <point x="519" y="778"/>
      <point x="545" y="807"/>
      <point x="545" y="843" type="curve" smooth="yes"/>
      <point x="545" y="881"/>
      <point x="519" y="909"/>
      <point x="488" y="909" type="curve" smooth="yes"/>
      <point x="456" y="909"/>
      <point x="430" y="881"/>
      <point x="430" y="843" type="curve" smooth="yes"/>
      <point x="430" y="807"/>
      <point x="456" y="778"/>
    </contour>
  </outline>
</glyph>
<glyph name="oslash" format="2">
  <advance width="1116"/>
  <unicode hex="00F8"/>
  <outline>
    <contour>
      <point x="997" y="840" type="curve" smooth="yes"/>
      <point x="1012" y="859"/>
      <point x="1013" y="872"/>
      <point x="1013" y="887" type="curve" smooth="yes"/>
      <point x="1013" y="907"/>
      <point x="998" y="928"/>
      <point x="979" y="928" type="curve" smooth="yes"/>
      <point x="969" y="928"/>
      <point x="959" y="923"/>
      <point x="957" y="910" type="curve" smooth="yes"/>
      <point x="852" y="780"/>
      <point x="572" y="488"/>
      <point x="569" y="470" type="curve" smooth="yes"/>
      <point x="566" y="452"/>
      <point x="309" y="194"/>
      <point x="127" y="33" type="curve" smooth="yes"/>
      <point x="116" y="23"/>
      <point x="113" y="13"/>
      <point x="113" y="11" type="curve" smooth="yes"/>
      <point x="113" y="-11"/>
      <point x="129" y="-33"/>
      <point x="149" y="-33" type="curve" smooth="yes"/>
      <point x="154" y="-33"/>
      <point x="166" y="-36"/>
      <point x="182" y="-18" type="curve" smooth="yes"/>
      <point x="320" y="125"/>
      <point x="547" y="359"/>
      <point x="601" y="431" type="curve" smooth="yes"/>
      <point x="607" y="464"/>
      <point x="877" y="725"/>
    </contour>
    <contour>
      <point x="582" y="925" type="curve" smooth="yes"/>
      <point x="276" y="925"/>
      <point x="87" y="724"/>
      <point x="87" y="458" type="curve" smooth="yes"/>
      <point x="87" y="181"/>
      <point x="281" y="-29"/>
      <point x="532" y="-29" type="curve" smooth="yes"/>
      <point x="814" y="-29"/>
      <point x="1033" y="167"/>
      <point x="1033" y="458" type="curve" smooth="yes"/>
      <point x="1033" y="728"/>
      <point x="838" y="925"/>
    </contour>
    <contour>
      <point x="950" y="403" type="curve" smooth="yes"/>
      <point x="950" y="182"/>
      <point x="805" y="27"/>
      <point x="597" y="27" type="curve" smooth="yes"/>
      <point x="339" y="27"/>
      <point x="163" y="239"/>
      <point x="163" y="490" type="curve" smooth="yes"/>
      <point x="163" y="708"/>
      <point x="315" y="872"/>
      <point x="523" y="872" type="curve" smooth="yes"/>
      <point x="790" y="872"/>
      <point x="950" y="671"/>
    </contour>
  </outline>
</glyph>
<glyph name="thorn" format="2">
  <advance width="1024"/>
  <unicode hex="00FE"/>
  <outline>
    <contour>
      <point x="247" y="1347" type="line" smooth="yes"/>
      <point x="247" y="1376"/>
      <point x="233" y="1391"/>
      <point x="213" y="1391" type="curve" smooth="yes"/>
      <point x="194" y="1391"/>
      <point x="172" y="1379"/>
      <point x="155" y="1366" type="curve" smooth="yes"/>
      <point x="52" y="1303" type="line" smooth="yes"/>
      <point x="44" y="1296"/>
      <point x="21" y="1275"/>
      <point x="21" y="1262" type="curve" smooth="yes"/>
      <point x="21" y="1262"/>
      <point x="21" y="1251"/>
      <point x="26" y="1251" type="curve" smooth="yes"/>
      <point x="88" y="1251" type="line" smooth="yes"/>
      <point x="153" y="1251"/>
      <point x="180" y="1233"/>
      <point x="180" y="1184" type="curve" smooth="yes"/>
      <point x="180" y="-313" type="line" smooth="yes"/>
      <point x="180" y="-338"/>
      <point x="177" y="-407"/>
      <point x="140" y="-407" type="curve" smooth="yes"/>
      <point x="76" y="-415" type="line" smooth="yes"/>
      <point x="52" y="-416"/>
      <point x="32" y="-422"/>
      <point x="28" y="-444" type="curve" smooth="yes"/>
      <point x="25" y="-466"/>
      <point x="37" y="-480"/>
      <point x="89" y="-480" type="curve" smooth="yes"/>
      <point x="422" y="-480" type="line" smooth="yes"/>
      <point x="445" y="-480"/>
      <point x="454" y="-461"/>
      <point x="454" y="-446" type="curve" smooth="yes"/>
      <point x="454" y="-432"/>
      <point x="437" y="-423"/>
      <point x="422" y="-426" type="curve" smooth="yes"/>
      <point x="368" y="-421" type="line" smooth="yes"/>
      <point x="291" y="-412"/>
      <point x="247" y="-379"/>
      <point x="247" y="-306" type="curve" smooth="yes"/>
    </contour>
    <contour>
      <point x="262" y="683" type="line"/>
      <point x="367" y="789"/>
      <point x="443" y="826"/>
      <point x="517" y="826" type="curve" smooth="yes"/>
      <point x="712" y="826"/>
      <point x="881" y="644"/>
      <point x="881" y="371" type="curve" smooth="yes"/>
      <point x="881" y="169"/>
      <point x="738" y="42"/>
      <point x="557" y="42" type="curve" smooth="yes"/>
      <point x="434" y="42"/>
      <point x="346" y="92"/>
      <point x="285" y="189" type="curve"/>
      <point x="219" y="145" type="line"/>
      <point x="307" y="22"/>
      <point x="376" y="-30"/>
      <point x="539" y="-30" type="curve" smooth="yes"/>
      <point x="739" y="-30"/>
      <point x="956" y="179"/>
      <point x="956" y="484" type="curve" smooth="yes"/>
      <point x="956" y="746"/>
      <point x="802" y="927"/>
      <point x="617" y="927" type="curve" smooth="yes"/>
      <point x="505" y="927"/>
      <point x="325" y="869"/>
      <point x="226" y="686" type="curve"/>
    </contour>
  </outline>
</glyph>
<glyph name="abreve" format="2">
  <advance width="885"/>
  <unicode hex="0103"/>
  <outline>
    <contour>
      <point x="146" y="694" type="curve" smooth="yes"/>
      <point x="146" y="652"/>
      <point x="168" y="620"/>
      <point x="198" y="620" type="curve" smooth="yes"/>
      <point x="227" y="620"/>
      <point x="255" y="646"/>
      <point x="255" y="701" type="curve" smooth="yes"/>
      <point x="255" y="774" type="line" smooth="yes"/>
      <point x="255" y="848"/>
      <point x="313" y="887"/>
      <point x="439" y="887" type="curve" smooth="yes"/>
      <point x="593" y="887"/>
      <point x="675" y="803"/>
      <point x="675" y="644" type="curve" smooth="yes"/>
      <point x="675" y="101" type="line" smooth="yes"/>
      <point x="675" y="9"/>
      <point x="725" y="-30"/>
      <point x="779" y="-30" type="curve" smooth="yes"/>
      <point x="803" y="-30"/>
      <point x="843" y="12"/>
      <point x="843" y="47" type="curve" smooth="yes"/>
      <point x="843" y="47"/>
      <point x="848" y="46"/>
      <point x="855" y="46" type="curve" smooth="yes"/>
      <point x="843" y="46"/>
      <point x="831" y="27"/>
      <point x="797" y="27" type="curve" smooth="yes"/>
      <point x="773" y="27"/>
      <point x="742" y="46"/>
      <point x="742" y="94" type="curve" smooth="yes"/>
      <point x="742" y="697" type="line" smooth="yes"/>
      <point x="742" y="843"/>
      <point x="658" y="935"/>
      <point x="488" y="935" type="curve" smooth="yes"/>
      <point x="278" y="935"/>
      <point x="146" y="803"/>
    </contour>
    <contour>
      <point x="711" y="366" type="curve"/>
      <point x="711" y="405" type="line"/>
      <point x="623" y="426"/>
      <point x="526" y="450"/>
      <point x="416" y="450" type="curve" smooth="yes"/>
      <point x="213" y="450"/>
      <point x="100" y="329"/>
      <point x="100" y="205" type="curve" smooth="yes"/>
      <point x="100" y="67"/>
      <point x="208" y="-30"/>
      <point x="362" y="-30" type="curve" smooth="yes"/>
      <point x="496" y="-30"/>
      <point x="616" y="31"/>
      <point x="698" y="131" type="curve"/>
      <point x="672" y="168" type="line"/>
      <point x="596" y="83"/>
      <point x="495" y="38"/>
      <point x="389" y="38" type="curve" smooth="yes"/>
      <point x="273" y="38"/>
      <point x="192" y="118"/>
      <point x="192" y="227" type="curve" smooth="yes"/>
      <point x="192" y="320"/>
      <point x="266" y="402"/>
      <point x="435" y="402" type="curve" smooth="yes"/>
      <point x="541" y="402"/>
      <point x="625" y="383"/>
    </contour>
    <contour>
      <point x="465" y="1011" type="curve" smooth="yes"/>
      <point x="565" y="1011"/>
      <point x="704" y="1135"/>
      <point x="704" y="1246" type="curve" smooth="yes"/>
      <point x="704" y="1256"/>
      <point x="692" y="1262"/>
      <point x="679" y="1262" type="curve" smooth="yes"/>
      <point x="681" y="1262"/>
      <point x="674" y="1266"/>
      <point x="688" y="1255" type="curve" smooth="yes"/>
      <point x="672" y="1176"/>
      <point x="578" y="1139"/>
      <point x="465" y="1139" type="curve" smooth="yes"/>
      <point x="351" y="1139"/>
      <point x="257" y="1176"/>
      <point x="241" y="1255" type="curve" smooth="yes"/>
      <point x="253" y="1262"/>
      <point x="244" y="1262"/>
      <point x="248" y="1262" type="curve" smooth="yes"/>
      <point x="236" y="1262"/>
      <point x="223" y="1256"/>
      <point x="223" y="1246" type="curve" smooth="yes"/>
      <point x="223" y="1152"/>
      <point x="324" y="1011"/>
    </contour>
  </outline>
</glyph>
<glyph name="Cacute" format="2">
  <advance width="1288"/>
  <unicode hex="0106"/>
  <outline>
    <contour>
      <point x="1211" y="252" type="curve" smooth="yes"/>
      <point x="1211" y="255"/>
      <point x="1212" y="256"/>
      <point x="1199" y="256" type="curve" smooth="yes"/>
      <point x="1190" y="256"/>
      <point x="1180" y="241"/>
      <point x="1168" y="234" type="curve" smooth="yes"/>
      <point x="1079" y="154"/>
      <point x="941" y="102"/>
      <point x="783" y="102" type="curve" smooth="yes"/>
      <point x="418" y="102"/>
      <point x="170" y="368"/>
      <point x="170" y="748" type="curve" smooth="yes"/>
      <point x="170" y="1124"/>
      <point x="416" y="1346"/>
      <point x="758" y="1346" type="curve" smooth="yes"/>
      <point x="901" y="1346"/>
      <point x="987" y="1287"/>
      <point x="1144" y="1111" type="curve" smooth="yes"/>
      <point x="1172" y="1082"/>
      <point x="1182" y="1064"/>
      <point x="1201" y="1064" type="curve" smooth="yes"/>
      <point x="1211" y="1064"/>
      <point x="1224" y="1077"/>
      <point x="1224" y="1096" type="curve" smooth="yes"/>
      <point x="1224" y="1107"/>
      <point x="1219" y="1116"/>
      <point x="1208" y="1146" type="curve" smooth="yes"/>
      <point x="1121" y="1386" type="line" smooth="yes"/>
      <point x="1116" y="1406"/>
      <point x="1107" y="1415"/>
      <point x="1098" y="1415" type="curve" smooth="yes"/>
      <point x="1076" y="1415"/>
      <point x="1070" y="1352"/>
      <point x="1046" y="1352" type="curve" smooth="yes"/>
      <point x="996" y="1352"/>
      <point x="903" y="1412"/>
      <point x="744" y="1412" type="curve" smooth="yes"/>
      <point x="365" y="1412"/>
      <point x="85" y="1104"/>
      <point x="85" y="669" type="curve" smooth="yes"/>
      <point x="85" y="256"/>
      <point x="338" y="-30"/>
      <point x="732" y="-30" type="curve" smooth="yes"/>
      <point x="1005" y="-30"/>
      <point x="1211" y="120"/>
    </contour>
    <contour>
      <point x="696" y="1506" type="curve" smooth="yes"/>
      <point x="829" y="1634" type="line" smooth="yes"/>
      <point x="849" y="1669"/>
      <point x="876" y="1684"/>
      <point x="944" y="1684" type="curve" smooth="yes"/>
      <point x="980" y="1684"/>
      <point x="991" y="1671"/>
      <point x="991" y="1648" type="curve" smooth="yes"/>
      <point x="991" y="1625"/>
      <point x="991" y="1598"/>
      <point x="921" y="1564" type="curve" smooth="yes"/>
      <point x="748" y="1487" type="line" smooth="yes"/>
      <point x="734" y="1477"/>
      <point x="716" y="1465"/>
      <point x="706" y="1465" type="curve" smooth="yes"/>
      <point x="697" y="1465"/>
      <point x="692" y="1471"/>
      <point x="692" y="1484" type="curve" smooth="yes"/>
      <point x="692" y="1493"/>
      <point x="696" y="1501"/>
    </contour>
  </outline>
</glyph>
<glyph name="cacute" format="2">
  <advance width="840"/>
  <unicode hex="0107"/>
  <outline>
    <contour>
      <point x="778" y="772" type="curve" smooth="yes"/>
      <point x="778" y="852"/>
      <point x="660" y="935"/>
      <point x="545" y="935" type="curve" smooth="yes"/>
      <point x="269" y="935"/>
      <point x="78" y="725"/>
      <point x="78" y="419" type="curve" smooth="yes"/>
      <point x="78" y="170"/>
      <point x="240" y="-30"/>
      <point x="461" y="-30" type="curve" smooth="yes"/>
      <point x="656" y="-30"/>
      <point x="783" y="115"/>
      <point x="783" y="170" type="curve" smooth="yes"/>
      <point x="783" y="172"/>
      <point x="784" y="167"/>
      <point x="781" y="167" type="curve" smooth="yes"/>
      <point x="776" y="167"/>
      <point x="761" y="157"/>
      <point x="756" y="151" type="curve" smooth="yes"/>
      <point x="695" y="100"/>
      <point x="623" y="56"/>
      <point x="506" y="56" type="curve" smooth="yes"/>
      <point x="300" y="56"/>
      <point x="141" y="224"/>
      <point x="141" y="513" type="curve" smooth="yes"/>
      <point x="141" y="720"/>
      <point x="293" y="874"/>
      <point x="463" y="874" type="curve" smooth="yes"/>
      <point x="575" y="874"/>
      <point x="647" y="842"/>
      <point x="647" y="805" type="curve" smooth="yes"/>
      <point x="647" y="773" type="line" smooth="yes"/>
      <point x="647" y="719"/>
      <point x="680" y="683"/>
      <point x="710" y="683" type="curve" smooth="yes"/>
      <point x="740" y="683"/>
      <point x="778" y="724"/>
    </contour>
    <contour>
      <point x="552" y="1044" type="curve" smooth="yes"/>
      <point x="679" y="1225" type="line" smooth="yes"/>
      <point x="691" y="1266"/>
      <point x="695" y="1281"/>
      <point x="738" y="1281" type="curve" smooth="yes"/>
      <point x="758" y="1281"/>
      <point x="775" y="1256"/>
      <point x="775" y="1234" type="curve" smooth="yes"/>
      <point x="775" y="1206"/>
      <point x="773" y="1178"/>
      <point x="756" y="1151" type="curve" smooth="yes"/>
      <point x="589" y="1022" type="line" smooth="yes"/>
      <point x="581" y="1006"/>
      <point x="565" y="994"/>
      <point x="559" y="994" type="curve" smooth="yes"/>
      <point x="547" y="994"/>
      <point x="542" y="996"/>
      <point x="542" y="1012" type="curve" smooth="yes"/>
      <point x="542" y="1023"/>
      <point x="551" y="1037"/>
    </contour>
  </outline>
</glyph>
<glyph name="cdotaccent" format="2">
  <advance width="840"/>
  <unicode hex="010B"/>
  <outline>
    <contour>
      <point x="778" y="772" type="curve" smooth="yes"/>
      <point x="778" y="852"/>
      <point x="660" y="935"/>
      <point x="545" y="935" type="curve" smooth="yes"/>
      <point x="269" y="935"/>
      <point x="78" y="725"/>
      <point x="78" y="419" type="curve" smooth="yes"/>
      <point x="78" y="170"/>
      <point x="240" y="-30"/>
      <point x="461" y="-30" type="curve" smooth="yes"/>
      <point x="656" y="-30"/>
      <point x="783" y="115"/>
      <point x="783" y="170" type="curve" smooth="yes"/>
      <point x="783" y="172"/>
      <point x="784" y="167"/>
      <point x="781" y="167" type="curve" smooth="yes"/>
      <point x="776" y="167"/>
      <point x="761" y="157"/>
      <point x="756" y="151" type="curve" smooth="yes"/>
      <point x="695" y="100"/>
      <point x="623" y="56"/>
      <point x="506" y="56" type="curve" smooth="yes"/>
      <point x="300" y="56"/>
      <point x="141" y="224"/>
      <point x="141" y="513" type="curve" smooth="yes"/>
      <point x="141" y="720"/>
      <point x="293" y="874"/>
      <point x="463" y="874" type="curve" smooth="yes"/>
      <point x="575" y="874"/>
      <point x="647" y="842"/>
      <point x="647" y="805" type="curve" smooth="yes"/>
      <point x="647" y="773" type="line" smooth="yes"/>
      <point x="647" y="719"/>
      <point x="680" y="683"/>
      <point x="710" y="683" type="curve" smooth="yes"/>
      <point x="740" y="683"/>
      <point x="778" y="724"/>
    </contour>
    <contour>
      <point x="550" y="1101" type="curve" smooth="yes"/>
      <point x="590" y="1101"/>
      <point x="618" y="1137"/>
      <point x="618" y="1180" type="curve" smooth="yes"/>
      <point x="618" y="1224"/>
      <point x="590" y="1259"/>
      <point x="550" y="1259" type="curve" smooth="yes"/>
      <point x="512" y="1259"/>
      <point x="483" y="1224"/>
      <point x="483" y="1180" type="curve" smooth="yes"/>
      <point x="483" y="1137"/>
      <point x="512" y="1101"/>
    </contour>
  </outline>
</glyph>
<glyph name="Ccaron" format="2">
  <advance width="1288"/>
  <unicode hex="010C"/>
  <outline>
    <contour>
      <point x="1211" y="252" type="curve" smooth="yes"/>
      <point x="1211" y="255"/>
      <point x="1212" y="256"/>
      <point x="1199" y="256" type="curve" smooth="yes"/>
      <point x="1190" y="256"/>
      <point x="1180" y="241"/>
      <point x="1168" y="234" type="curve" smooth="yes"/>
      <point x="1079" y="154"/>
      <point x="941" y="102"/>
      <point x="783" y="102" type="curve" smooth="yes"/>
      <point x="418" y="102"/>
      <point x="170" y="368"/>
      <point x="170" y="748" type="curve" smooth="yes"/>
      <point x="170" y="1124"/>
      <point x="416" y="1346"/>
      <point x="758" y="1346" type="curve" smooth="yes"/>
      <point x="901" y="1346"/>
      <point x="987" y="1287"/>
      <point x="1144" y="1111" type="curve" smooth="yes"/>
      <point x="1172" y="1082"/>
      <point x="1182" y="1064"/>
      <point x="1201" y="1064" type="curve" smooth="yes"/>
      <point x="1211" y="1064"/>
      <point x="1224" y="1077"/>
      <point x="1224" y="1096" type="curve" smooth="yes"/>
      <point x="1224" y="1107"/>
      <point x="1219" y="1116"/>
      <point x="1208" y="1146" type="curve" smooth="yes"/>
      <point x="1121" y="1386" type="line" smooth="yes"/>
      <point x="1116" y="1406"/>
      <point x="1107" y="1415"/>
      <point x="1098" y="1415" type="curve" smooth="yes"/>
      <point x="1076" y="1415"/>
      <point x="1070" y="1352"/>
      <point x="1046" y="1352" type="curve" smooth="yes"/>
      <point x="996" y="1352"/>
      <point x="903" y="1412"/>
      <point x="744" y="1412" type="curve" smooth="yes"/>
      <point x="365" y="1412"/>
      <point x="85" y="1104"/>
      <point x="85" y="669" type="curve" smooth="yes"/>
      <point x="85" y="256"/>
      <point x="338" y="-30"/>
      <point x="732" y="-30" type="curve" smooth="yes"/>
      <point x="1005" y="-30"/>
      <point x="1211" y="120"/>
    </contour>
    <contour>
      <point x="514" y="1699" type="curve" smooth="yes"/>
      <point x="675" y="1535" type="line" smooth="yes"/>
      <point x="692" y="1514"/>
      <point x="699" y="1499"/>
      <point x="722" y="1499" type="curve" smooth="yes"/>
      <point x="743" y="1499"/>
      <point x="756" y="1514"/>
      <point x="766" y="1532" type="curve" smooth="yes"/>
      <point x="930" y="1699" type="line" smooth="yes"/>
      <point x="936" y="1709"/>
      <point x="949" y="1723"/>
      <point x="949" y="1736" type="curve" smooth="yes"/>
      <point x="949" y="1750"/>
      <point x="941" y="1756"/>
      <point x="927" y="1756" type="curve" smooth="yes"/>
      <point x="919" y="1756"/>
      <point x="908" y="1744"/>
      <point x="893" y="1731" type="curve" smooth="yes"/>
      <point x="695" y="1585" type="line"/>
      <point x="749" y="1585" type="line"/>
      <point x="551" y="1731" type="line" smooth="yes"/>
      <point x="533" y="1745"/>
      <point x="524" y="1757"/>
      <point x="516" y="1757" type="curve" smooth="yes"/>
      <point x="503" y="1757"/>
      <point x="495" y="1751"/>
      <point x="495" y="1737" type="curve" smooth="yes"/>
      <point x="495" y="1725"/>
      <point x="508" y="1709"/>
    </contour>
  </outline>
</glyph>
<glyph name="dcaron" format="2">
  <advance width="1312"/>
  <unicode hex="010F"/>
  <outline>
    <contour>
      <point x="870" y="1352" type="line" smooth="yes"/>
      <point x="870" y="1379"/>
      <point x="851" y="1400"/>
      <point x="821" y="1400" type="curve" smooth="yes"/>
      <point x="807" y="1400"/>
      <point x="789" y="1384"/>
      <point x="759" y="1373" type="curve" smooth="yes"/>
      <point x="640" y="1319" type="line" smooth="yes"/>
      <point x="624" y="1311"/>
      <point x="613" y="1288"/>
      <point x="613" y="1279" type="curve" smooth="yes"/>
      <point x="613" y="1274"/>
      <point x="615" y="1263"/>
      <point x="625" y="1263" type="curve" smooth="yes"/>
      <point x="695" y="1263" type="line" smooth="yes"/>
      <point x="753" y="1263"/>
      <point x="789" y="1243"/>
      <point x="789" y="1194" type="curve" smooth="yes"/>
      <point x="789" y="53" type="line" smooth="yes"/>
      <point x="789" y="9"/>
      <point x="805" y="0"/>
      <point x="838" y="0" type="curve" smooth="yes"/>
      <point x="985" y="0" type="line" smooth="yes"/>
      <point x="1013" y="0"/>
      <point x="1024" y="8"/>
      <point x="1024" y="26" type="curve" smooth="yes"/>
      <point x="1024" y="43"/>
      <point x="1003" y="42"/>
      <point x="976" y="53" type="curve" smooth="yes"/>
      <point x="927" y="67" type="line" smooth="yes"/>
      <point x="892" y="80"/>
      <point x="870" y="105"/>
      <point x="870" y="164" type="curve" smooth="yes"/>
    </contour>
    <contour>
      <point x="834" y="191" type="line"/>
      <point x="721" y="94"/>
      <point x="588" y="57"/>
      <point x="503" y="57" type="curve" smooth="yes"/>
      <point x="285" y="57"/>
      <point x="139" y="195"/>
      <point x="139" y="479" type="curve" smooth="yes"/>
      <point x="139" y="726"/>
      <point x="317" y="893"/>
      <point x="511" y="893" type="curve" smooth="yes"/>
      <point x="648" y="893"/>
      <point x="721" y="852"/>
      <point x="791" y="745" type="curve"/>
      <point x="836" y="739" type="line"/>
      <point x="744" y="869"/>
      <point x="662" y="937"/>
      <point x="527" y="937" type="curve" smooth="yes"/>
      <point x="278" y="937"/>
      <point x="70" y="712"/>
      <point x="70" y="417" type="curve" smooth="yes"/>
      <point x="70" y="155"/>
      <point x="230" y="-28"/>
      <point x="433" y="-28" type="curve" smooth="yes"/>
      <point x="605" y="-28"/>
      <point x="717" y="47"/>
      <point x="854" y="195" type="curve"/>
    </contour>
    <contour>
      <point x="1243" y="915" type="curve" smooth="yes"/>
      <point x="1240" y="915"/>
      <point x="1239" y="921"/>
      <point x="1235" y="923" type="curve" smooth="yes"/>
      <point x="1505" y="1397" type="line" smooth="yes"/>
      <point x="1524" y="1428"/>
      <point x="1505" y="1437"/>
      <point x="1505" y="1445" type="curve" smooth="yes"/>
      <point x="1505" y="1472"/>
      <point x="1490" y="1488"/>
      <point x="1471" y="1488" type="curve" smooth="yes"/>
      <point x="1446" y="1488"/>
      <point x="1415" y="1484"/>
      <point x="1400" y="1446" type="curve" smooth="yes"/>
      <point x="1176" y="937" type="line" smooth="yes"/>
      <point x="1181" y="947"/>
      <point x="1187" y="951"/>
      <point x="1187" y="958" type="curve" smooth="yes"/>
      <point x="1187" y="936"/>
      <point x="1214" y="915"/>
    </contour>
  </outline>
</glyph>
<glyph name="dcroat" format="2">
  <advance width="1067"/>
  <unicode hex="0111"/>
  <outline>
    <contour>
      <point x="566" y="1066" type="curve" smooth="yes"/>
      <point x="566" y="1045"/>
      <point x="577" y="1031"/>
      <point x="599" y="1031" type="curve" smooth="yes"/>
      <point x="999" y="1031" type="line" smooth="yes"/>
      <point x="1020" y="1031"/>
      <point x="1034" y="1045"/>
      <point x="1034" y="1066" type="curve" smooth="yes"/>
      <point x="1034" y="1087"/>
      <point x="1020" y="1103"/>
      <point x="999" y="1103" type="curve" smooth="yes"/>
      <point x="601" y="1103" type="line" smooth="yes"/>
      <point x="581" y="1103"/>
      <point x="566" y="1087"/>
    </contour>
    <contour>
      <point x="870" y="1339" type="line" smooth="yes"/>
      <point x="870" y="1365"/>
      <point x="851" y="1386"/>
      <point x="821" y="1386" type="curve" smooth="yes"/>
      <point x="807" y="1386"/>
      <point x="789" y="1370"/>
      <point x="759" y="1359" type="curve" smooth="yes"/>
      <point x="640" y="1305" type="line" smooth="yes"/>
      <point x="624" y="1298"/>
      <point x="613" y="1275"/>
      <point x="613" y="1266" type="curve" smooth="yes"/>
      <point x="613" y="1261"/>
      <point x="615" y="1250"/>
      <point x="625" y="1250" type="curve" smooth="yes"/>
      <point x="695" y="1250" type="line" smooth="yes"/>
      <point x="753" y="1250"/>
      <point x="789" y="1231"/>
      <point x="789" y="1182" type="curve" smooth="yes"/>
      <point x="789" y="53" type="line" smooth="yes"/>
      <point x="789" y="9"/>
      <point x="805" y="0"/>
      <point x="838" y="0" type="curve" smooth="yes"/>
      <point x="985" y="0" type="line" smooth="yes"/>
      <point x="1013" y="0"/>
      <point x="1024" y="8"/>
      <point x="1024" y="25" type="curve" smooth="yes"/>
      <point x="1024" y="42"/>
      <point x="1003" y="41"/>
      <point x="976" y="53" type="curve" smooth="yes"/>
      <point x="927" y="67" type="line" smooth="yes"/>
      <point x="892" y="79"/>
      <point x="870" y="104"/>
      <point x="870" y="163" type="curve" smooth="yes"/>
    </contour>
    <contour>
      <point x="834" y="189" type="line"/>
      <point x="721" y="93"/>
      <point x="588" y="57"/>
      <point x="503" y="57" type="curve" smooth="yes"/>
      <point x="285" y="57"/>
      <point x="139" y="196"/>
      <point x="139" y="478" type="curve" smooth="yes"/>
      <point x="139" y="724"/>
      <point x="317" y="892"/>
      <point x="511" y="892" type="curve" smooth="yes"/>
      <point x="648" y="892"/>
      <point x="721" y="852"/>
      <point x="791" y="746" type="curve"/>
      <point x="836" y="739" type="line"/>
      <point x="744" y="868"/>
      <point x="662" y="935"/>
      <point x="527" y="935" type="curve" smooth="yes"/>
      <point x="278" y="935"/>
      <point x="70" y="711"/>
      <point x="70" y="417" type="curve" smooth="yes"/>
      <point x="70" y="156"/>
      <point x="230" y="-27"/>
      <point x="433" y="-27" type="curve" smooth="yes"/>
      <point x="605" y="-27"/>
      <point x="717" y="46"/>
      <point x="854" y="193" type="curve"/>
    </contour>
  </outline>
</glyph>
<glyph name="emacron" format="2">
  <advance width="906"/>
  <unicode hex="0113"/>
  <outline>
    <contour>
      <point x="811" y="620" type="curve" smooth="yes"/>
      <point x="811" y="809"/>
      <point x="684" y="935"/>
      <point x="515" y="935" type="curve" smooth="yes"/>
      <point x="258" y="935"/>
      <point x="80" y="694"/>
      <point x="80" y="425" type="curve" smooth="yes"/>
      <point x="80" y="173"/>
      <point x="236" y="-30"/>
      <point x="478" y="-30" type="curve" smooth="yes"/>
      <point x="655" y="-30"/>
      <point x="808" y="105"/>
      <point x="808" y="206" type="curve" smooth="yes"/>
      <point x="808" y="205"/>
      <point x="807" y="216"/>
      <point x="801" y="216" type="curve" smooth="yes"/>
      <point x="787" y="216"/>
      <point x="784" y="202"/>
      <point x="793" y="188" type="curve" smooth="yes"/>
      <point x="780" y="135"/>
      <point x="655" y="67"/>
      <point x="520" y="67" type="curve" smooth="yes"/>
      <point x="310" y="67"/>
      <point x="161" y="227"/>
      <point x="161" y="483" type="curve" smooth="yes"/>
      <point x="161" y="672"/>
      <point x="257" y="876"/>
      <point x="469" y="876" type="curve" smooth="yes"/>
      <point x="623" y="876"/>
      <point x="719" y="777"/>
      <point x="719" y="643" type="curve" smooth="yes"/>
      <point x="719" y="602"/>
      <point x="686" y="580"/>
      <point x="645" y="580" type="curve" smooth="yes"/>
      <point x="104" y="580" type="line"/>
      <point x="104" y="530" type="line"/>
      <point x="707" y="530" type="line" smooth="yes"/>
      <point x="760" y="530"/>
      <point x="811" y="558"/>
    </contour>
    <contour>
      <point x="316" y="1085" type="curve" smooth="yes"/>
      <point x="316" y="1060"/>
      <point x="332" y="1043"/>
      <point x="361" y="1043" type="curve" smooth="yes"/>
      <point x="776" y="1043" type="line" smooth="yes"/>
      <point x="805" y="1043"/>
      <point x="823" y="1060"/>
      <point x="823" y="1085" type="curve" smooth="yes"/>
      <point x="823" y="1112"/>
      <point x="803" y="1131"/>
      <point x="776" y="1131" type="curve" smooth="yes"/>
      <point x="363" y="1131" type="line" smooth="yes"/>
      <point x="336" y="1131"/>
      <point x="316" y="1112"/>
    </contour>
  </outline>
</glyph>
<glyph name="ebreve" format="2">
  <advance width="906"/>
  <unicode hex="0115"/>
  <outline>
    <contour>
      <point x="811" y="620" type="curve" smooth="yes"/>
      <point x="811" y="809"/>
      <point x="684" y="935"/>
      <point x="515" y="935" type="curve" smooth="yes"/>
      <point x="258" y="935"/>
      <point x="80" y="694"/>
      <point x="80" y="425" type="curve" smooth="yes"/>
      <point x="80" y="173"/>
      <point x="236" y="-30"/>
      <point x="478" y="-30" type="curve" smooth="yes"/>
      <point x="655" y="-30"/>
      <point x="808" y="105"/>
      <point x="808" y="206" type="curve" smooth="yes"/>
      <point x="808" y="205"/>
      <point x="807" y="216"/>
      <point x="801" y="216" type="curve" smooth="yes"/>
      <point x="787" y="216"/>
      <point x="784" y="202"/>
      <point x="793" y="188" type="curve" smooth="yes"/>
      <point x="780" y="135"/>
      <point x="655" y="67"/>
      <point x="520" y="67" type="curve" smooth="yes"/>
      <point x="310" y="67"/>
      <point x="161" y="227"/>
      <point x="161" y="483" type="curve" smooth="yes"/>
      <point x="161" y="672"/>
      <point x="257" y="876"/>
      <point x="469" y="876" type="curve" smooth="yes"/>
      <point x="623" y="876"/>
      <point x="719" y="777"/>
      <point x="719" y="643" type="curve" smooth="yes"/>
      <point x="719" y="602"/>
      <point x="686" y="580"/>
      <point x="645" y="580" type="curve" smooth="yes"/>
      <point x="104" y="580" type="line"/>
      <point x="104" y="530" type="line"/>
      <point x="707" y="530" type="line" smooth="yes"/>
      <point x="760" y="530"/>
      <point x="811" y="558"/>
    </contour>
    <contour>
      <point x="570" y="1011" type="curve" smooth="yes"/>
      <point x="671" y="1011"/>
      <point x="809" y="1135"/>
      <point x="809" y="1246" type="curve" smooth="yes"/>
      <point x="809" y="1256"/>
      <point x="797" y="1262"/>
      <point x="785" y="1262" type="curve" smooth="yes"/>
      <point x="787" y="1262"/>
      <point x="780" y="1266"/>
      <point x="794" y="1255" type="curve" smooth="yes"/>
      <point x="778" y="1176"/>
      <point x="684" y="1139"/>
      <point x="570" y="1139" type="curve" smooth="yes"/>
      <point x="457" y="1139"/>
      <point x="362" y="1176"/>
      <point x="347" y="1255" type="curve" smooth="yes"/>
      <point x="359" y="1262"/>
      <point x="350" y="1262"/>
      <point x="354" y="1262" type="curve" smooth="yes"/>
      <point x="341" y="1262"/>
      <point x="329" y="1256"/>
      <point x="329" y="1246" type="curve" smooth="yes"/>
      <point x="329" y="1152"/>
      <point x="429" y="1011"/>
    </contour>
  </outline>
</glyph>
<glyph name="Ecaron" format="2">
  <advance width="1152"/>
  <unicode hex="011A"/>
  <outline>
    <contour>
      <point x="355" y="688" type="line"/>
      <point x="361" y="632" type="line"/>
      <point x="674" y="632" type="line" smooth="yes"/>
      <point x="775" y="632"/>
      <point x="828" y="591"/>
      <point x="874" y="533" type="curve" smooth="yes"/>
      <point x="880" y="519"/>
      <point x="895" y="508"/>
      <point x="907" y="508" type="curve" smooth="yes"/>
      <point x="908" y="508"/>
      <point x="909" y="513"/>
      <point x="909" y="521" type="curve" smooth="yes"/>
      <point x="909" y="518"/>
      <point x="915" y="514"/>
      <point x="909" y="533" type="curve" smooth="yes"/>
      <point x="837" y="806" type="line" smooth="yes"/>
      <point x="838" y="808"/>
      <point x="834" y="812"/>
      <point x="828" y="812" type="curve" smooth="yes"/>
      <point x="829" y="812"/>
      <point x="824" y="806"/>
      <point x="829" y="807" type="curve" smooth="yes"/>
      <point x="785" y="715"/>
      <point x="729" y="688"/>
      <point x="670" y="688" type="curve" smooth="yes"/>
    </contour>
    <contour>
      <point x="96" y="1365" type="curve" smooth="yes"/>
      <point x="96" y="1352"/>
      <point x="103" y="1353"/>
      <point x="136" y="1345" type="curve" smooth="yes"/>
      <point x="218" y="1328" type="line" smooth="yes"/>
      <point x="251" y="1320"/>
      <point x="272" y="1294"/>
      <point x="272" y="1256" type="curve" smooth="yes"/>
      <point x="272" y="164" type="line" smooth="yes"/>
      <point x="272" y="105"/>
      <point x="249" y="77"/>
      <point x="198" y="61" type="curve" smooth="yes"/>
      <point x="135" y="44" type="line" smooth="yes"/>
      <point x="110" y="33"/>
      <point x="96" y="32"/>
      <point x="96" y="17" type="curve" smooth="yes"/>
      <point x="96" y="5"/>
      <point x="113" y="0"/>
      <point x="140" y="0" type="curve" smooth="yes"/>
      <point x="855" y="0" type="line" smooth="yes"/>
      <point x="896" y="0"/>
      <point x="923" y="-55"/>
      <point x="962" y="-55" type="curve" smooth="yes"/>
      <point x="980" y="-55"/>
      <point x="993" y="-45"/>
      <point x="988" y="-44" type="curve" smooth="yes"/>
      <point x="1047" y="261" type="line" smooth="yes"/>
      <point x="1050" y="279"/>
      <point x="1052" y="291"/>
      <point x="1052" y="299" type="curve" smooth="yes"/>
      <point x="1052" y="301"/>
      <point x="1052" y="303"/>
      <point x="1056" y="303" type="curve" smooth="yes"/>
      <point x="1047" y="303"/>
      <point x="1034" y="291"/>
      <point x="1037" y="287" type="curve" smooth="yes"/>
      <point x="934" y="126"/>
      <point x="905" y="64"/>
      <point x="823" y="64" type="curve" smooth="yes"/>
      <point x="472" y="64" type="line" smooth="yes"/>
      <point x="407" y="64"/>
      <point x="370" y="92"/>
      <point x="370" y="135" type="curve" smooth="yes"/>
      <point x="370" y="1315" type="line"/>
      <point x="792" y="1315" type="line" smooth="yes"/>
      <point x="849" y="1315"/>
      <point x="892" y="1277"/>
      <point x="988" y="1146" type="curve" smooth="yes"/>
      <point x="1005" y="1123"/>
      <point x="1016" y="1105"/>
      <point x="1029" y="1105" type="curve" smooth="yes"/>
      <point x="1030" y="1105"/>
      <point x="1033" y="1112"/>
      <point x="1033" y="1125" type="curve" smooth="yes"/>
      <point x="1033" y="1135"/>
      <point x="1031" y="1152"/>
      <point x="1025" y="1174" type="curve" smooth="yes"/>
      <point x="956" y="1424" type="line" smooth="yes"/>
      <point x="951" y="1442"/>
      <point x="952" y="1445"/>
      <point x="927" y="1445" type="curve" smooth="yes"/>
      <point x="916" y="1445"/>
      <point x="905" y="1435"/>
      <point x="896" y="1415" type="curve" smooth="yes"/>
      <point x="897" y="1400"/>
      <point x="877" y="1386"/>
      <point x="870" y="1386" type="curve" smooth="yes"/>
      <point x="131" y="1386" type="line" smooth="yes"/>
      <point x="109" y="1386"/>
      <point x="96" y="1378"/>
    </contour>
    <contour>
      <point x="366" y="1699" type="curve" smooth="yes"/>
      <point x="527" y="1535" type="line" smooth="yes"/>
      <point x="544" y="1514"/>
      <point x="551" y="1499"/>
      <point x="573" y="1499" type="curve" smooth="yes"/>
      <point x="595" y="1499"/>
      <point x="608" y="1514"/>
      <point x="618" y="1532" type="curve" smooth="yes"/>
      <point x="781" y="1699" type="line" smooth="yes"/>
      <point x="788" y="1709"/>
      <point x="801" y="1723"/>
      <point x="801" y="1736" type="curve" smooth="yes"/>
      <point x="801" y="1750"/>
      <point x="793" y="1756"/>
      <point x="779" y="1756" type="curve" smooth="yes"/>
      <point x="771" y="1756"/>
      <point x="760" y="1744"/>
      <point x="745" y="1731" type="curve" smooth="yes"/>
      <point x="547" y="1585" type="line"/>
      <point x="601" y="1585" type="line"/>
      <point x="403" y="1731" type="line" smooth="yes"/>
      <point x="385" y="1745"/>
      <point x="376" y="1757"/>
      <point x="368" y="1757" type="curve" smooth="yes"/>
      <point x="355" y="1757"/>
      <point x="347" y="1751"/>
      <point x="347" y="1737" type="curve" smooth="yes"/>
      <point x="347" y="1725"/>
      <point x="360" y="1709"/>
    </contour>
  </outline>
</glyph>
<glyph name="gcommaaccent" format="2">
  <advance width="956"/>
  <unicode hex="0123"/>
  <outline>
    <contour>
      <point x="721" y="13" type="curve" smooth="yes"/>
      <point x="908" y="-51"/>
      <point x="927" y="-131"/>
      <point x="927" y="-212" type="curve" smooth="yes"/>
      <point x="927" y="-369"/>
      <point x="779" y="-485"/>
      <point x="526" y="-485" type="curve" smooth="yes"/>
      <point x="251" y="-485"/>
      <point x="104" y="-378"/>
      <point x="104" y="-244" type="curve" smooth="yes"/>
      <point x="104" y="-131"/>
      <point x="183" y="-24"/>
      <point x="449" y="31" type="curve"/>
      <point x="468" y="-32" type="line"/>
      <point x="277" y="-54"/>
      <point x="184" y="-138"/>
      <point x="184" y="-225" type="curve" smooth="yes"/>
      <point x="184" y="-351"/>
      <point x="293" y="-440"/>
      <point x="556" y="-440" type="curve" smooth="yes"/>
      <point x="754" y="-440"/>
      <point x="855" y="-367"/>
      <point x="855" y="-258" type="curve" smooth="yes"/>
      <point x="855" y="-195"/>
      <point x="811" y="-144"/>
      <point x="630" y="-84" type="curve" smooth="yes"/>
      <point x="370" y="-6"/>
      <point x="298" y="55"/>
      <point x="298" y="125" type="curve" smooth="yes"/>
      <point x="298" y="166"/>
      <point x="343" y="243"/>
      <point x="407" y="280" type="curve"/>
      <point x="405" y="262" type="line"/>
      <point x="370" y="239"/>
      <point x="365" y="208"/>
      <point x="365" y="174" type="curve" smooth="yes"/>
      <point x="365" y="114"/>
      <point x="427" y="79"/>
    </contour>
    <contour>
      <point x="832" y="590" type="curve" smooth="yes"/>
      <point x="832" y="382"/>
      <point x="681" y="223"/>
      <point x="472" y="223" type="curve" smooth="yes"/>
      <point x="243" y="223"/>
      <point x="106" y="378"/>
      <point x="106" y="560" type="curve" smooth="yes"/>
      <point x="106" y="775"/>
      <point x="247" y="937"/>
      <point x="478" y="937" type="curve" smooth="yes"/>
      <point x="711" y="937"/>
      <point x="832" y="769"/>
    </contour>
    <contour>
      <point x="722" y="900" type="line" smooth="yes"/>
      <point x="737" y="920" type="line" smooth="yes"/>
      <point x="763" y="951"/>
      <point x="806" y="967"/>
      <point x="851" y="967" type="curve" smooth="yes"/>
      <point x="881" y="967"/>
      <point x="926" y="934"/>
      <point x="926" y="893" type="curve" smooth="yes"/>
      <point x="926" y="868"/>
      <point x="898" y="835"/>
      <point x="888" y="835" type="curve" smooth="yes"/>
      <point x="857" y="835"/>
      <point x="847" y="848"/>
      <point x="842" y="856" type="curve" smooth="yes"/>
      <point x="814" y="880"/>
      <point x="795" y="888"/>
      <point x="772" y="888" type="curve" smooth="yes"/>
      <point x="755" y="888"/>
      <point x="738" y="868"/>
      <point x="718" y="852" type="curve"/>
    </contour>
    <contour>
      <point x="433" y="868" type="curve" smooth="yes"/>
      <point x="294" y="868"/>
      <point x="190" y="772"/>
      <point x="190" y="634" type="curve" smooth="yes"/>
      <point x="190" y="462"/>
      <point x="319" y="293"/>
      <point x="521" y="293" type="curve" smooth="yes"/>
      <point x="632" y="293"/>
      <point x="751" y="374"/>
      <point x="751" y="510" type="curve" smooth="yes"/>
      <point x="751" y="716"/>
      <point x="617" y="868"/>
    </contour>
    <contour>
      <point x="508" y="-302" type="curve" smooth="yes"/>
      <point x="533" y="-302" type="line" smooth="yes"/>
      <point x="555" y="-302"/>
      <point x="561" y="-314"/>
      <point x="561" y="-334" type="curve" smooth="yes"/>
      <point x="561" y="-392"/>
      <point x="541" y="-415"/>
      <point x="504" y="-437" type="curve" smooth="yes"/>
      <point x="490" y="-449"/>
      <point x="482" y="-452"/>
      <point x="482" y="-464" type="curve" smooth="yes"/>
      <point x="482" y="-478"/>
      <point x="490" y="-490"/>
      <point x="508" y="-490" type="curve" smooth="yes"/>
      <point x="526" y="-490"/>
      <point x="594" y="-423"/>
      <point x="594" y="-282" type="curve" smooth="yes"/>
      <point x="594" y="-159"/>
      <point x="550" y="-126"/>
      <point x="507" y="-126" type="curve" smooth="yes"/>
      <point x="469" y="-126"/>
      <point x="437" y="-162"/>
      <point x="437" y="-205" type="curve" smooth="yes"/>
      <point x="437" y="-260"/>
      <point x="466" y="-302"/>
    </contour>
  </outline>
</glyph>
<glyph name="Hcircumflex" format="2">
  <advance width="1503"/>
  <unicode hex="0124"/>
  <outline>
    <contour>
      <point x="332" y="690" type="line"/>
      <point x="332" y="627" type="line"/>
      <point x="1202" y="627" type="line"/>
      <point x="1202" y="690" type="line"/>
    </contour>
    <contour>
      <point x="370" y="135" type="curve" smooth="yes"/>
      <point x="370" y="1249" type="line" smooth="yes"/>
      <point x="370" y="1303"/>
      <point x="394" y="1330"/>
      <point x="443" y="1338" type="curve" smooth="yes"/>
      <point x="497" y="1351" type="line" smooth="yes"/>
      <point x="518" y="1354"/>
      <point x="538" y="1358"/>
      <point x="538" y="1372" type="curve" smooth="yes"/>
      <point x="538" y="1381"/>
      <point x="523" y="1386"/>
      <point x="493" y="1386" type="curve" smooth="yes"/>
      <point x="148" y="1386" type="line" smooth="yes"/>
      <point x="119" y="1386"/>
      <point x="107" y="1381"/>
      <point x="107" y="1372" type="curve" smooth="yes"/>
      <point x="107" y="1358"/>
      <point x="124" y="1351"/>
      <point x="151" y="1350" type="curve" smooth="yes"/>
      <point x="200" y="1338" type="line" smooth="yes"/>
      <point x="247" y="1330"/>
      <point x="272" y="1303"/>
      <point x="272" y="1249" type="curve" smooth="yes"/>
      <point x="272" y="135" type="line" smooth="yes"/>
      <point x="272" y="83"/>
      <point x="247" y="56"/>
      <point x="200" y="48" type="curve" smooth="yes"/>
      <point x="140" y="35" type="line" smooth="yes"/>
      <point x="120" y="31"/>
      <point x="105" y="30"/>
      <point x="105" y="14" type="curve" smooth="yes"/>
      <point x="105" y="5"/>
      <point x="119" y="0"/>
      <point x="148" y="0" type="curve" smooth="yes"/>
      <point x="495" y="0" type="line" smooth="yes"/>
      <point x="523" y="0"/>
      <point x="536" y="5"/>
      <point x="536" y="14" type="curve" smooth="yes"/>
      <point x="536" y="28"/>
      <point x="516" y="28"/>
      <point x="496" y="35" type="curve" smooth="yes"/>
      <point x="443" y="48" type="line" smooth="yes"/>
      <point x="394" y="57"/>
      <point x="370" y="83"/>
    </contour>
    <contour>
      <point x="1231" y="135" type="curve" smooth="yes"/>
      <point x="1231" y="1249" type="line" smooth="yes"/>
      <point x="1231" y="1303"/>
      <point x="1254" y="1330"/>
      <point x="1303" y="1338" type="curve" smooth="yes"/>
      <point x="1357" y="1351" type="line" smooth="yes"/>
      <point x="1379" y="1354"/>
      <point x="1398" y="1358"/>
      <point x="1398" y="1372" type="curve" smooth="yes"/>
      <point x="1398" y="1381"/>
      <point x="1384" y="1386"/>
      <point x="1353" y="1386" type="curve" smooth="yes"/>
      <point x="1008" y="1386" type="line" smooth="yes"/>
      <point x="979" y="1386"/>
      <point x="967" y="1381"/>
      <point x="967" y="1372" type="curve" smooth="yes"/>
      <point x="967" y="1358"/>
      <point x="985" y="1351"/>
      <point x="1011" y="1350" type="curve" smooth="yes"/>
      <point x="1060" y="1338" type="line" smooth="yes"/>
      <point x="1107" y="1330"/>
      <point x="1133" y="1303"/>
      <point x="1133" y="1249" type="curve" smooth="yes"/>
      <point x="1133" y="135" type="line" smooth="yes"/>
      <point x="1133" y="83"/>
      <point x="1107" y="56"/>
      <point x="1060" y="48" type="curve" smooth="yes"/>
      <point x="1001" y="35" type="line" smooth="yes"/>
      <point x="980" y="31"/>
      <point x="965" y="30"/>
      <point x="965" y="14" type="curve" smooth="yes"/>
      <point x="965" y="5"/>
      <point x="979" y="0"/>
      <point x="1008" y="0" type="curve" smooth="yes"/>
      <point x="1355" y="0" type="line" smooth="yes"/>
      <point x="1384" y="0"/>
      <point x="1397" y="5"/>
      <point x="1397" y="14" type="curve" smooth="yes"/>
      <point x="1397" y="28"/>
      <point x="1377" y="28"/>
      <point x="1356" y="35" type="curve" smooth="yes"/>
      <point x="1303" y="48" type="line" smooth="yes"/>
      <point x="1254" y="57"/>
      <point x="1231" y="83"/>
    </contour>
    <contour>
      <point x="544" y="1552" type="curve" smooth="yes"/>
      <point x="705" y="1716" type="line" smooth="yes"/>
      <point x="721" y="1737"/>
      <point x="728" y="1751"/>
      <point x="752" y="1751" type="curve" smooth="yes"/>
      <point x="772" y="1751"/>
      <point x="785" y="1737"/>
      <point x="797" y="1719" type="curve" smooth="yes"/>
      <point x="959" y="1552" type="line" smooth="yes"/>
      <point x="966" y="1542"/>
      <point x="979" y="1528"/>
      <point x="979" y="1515" type="curve" smooth="yes"/>
      <point x="979" y="1501"/>
      <point x="971" y="1495"/>
      <point x="956" y="1495" type="curve" smooth="yes"/>
      <point x="949" y="1495"/>
      <point x="939" y="1507"/>
      <point x="922" y="1520" type="curve" smooth="yes"/>
      <point x="725" y="1666" type="line"/>
      <point x="778" y="1666" type="line"/>
      <point x="581" y="1520" type="line" smooth="yes"/>
      <point x="563" y="1505"/>
      <point x="555" y="1493"/>
      <point x="547" y="1493" type="curve" smooth="yes"/>
      <point x="532" y="1493"/>
      <point x="524" y="1500"/>
      <point x="524" y="1513" type="curve" smooth="yes"/>
      <point x="524" y="1527"/>
      <point x="537" y="1542"/>
    </contour>
  </outline>
</glyph>
<glyph name="iogonek" format="2">
  <advance width="556"/>
  <unicode hex="012F"/>
  <outline>
    <contour>
      <point x="315" y="891" type="line" smooth="yes"/>
      <point x="315" y="914"/>
      <point x="304" y="937"/>
      <point x="283" y="937" type="curve" smooth="yes"/>
      <point x="266" y="937"/>
      <point x="247" y="928"/>
      <point x="222" y="912" type="curve" smooth="yes"/>
      <point x="119" y="847" type="line" smooth="yes"/>
      <point x="106" y="839"/>
      <point x="86" y="828"/>
      <point x="86" y="819" type="curve" smooth="yes"/>
      <point x="86" y="809"/>
      <point x="102" y="801"/>
      <point x="120" y="801" type="curve" smooth="yes"/>
      <point x="189" y="801" type="line" smooth="yes"/>
      <point x="217" y="801"/>
      <point x="248" y="783"/>
      <point x="248" y="734" type="curve" smooth="yes"/>
      <point x="248" y="142" type="line" smooth="yes"/>
      <point x="248" y="98"/>
      <point x="230" y="65"/>
      <point x="166" y="47" type="curve" smooth="yes"/>
      <point x="111" y="30" type="line" smooth="yes"/>
      <point x="100" y="27"/>
      <point x="84" y="25"/>
      <point x="84" y="12" type="curve" smooth="yes"/>
      <point x="84" y="1"/>
      <point x="93" y="0"/>
      <point x="108" y="0" type="curve" smooth="yes"/>
      <point x="441" y="0" type="line" smooth="yes"/>
      <point x="478" y="0"/>
      <point x="475" y="4"/>
      <point x="475" y="11" type="curve" smooth="yes"/>
      <point x="475" y="27"/>
      <point x="466" y="32"/>
      <point x="440" y="38" type="curve" smooth="yes"/>
      <point x="395" y="46" type="line" smooth="yes"/>
      <point x="343" y="57"/>
      <point x="315" y="79"/>
      <point x="315" y="142" type="curve" smooth="yes"/>
    </contour>
    <contour>
      <point x="285" y="1234" type="curve" smooth="yes"/>
      <point x="326" y="1234"/>
      <point x="354" y="1269"/>
      <point x="354" y="1313" type="curve" smooth="yes"/>
      <point x="354" y="1356"/>
      <point x="326" y="1392"/>
      <point x="285" y="1392" type="curve" smooth="yes"/>
      <point x="247" y="1392"/>
      <point x="219" y="1356"/>
      <point x="219" y="1313" type="curve" smooth="yes"/>
      <point x="219" y="1269"/>
      <point x="247" y="1234"/>
    </contour>
    <contour>
      <point x="442" y="43" type="line"/>
      <point x="175" y="-96"/>
      <point x="120" y="-215"/>
      <point x="120" y="-329" type="curve" smooth="yes"/>
      <point x="120" y="-419"/>
      <point x="181" y="-490"/>
      <point x="281" y="-490" type="curve" smooth="yes"/>
      <point x="380" y="-490"/>
      <point x="440" y="-434"/>
      <point x="440" y="-365" type="curve" smooth="yes"/>
      <point x="440" y="-337"/>
      <point x="427" y="-319"/>
      <point x="408" y="-319" type="curve" smooth="yes"/>
      <point x="381" y="-319"/>
      <point x="359" y="-342"/>
      <point x="359" y="-377" type="curve" smooth="yes"/>
      <point x="359" y="-415"/>
      <point x="337" y="-435"/>
      <point x="311" y="-435" type="curve" smooth="yes"/>
      <point x="267" y="-435"/>
      <point x="227" y="-395"/>
      <point x="227" y="-305" type="curve" smooth="yes"/>
      <point x="227" y="-192"/>
      <point x="270" y="-92"/>
      <point x="448" y="11" type="curve"/>
    </contour>
  </outline>
</glyph>
<glyph name="ij" format="2">
  <advance width="1076"/>
  <unicode hex="0133"/>
  <outline>
    <contour>
      <point x="315" y="882" type="line" smooth="yes"/>
      <point x="315" y="905"/>
      <point x="304" y="927"/>
      <point x="283" y="927" type="curve" smooth="yes"/>
      <point x="266" y="927"/>
      <point x="247" y="918"/>
      <point x="222" y="903" type="curve" smooth="yes"/>
      <point x="119" y="839" type="line" smooth="yes"/>
      <point x="106" y="830"/>
      <point x="86" y="819"/>
      <point x="86" y="810" type="curve" smooth="yes"/>
      <point x="86" y="801"/>
      <point x="102" y="793"/>
      <point x="120" y="793" type="curve" smooth="yes"/>
      <point x="189" y="793" type="line" smooth="yes"/>
      <point x="217" y="793"/>
      <point x="248" y="775"/>
      <point x="248" y="726" type="curve" smooth="yes"/>
      <point x="248" y="140" type="line" smooth="yes"/>
      <point x="248" y="97"/>
      <point x="230" y="65"/>
      <point x="166" y="46" type="curve" smooth="yes"/>
      <point x="111" y="29" type="line" smooth="yes"/>
      <point x="100" y="26"/>
      <point x="84" y="25"/>
      <point x="84" y="12" type="curve" smooth="yes"/>
      <point x="84" y="1"/>
      <point x="93" y="0"/>
      <point x="108" y="0" type="curve" smooth="yes"/>
      <point x="441" y="0" type="line" smooth="yes"/>
      <point x="478" y="0"/>
      <point x="475" y="4"/>
      <point x="475" y="11" type="curve" smooth="yes"/>
      <point x="475" y="26"/>
      <point x="466" y="31"/>
      <point x="440" y="37" type="curve" smooth="yes"/>
      <point x="395" y="45" type="line" smooth="yes"/>
      <point x="343" y="57"/>
      <point x="315" y="78"/>
      <point x="315" y="140" type="curve" smooth="yes"/>
    </contour>
    <contour>
      <point x="285" y="1221" type="curve" smooth="yes"/>
      <point x="326" y="1221"/>
      <point x="354" y="1256"/>
      <point x="354" y="1299" type="curve" smooth="yes"/>
      <point x="354" y="1343"/>
      <point x="326" y="1378"/>
      <point x="285" y="1378" type="curve" smooth="yes"/>
      <point x="247" y="1378"/>
      <point x="219" y="1343"/>
      <point x="219" y="1299" type="curve" smooth="yes"/>
      <point x="219" y="1256"/>
      <point x="247" y="1221"/>
    </contour>
    <contour>
      <point x="858" y="1221" type="curve" smooth="yes"/>
      <point x="898" y="1221"/>
      <point x="926" y="1256"/>
      <point x="926" y="1299" type="curve" smooth="yes"/>
      <point x="926" y="1343"/>
      <point x="898" y="1378"/>
      <point x="858" y="1378" type="curve" smooth="yes"/>
      <point x="818" y="1378"/>
      <point x="791" y="1343"/>
      <point x="791" y="1299" type="curve" smooth="yes"/>
      <point x="791" y="1256"/>
      <point x="818" y="1221"/>
    </contour>
    <contour>
      <point x="901" y="-16" type="line" smooth="yes"/>
      <point x="901" y="-91"/>
      <point x="928" y="-171"/>
      <point x="928" y="-259" type="curve" smooth="yes"/>
      <point x="928" y="-384"/>
      <point x="831" y="-477"/>
      <point x="710" y="-477" type="curve" smooth="yes"/>
      <point x="631" y="-477"/>
      <point x="552" y="-415"/>
      <point x="552" y="-337" type="curve" smooth="yes"/>
      <point x="552" y="-272"/>
      <point x="581" y="-232"/>
      <point x="632" y="-232" type="curve" smooth="yes"/>
      <point x="679" y="-232"/>
      <point x="710" y="-259"/>
      <point x="710" y="-300" type="curve" smooth="yes"/>
      <point x="710" y="-333" type="line" smooth="yes"/>
      <point x="710" y="-375"/>
      <point x="733" y="-398"/>
      <point x="773" y="-398" type="curve" smooth="yes"/>
      <point x="836" y="-398"/>
      <point x="876" y="-351"/>
      <point x="876" y="-280" type="curve" smooth="yes"/>
      <point x="876" y="-208"/>
      <point x="836" y="-145"/>
      <point x="836" y="-57" type="curve" smooth="yes"/>
      <point x="836" y="720" type="line" smooth="yes"/>
      <point x="836" y="771"/>
      <point x="802" y="793"/>
      <point x="760" y="793" type="curve" smooth="yes"/>
      <point x="698" y="793" type="line" smooth="yes"/>
      <point x="683" y="793"/>
      <point x="675" y="797"/>
      <point x="675" y="801" type="curve" smooth="yes"/>
      <point x="675" y="814"/>
      <point x="687" y="831"/>
      <point x="704" y="841" type="curve" smooth="yes"/>
      <point x="780" y="896" type="line" smooth="yes"/>
      <point x="821" y="916"/>
      <point x="839" y="927"/>
      <point x="862" y="927" type="curve" smooth="yes"/>
      <point x="887" y="927"/>
      <point x="901" y="908"/>
      <point x="901" y="878" type="curve" smooth="yes"/>
    </contour>
  </outline>
</glyph>
<glyph name="Jcircumflex" format="2">
  <advance width="775"/>
  <unicode hex="0134"/>
  <outline>
    <contour>
      <point x="519" y="267" type="curve" smooth="yes"/>
      <point x="519" y="317"/>
      <point x="522" y="344"/>
      <point x="515" y="410" type="curve" smooth="yes"/>
      <point x="506" y="484"/>
      <point x="508" y="502"/>
      <point x="507" y="529" type="curve" smooth="yes"/>
      <point x="505" y="1207" type="line" smooth="yes"/>
      <point x="505" y="1279"/>
      <point x="517" y="1324"/>
      <point x="546" y="1331" type="curve" smooth="yes"/>
      <point x="615" y="1345" type="line" smooth="yes"/>
      <point x="646" y="1345"/>
      <point x="662" y="1353"/>
      <point x="662" y="1367" type="curve" smooth="yes"/>
      <point x="662" y="1378"/>
      <point x="650" y="1383"/>
      <point x="620" y="1383" type="curve" smooth="yes"/>
      <point x="265" y="1383" type="line" smooth="yes"/>
      <point x="220" y="1383"/>
      <point x="213" y="1378"/>
      <point x="213" y="1367" type="curve" smooth="yes"/>
      <point x="213" y="1352"/>
      <point x="227" y="1348"/>
      <point x="254" y="1345" type="curve" smooth="yes"/>
      <point x="322" y="1330" type="line" smooth="yes"/>
      <point x="375" y="1319"/>
      <point x="407" y="1305"/>
      <point x="407" y="1269" type="curve" smooth="yes"/>
      <point x="407" y="469" type="line" smooth="yes"/>
      <point x="407" y="459"/>
      <point x="417" y="421"/>
      <point x="436" y="363" type="curve" smooth="yes"/>
      <point x="466" y="292"/>
      <point x="475" y="220"/>
      <point x="475" y="162" type="curve" smooth="yes"/>
      <point x="475" y="80"/>
      <point x="415" y="34"/>
      <point x="319" y="34" type="curve" smooth="yes"/>
      <point x="259" y="34"/>
      <point x="238" y="62"/>
      <point x="238" y="106" type="curve" smooth="yes"/>
      <point x="238" y="182" type="line" smooth="yes"/>
      <point x="238" y="224"/>
      <point x="230" y="264"/>
      <point x="181" y="264" type="curve" smooth="yes"/>
      <point x="128" y="264"/>
      <point x="104" y="234"/>
      <point x="104" y="188" type="curve" smooth="yes"/>
      <point x="104" y="65"/>
      <point x="175" y="-24"/>
      <point x="309" y="-24" type="curve" smooth="yes"/>
      <point x="438" y="-24"/>
      <point x="519" y="90"/>
    </contour>
    <contour>
      <point x="305" y="1552" type="curve" smooth="yes"/>
      <point x="466" y="1716" type="line" smooth="yes"/>
      <point x="483" y="1737"/>
      <point x="490" y="1751"/>
      <point x="513" y="1751" type="curve" smooth="yes"/>
      <point x="534" y="1751"/>
      <point x="547" y="1737"/>
      <point x="558" y="1719" type="curve" smooth="yes"/>
      <point x="721" y="1552" type="line" smooth="yes"/>
      <point x="727" y="1542"/>
      <point x="740" y="1528"/>
      <point x="740" y="1515" type="curve" smooth="yes"/>
      <point x="740" y="1501"/>
      <point x="732" y="1495"/>
      <point x="718" y="1495" type="curve" smooth="yes"/>
      <point x="711" y="1495"/>
      <point x="700" y="1507"/>
      <point x="684" y="1520" type="curve" smooth="yes"/>
      <point x="486" y="1666" type="line"/>
      <point x="540" y="1666" type="line"/>
      <point x="342" y="1520" type="line" smooth="yes"/>
      <point x="324" y="1505"/>
      <point x="316" y="1493"/>
      <point x="308" y="1493" type="curve" smooth="yes"/>
      <point x="294" y="1493"/>
      <point x="286" y="1500"/>
      <point x="286" y="1513" type="curve" smooth="yes"/>
      <point x="286" y="1527"/>
      <point x="299" y="1542"/>
    </contour>
  </outline>
</glyph>
<glyph name="Kcommaaccent" format="2">
  <advance width="1266"/>
  <unicode hex="0136"/>
  <outline>
    <contour>
      <point x="305" y="356" type="line"/>
      <point x="397" y="377" type="line"/>
      <point x="1129" y="1273" type="line" smooth="yes"/>
      <point x="1112" y="1285"/>
      <point x="1129" y="1295"/>
      <point x="1201" y="1334" type="curve" smooth="yes"/>
      <point x="1230" y="1353"/>
      <point x="1265" y="1353"/>
      <point x="1263" y="1375" type="curve" smooth="yes"/>
      <point x="1261" y="1382"/>
      <point x="1263" y="1386"/>
      <point x="1242" y="1386" type="curve" smooth="yes"/>
      <point x="975" y="1386" type="line" smooth="yes"/>
      <point x="956" y="1386"/>
      <point x="943" y="1381"/>
      <point x="943" y="1372" type="curve" smooth="yes"/>
      <point x="943" y="1348"/>
      <point x="967" y="1346"/>
      <point x="969" y="1339" type="curve" smooth="yes"/>
      <point x="1042" y="1297" type="line" smooth="yes"/>
      <point x="1062" y="1280"/>
      <point x="1074" y="1288"/>
      <point x="1074" y="1277" type="curve" smooth="yes"/>
      <point x="1074" y="1288"/>
      <point x="1092" y="1302"/>
      <point x="1107" y="1307" type="curve" smooth="yes"/>
    </contour>
    <contour>
      <point x="623" y="654" type="line"/>
      <point x="969" y="175" type="line" smooth="yes"/>
      <point x="991" y="146"/>
      <point x="999" y="130"/>
      <point x="999" y="98" type="curve" smooth="yes"/>
      <point x="999" y="72"/>
      <point x="991" y="53"/>
      <point x="956" y="37" type="curve" smooth="yes"/>
      <point x="933" y="27"/>
      <point x="908" y="26"/>
      <point x="908" y="14" type="curve" smooth="yes"/>
      <point x="908" y="5"/>
      <point x="923" y="0"/>
      <point x="948" y="0" type="curve" smooth="yes"/>
      <point x="1269" y="0" type="line" smooth="yes"/>
      <point x="1286" y="0"/>
      <point x="1293" y="5"/>
      <point x="1293" y="13" type="curve" smooth="yes"/>
      <point x="1293" y="17"/>
      <point x="1282" y="18"/>
      <point x="1272" y="20" type="curve" smooth="yes"/>
      <point x="1215" y="44"/>
      <point x="1162" y="63"/>
      <point x="1114" y="130" type="curve" smooth="yes"/>
      <point x="658" y="744" type="line"/>
    </contour>
    <contour>
      <point x="374" y="135" type="curve" smooth="yes"/>
      <point x="374" y="1249" type="line" smooth="yes"/>
      <point x="374" y="1303"/>
      <point x="398" y="1330"/>
      <point x="447" y="1338" type="curve" smooth="yes"/>
      <point x="501" y="1351" type="line" smooth="yes"/>
      <point x="522" y="1354"/>
      <point x="542" y="1358"/>
      <point x="542" y="1372" type="curve" smooth="yes"/>
      <point x="542" y="1381"/>
      <point x="527" y="1386"/>
      <point x="497" y="1386" type="curve" smooth="yes"/>
      <point x="152" y="1386" type="line" smooth="yes"/>
      <point x="123" y="1386"/>
      <point x="111" y="1381"/>
      <point x="111" y="1372" type="curve" smooth="yes"/>
      <point x="111" y="1358"/>
      <point x="128" y="1351"/>
      <point x="155" y="1350" type="curve" smooth="yes"/>
      <point x="204" y="1338" type="line" smooth="yes"/>
      <point x="251" y="1330"/>
      <point x="276" y="1303"/>
      <point x="276" y="1249" type="curve" smooth="yes"/>
      <point x="276" y="135" type="line" smooth="yes"/>
      <point x="276" y="83"/>
      <point x="251" y="56"/>
      <point x="204" y="48" type="curve" smooth="yes"/>
      <point x="144" y="35" type="line" smooth="yes"/>
      <point x="123" y="31"/>
      <point x="109" y="30"/>
      <point x="109" y="14" type="curve" smooth="yes"/>
      <point x="109" y="5"/>
      <point x="123" y="0"/>
      <point x="152" y="0" type="curve" smooth="yes"/>
      <point x="499" y="0" type="line" smooth="yes"/>
      <point x="527" y="0"/>
      <point x="540" y="5"/>
      <point x="540" y="14" type="curve" smooth="yes"/>
      <point x="540" y="28"/>
      <point x="520" y="28"/>
      <point x="499" y="35" type="curve" smooth="yes"/>
      <point x="447" y="48" type="line" smooth="yes"/>
      <point x="398" y="57"/>
      <point x="374" y="83"/>
    </contour>
    <contour>
      <point x="694" y="-382" type="curve" smooth="yes"/>
      <point x="719" y="-382" type="line" smooth="yes"/>
      <point x="741" y="-382"/>
      <point x="747" y="-394"/>
      <point x="747" y="-414" type="curve" smooth="yes"/>
      <point x="747" y="-472"/>
      <point x="727" y="-495"/>
      <point x="690" y="-517" type="curve" smooth="yes"/>
      <point x="676" y="-530"/>
      <point x="668" y="-533"/>
      <point x="668" y="-544" type="curve" smooth="yes"/>
      <point x="668" y="-558"/>
      <point x="676" y="-570"/>
      <point x="694" y="-570" type="curve" smooth="yes"/>
      <point x="712" y="-570"/>
      <point x="780" y="-503"/>
      <point x="780" y="-362" type="curve" smooth="yes"/>
      <point x="780" y="-240"/>
      <point x="736" y="-206"/>
      <point x="693" y="-206" type="curve" smooth="yes"/>
      <point x="656" y="-206"/>
      <point x="623" y="-243"/>
      <point x="623" y="-285" type="curve" smooth="yes"/>
      <point x="623" y="-341"/>
      <point x="653" y="-382"/>
    </contour>
  </outline>
</glyph>
<glyph name="Lcaron" format="2">
  <advance width="1015"/>
  <unicode hex="013D"/>
  <outline>
    <contour>
      <point x="564" y="1348" type="line" smooth="yes"/>
      <point x="583" y="1355"/>
      <point x="590" y="1361"/>
      <point x="590" y="1365" type="curve" smooth="yes"/>
      <point x="590" y="1379"/>
      <point x="561" y="1386"/>
      <point x="527" y="1386" type="curve" smooth="yes"/>
      <point x="154" y="1386" type="line" smooth="yes"/>
      <point x="120" y="1386"/>
      <point x="100" y="1379"/>
      <point x="100" y="1365" type="curve" smooth="yes"/>
      <point x="100" y="1348"/>
      <point x="115" y="1351"/>
      <point x="165" y="1335" type="curve" smooth="yes"/>
      <point x="202" y="1325" type="line" smooth="yes"/>
      <point x="253" y="1308"/>
      <point x="276" y="1281"/>
      <point x="276" y="1222" type="curve" smooth="yes"/>
      <point x="276" y="128" type="line" smooth="yes"/>
      <point x="276" y="90"/>
      <point x="255" y="66"/>
      <point x="221" y="56" type="curve" smooth="yes"/>
      <point x="163" y="45" type="line" smooth="yes"/>
      <point x="123" y="34"/>
      <point x="100" y="34"/>
      <point x="100" y="20" type="curve" smooth="yes"/>
      <point x="100" y="7"/>
      <point x="122" y="0"/>
      <point x="161" y="0" type="curve" smooth="yes"/>
      <point x="890" y="0" type="line" smooth="yes"/>
      <point x="880" y="0"/>
      <point x="899" y="-49"/>
      <point x="916" y="-49" type="curve" smooth="yes"/>
      <point x="925" y="-49"/>
      <point x="931" y="-38"/>
      <point x="937" y="-18" type="curve" smooth="yes"/>
      <point x="1037" y="280" type="line" smooth="yes"/>
      <point x="1038" y="289"/>
      <point x="1036" y="293"/>
      <point x="1036" y="293" type="curve" smooth="yes"/>
      <point x="1013" y="293"/>
      <point x="997" y="275"/>
      <point x="969" y="242" type="curve" smooth="yes"/>
      <point x="890" y="159" type="line" smooth="yes"/>
      <point x="824" y="83"/>
      <point x="754" y="57"/>
      <point x="726" y="57" type="curve" smooth="yes"/>
      <point x="515" y="57" type="line" smooth="yes"/>
      <point x="419" y="57"/>
      <point x="374" y="91"/>
      <point x="374" y="162" type="curve" smooth="yes"/>
      <point x="374" y="1210" type="line" smooth="yes"/>
      <point x="374" y="1279"/>
      <point x="404" y="1314"/>
      <point x="461" y="1325" type="curve" smooth="yes"/>
    </contour>
    <contour>
      <point x="1094" y="999" type="curve" smooth="yes"/>
      <point x="1090" y="999"/>
      <point x="1090" y="1005"/>
      <point x="1085" y="1006" type="curve" smooth="yes"/>
      <point x="1356" y="1480" type="line" smooth="yes"/>
      <point x="1374" y="1512"/>
      <point x="1355" y="1521"/>
      <point x="1355" y="1529" type="curve" smooth="yes"/>
      <point x="1355" y="1555"/>
      <point x="1340" y="1572"/>
      <point x="1321" y="1572" type="curve" smooth="yes"/>
      <point x="1296" y="1572"/>
      <point x="1265" y="1567"/>
      <point x="1250" y="1530" type="curve" smooth="yes"/>
      <point x="1027" y="1020" type="line" smooth="yes"/>
      <point x="1032" y="1032"/>
      <point x="1037" y="1035"/>
      <point x="1037" y="1041" type="curve" smooth="yes"/>
      <point x="1037" y="1019"/>
      <point x="1064" y="999"/>
    </contour>
  </outline>
</glyph>
<glyph name="ncommaaccent" format="2">
  <advance width="1122"/>
  <unicode hex="0146"/>
  <outline>
    <contour>
      <point x="329" y="883" type="line" smooth="yes"/>
      <point x="329" y="916"/>
      <point x="315" y="937"/>
      <point x="291" y="937" type="curve" smooth="yes"/>
      <point x="278" y="937"/>
      <point x="260" y="930"/>
      <point x="238" y="913" type="curve" smooth="yes"/>
      <point x="124" y="840" type="line" smooth="yes"/>
      <point x="113" y="831"/>
      <point x="93" y="818"/>
      <point x="93" y="803" type="curve" smooth="yes"/>
      <point x="93" y="793"/>
      <point x="102" y="791"/>
      <point x="113" y="791" type="curve" smooth="yes"/>
      <point x="221" y="791" type="line" smooth="yes"/>
      <point x="263" y="791"/>
      <point x="268" y="769"/>
      <point x="268" y="741" type="curve" smooth="yes"/>
      <point x="268" y="131" type="line" smooth="yes"/>
      <point x="268" y="82"/>
      <point x="252" y="73"/>
      <point x="223" y="67" type="curve" smooth="yes"/>
      <point x="143" y="48" type="line" smooth="yes"/>
      <point x="121" y="45"/>
      <point x="105" y="44"/>
      <point x="105" y="29" type="curve" smooth="yes"/>
      <point x="105" y="10"/>
      <point x="118" y="0"/>
      <point x="136" y="0" type="curve" smooth="yes"/>
      <point x="449" y="0" type="line" smooth="yes"/>
      <point x="475" y="0"/>
      <point x="488" y="10"/>
      <point x="488" y="27" type="curve" smooth="yes"/>
      <point x="488" y="41"/>
      <point x="468" y="41"/>
      <point x="435" y="51" type="curve" smooth="yes"/>
      <point x="385" y="66" type="line" smooth="yes"/>
      <point x="354" y="76"/>
      <point x="329" y="97"/>
      <point x="329" y="123" type="curve" smooth="yes"/>
    </contour>
    <contour>
      <point x="301" y="714" type="line" smooth="yes"/>
      <point x="356" y="759" type="line" smooth="yes"/>
      <point x="434" y="826"/>
      <point x="508" y="866"/>
      <point x="597" y="866" type="curve" smooth="yes"/>
      <point x="713" y="866"/>
      <point x="793" y="806"/>
      <point x="812" y="664" type="curve" smooth="yes"/>
      <point x="889" y="129" type="line" smooth="yes"/>
      <point x="893" y="103"/>
      <point x="878" y="77"/>
      <point x="847" y="69" type="curve" smooth="yes"/>
      <point x="738" y="46" type="line" smooth="yes"/>
      <point x="728" y="41"/>
      <point x="721" y="36"/>
      <point x="721" y="24" type="curve" smooth="yes"/>
      <point x="721" y="12"/>
      <point x="743" y="0"/>
      <point x="776" y="0" type="curve" smooth="yes"/>
      <point x="1066" y="0" type="line" smooth="yes"/>
      <point x="1102" y="0"/>
      <point x="1104" y="10"/>
      <point x="1104" y="16" type="curve" smooth="yes"/>
      <point x="1104" y="24"/>
      <point x="1102" y="27"/>
      <point x="1097" y="35" type="curve" smooth="yes"/>
      <point x="1018" y="68" type="line" smooth="yes"/>
      <point x="993" y="83"/>
      <point x="965" y="104"/>
      <point x="963" y="118" type="curve" smooth="yes"/>
      <point x="875" y="675" type="line" smooth="yes"/>
      <point x="848" y="848"/>
      <point x="748" y="937"/>
      <point x="618" y="937" type="curve" smooth="yes"/>
      <point x="528" y="937"/>
      <point x="459" y="898"/>
      <point x="357" y="809" type="curve" smooth="yes"/>
      <point x="290" y="750" type="line"/>
    </contour>
    <contour>
      <point x="591" y="-302" type="curve" smooth="yes"/>
      <point x="616" y="-302" type="line" smooth="yes"/>
      <point x="638" y="-302"/>
      <point x="644" y="-314"/>
      <point x="644" y="-334" type="curve" smooth="yes"/>
      <point x="644" y="-392"/>
      <point x="624" y="-415"/>
      <point x="587" y="-437" type="curve" smooth="yes"/>
      <point x="573" y="-449"/>
      <point x="565" y="-452"/>
      <point x="565" y="-464" type="curve" smooth="yes"/>
      <point x="565" y="-478"/>
      <point x="574" y="-490"/>
      <point x="591" y="-490" type="curve" smooth="yes"/>
      <point x="611" y="-490"/>
      <point x="677" y="-423"/>
      <point x="677" y="-282" type="curve" smooth="yes"/>
      <point x="677" y="-159"/>
      <point x="634" y="-126"/>
      <point x="590" y="-126" type="curve" smooth="yes"/>
      <point x="554" y="-126"/>
      <point x="520" y="-162"/>
      <point x="520" y="-205" type="curve" smooth="yes"/>
      <point x="520" y="-260"/>
      <point x="551" y="-302"/>
    </contour>
  </outline>
</glyph>
<glyph name="Obreve" format="2">
  <advance width="1536"/>
  <unicode hex="014E"/>
  <outline>
    <contour>
      <point x="767" y="1412" type="curve" smooth="yes"/>
      <point x="393" y="1412"/>
      <point x="85" y="1133"/>
      <point x="85" y="701" type="curve" smooth="yes"/>
      <point x="85" y="291"/>
      <point x="397" y="-30"/>
      <point x="767" y="-30" type="curve" smooth="yes"/>
      <point x="1157" y="-30"/>
      <point x="1447" y="274"/>
      <point x="1447" y="703" type="curve" smooth="yes"/>
      <point x="1447" y="1101"/>
      <point x="1155" y="1412"/>
    </contour>
    <contour>
      <point x="1322" y="606" type="curve" smooth="yes"/>
      <point x="1322" y="270"/>
      <point x="1107" y="45"/>
      <point x="839" y="45" type="curve" smooth="yes"/>
      <point x="451" y="45"/>
      <point x="206" y="354"/>
      <point x="206" y="788" type="curve" smooth="yes"/>
      <point x="206" y="1117"/>
      <point x="422" y="1335"/>
      <point x="697" y="1335" type="curve" smooth="yes"/>
      <point x="1079" y="1335"/>
      <point x="1322" y="1030"/>
    </contour>
    <contour>
      <point x="768" y="1499" type="curve" smooth="yes"/>
      <point x="878" y="1499"/>
      <point x="978" y="1608"/>
      <point x="978" y="1690" type="curve" smooth="yes"/>
      <point x="978" y="1707"/>
      <point x="971" y="1720"/>
      <point x="956" y="1720" type="curve" smooth="yes"/>
      <point x="950" y="1720"/>
      <point x="931" y="1719"/>
      <point x="945" y="1711" type="curve" smooth="yes"/>
      <point x="916" y="1636"/>
      <point x="854" y="1607"/>
      <point x="768" y="1607" type="curve" smooth="yes"/>
      <point x="676" y="1607"/>
      <point x="605" y="1634"/>
      <point x="575" y="1717" type="curve" smooth="yes"/>
      <point x="596" y="1716"/>
      <point x="586" y="1720"/>
      <point x="575" y="1720" type="curve" smooth="yes"/>
      <point x="567" y="1720"/>
      <point x="554" y="1709"/>
      <point x="554" y="1691" type="curve" smooth="yes"/>
      <point x="554" y="1618"/>
      <point x="643" y="1499"/>
    </contour>
  </outline>
</glyph>
<glyph name="obreve" format="2">
  <advance width="1116"/>
  <unicode hex="014F"/>
  <outline>
    <contour>
      <point x="582" y="935" type="curve" smooth="yes"/>
      <point x="276" y="935"/>
      <point x="87" y="732"/>
      <point x="87" y="462" type="curve" smooth="yes"/>
      <point x="87" y="183"/>
      <point x="281" y="-30"/>
      <point x="532" y="-30" type="curve" smooth="yes"/>
      <point x="814" y="-30"/>
      <point x="1033" y="168"/>
      <point x="1033" y="462" type="curve" smooth="yes"/>
      <point x="1033" y="736"/>
      <point x="838" y="935"/>
    </contour>
    <contour>
      <point x="950" y="407" type="curve" smooth="yes"/>
      <point x="950" y="184"/>
      <point x="805" y="28"/>
      <point x="597" y="28" type="curve" smooth="yes"/>
      <point x="339" y="28"/>
      <point x="163" y="242"/>
      <point x="163" y="495" type="curve" smooth="yes"/>
      <point x="163" y="715"/>
      <point x="315" y="881"/>
      <point x="523" y="881" type="curve" smooth="yes"/>
      <point x="790" y="881"/>
      <point x="950" y="678"/>
    </contour>
    <contour>
      <point x="561" y="1011" type="curve" smooth="yes"/>
      <point x="662" y="1011"/>
      <point x="800" y="1135"/>
      <point x="800" y="1246" type="curve" smooth="yes"/>
      <point x="800" y="1256"/>
      <point x="788" y="1262"/>
      <point x="775" y="1262" type="curve" smooth="yes"/>
      <point x="778" y="1262"/>
      <point x="771" y="1266"/>
      <point x="784" y="1255" type="curve" smooth="yes"/>
      <point x="769" y="1176"/>
      <point x="675" y="1139"/>
      <point x="561" y="1139" type="curve" smooth="yes"/>
      <point x="447" y="1139"/>
      <point x="353" y="1176"/>
      <point x="337" y="1255" type="curve" smooth="yes"/>
      <point x="349" y="1262"/>
      <point x="341" y="1262"/>
      <point x="345" y="1262" type="curve" smooth="yes"/>
      <point x="332" y="1262"/>
      <point x="319" y="1256"/>
      <point x="319" y="1246" type="curve" smooth="yes"/>
      <point x="319" y="1152"/>
      <point x="420" y="1011"/>
    </contour>
  </outline>
</glyph>
<glyph name="Ohungarumlaut" format="2">
  <advance width="1536"/>
  <unicode hex="0150"/>
  <outline>
    <contour>
      <point x="767" y="1412" type="curve" smooth="yes"/>
      <point x="393" y="1412"/>
      <point x="85" y="1133"/>
      <point x="85" y="701" type="curve" smooth="yes"/>
      <point x="85" y="291"/>
      <point x="397" y="-30"/>
      <point x="767" y="-30" type="curve" smooth="yes"/>
      <point x="1157" y="-30"/>
      <point x="1447" y="274"/>
      <point x="1447" y="703" type="curve" smooth="yes"/>
      <point x="1447" y="1101"/>
      <point x="1155" y="1412"/>
    </contour>
    <contour>
      <point x="1322" y="606" type="curve" smooth="yes"/>
      <point x="1322" y="270"/>
      <point x="1107" y="45"/>
      <point x="839" y="45" type="curve" smooth="yes"/>
      <point x="451" y="45"/>
      <point x="206" y="354"/>
      <point x="206" y="788" type="curve" smooth="yes"/>
      <point x="206" y="1117"/>
      <point x="422" y="1335"/>
      <point x="697" y="1335" type="curve" smooth="yes"/>
      <point x="1079" y="1335"/>
      <point x="1322" y="1030"/>
    </contour>
    <contour>
      <point x="582" y="1506" type="curve" smooth="yes"/>
      <point x="714" y="1634" type="line" smooth="yes"/>
      <point x="734" y="1669"/>
      <point x="762" y="1684"/>
      <point x="830" y="1684" type="curve" smooth="yes"/>
      <point x="865" y="1684"/>
      <point x="877" y="1671"/>
      <point x="877" y="1648" type="curve" smooth="yes"/>
      <point x="877" y="1625"/>
      <point x="877" y="1598"/>
      <point x="808" y="1564" type="curve" smooth="yes"/>
      <point x="633" y="1487" type="line" smooth="yes"/>
      <point x="620" y="1477"/>
      <point x="602" y="1465"/>
      <point x="592" y="1465" type="curve" smooth="yes"/>
      <point x="582" y="1465"/>
      <point x="577" y="1471"/>
      <point x="577" y="1484" type="curve" smooth="yes"/>
      <point x="577" y="1493"/>
      <point x="581" y="1501"/>
    </contour>
    <contour>
      <point x="878" y="1506" type="curve" smooth="yes"/>
      <point x="1010" y="1634" type="line" smooth="yes"/>
      <point x="1030" y="1669"/>
      <point x="1058" y="1684"/>
      <point x="1126" y="1684" type="curve" smooth="yes"/>
      <point x="1161" y="1684"/>
      <point x="1173" y="1671"/>
      <point x="1173" y="1648" type="curve" smooth="yes"/>
      <point x="1173" y="1625"/>
      <point x="1173" y="1598"/>
      <point x="1103" y="1564" type="curve" smooth="yes"/>
      <point x="929" y="1487" type="line" smooth="yes"/>
      <point x="916" y="1477"/>
      <point x="898" y="1465"/>
      <point x="888" y="1465" type="curve" smooth="yes"/>
      <point x="878" y="1465"/>
      <point x="873" y="1471"/>
      <point x="873" y="1484" type="curve" smooth="yes"/>
      <point x="873" y="1493"/>
      <point x="877" y="1501"/>
    </contour>
  </outline>
</glyph>
<glyph name="ohungarumlaut" format="2">
  <advance width="1116"/>
  <unicode hex="0151"/>
  <outline>
    <contour>
      <point x="582" y="935" type="curve" smooth="yes"/>
      <point x="276" y="935"/>
      <point x="87" y="732"/>
      <point x="87" y="462" type="curve" smooth="yes"/>
      <point x="87" y="183"/>
      <point x="281" y="-30"/>
      <point x="532" y="-30" type="curve" smooth="yes"/>
      <point x="814" y="-30"/>
      <point x="1033" y="168"/>
      <point x="1033" y="462" type="curve" smooth="yes"/>
      <point x="1033" y="736"/>
      <point x="838" y="935"/>
    </contour>
    <contour>
      <point x="950" y="407" type="curve" smooth="yes"/>
      <point x="950" y="184"/>
      <point x="805" y="28"/>
      <point x="597" y="28" type="curve" smooth="yes"/>
      <point x="339" y="28"/>
      <point x="163" y="242"/>
      <point x="163" y="495" type="curve" smooth="yes"/>
      <point x="163" y="715"/>
      <point x="315" y="881"/>
      <point x="523" y="881" type="curve" smooth="yes"/>
      <point x="790" y="881"/>
      <point x="950" y="678"/>
    </contour>
    <contour>
      <point x="413" y="1044" type="curve" smooth="yes"/>
      <point x="540" y="1225" type="line" smooth="yes"/>
      <point x="552" y="1266"/>
      <point x="556" y="1281"/>
      <point x="599" y="1281" type="curve" smooth="yes"/>
      <point x="618" y="1281"/>
      <point x="636" y="1256"/>
      <point x="636" y="1234" type="curve" smooth="yes"/>
      <point x="636" y="1206"/>
      <point x="634" y="1178"/>
      <point x="616" y="1151" type="curve" smooth="yes"/>
      <point x="450" y="1022" type="line" smooth="yes"/>
      <point x="441" y="1006"/>
      <point x="426" y="994"/>
      <point x="419" y="994" type="curve" smooth="yes"/>
      <point x="408" y="994"/>
      <point x="403" y="996"/>
      <point x="403" y="1012" type="curve" smooth="yes"/>
      <point x="403" y="1023"/>
      <point x="412" y="1037"/>
    </contour>
    <contour>
      <point x="648" y="1044" type="curve" smooth="yes"/>
      <point x="775" y="1225" type="line" smooth="yes"/>
      <point x="787" y="1266"/>
      <point x="791" y="1281"/>
      <point x="834" y="1281" type="curve" smooth="yes"/>
      <point x="853" y="1281"/>
      <point x="871" y="1256"/>
      <point x="871" y="1234" type="curve" smooth="yes"/>
      <point x="871" y="1206"/>
      <point x="869" y="1178"/>
      <point x="851" y="1151" type="curve" smooth="yes"/>
      <point x="685" y="1022" type="line" smooth="yes"/>
      <point x="676" y="1006"/>
      <point x="662" y="994"/>
      <point x="654" y="994" type="curve" smooth="yes"/>
      <point x="643" y="994"/>
      <point x="638" y="996"/>
      <point x="638" y="1012" type="curve" smooth="yes"/>
      <point x="638" y="1023"/>
      <point x="647" y="1037"/>
    </contour>
  </outline>
</glyph>
<glyph name="Rcaron" format="2">
  <advance width="1306"/>
  <unicode hex="0158"/>
  <outline>
    <contour>
      <point x="1089" y="924" type="curve" smooth="yes"/>
      <point x="1089" y="1202"/>
      <point x="851" y="1386"/>
      <point x="536" y="1386" type="curve" smooth="yes"/>
      <point x="161" y="1386" type="line" smooth="yes"/>
      <point x="126" y="1386"/>
      <point x="109" y="1382"/>
      <point x="109" y="1373" type="curve" smooth="yes"/>
      <point x="109" y="1360"/>
      <point x="124" y="1351"/>
      <point x="155" y="1350" type="curve" smooth="yes"/>
      <point x="204" y="1338" type="line" smooth="yes"/>
      <point x="251" y="1330"/>
      <point x="276" y="1295"/>
      <point x="276" y="1249" type="curve" smooth="yes"/>
      <point x="276" y="137" type="line" smooth="yes"/>
      <point x="276" y="93"/>
      <point x="251" y="57"/>
      <point x="204" y="50" type="curve" smooth="yes"/>
      <point x="155" y="38" type="line" smooth="yes"/>
      <point x="124" y="31"/>
      <point x="107" y="27"/>
      <point x="107" y="14" type="curve" smooth="yes"/>
      <point x="107" y="4"/>
      <point x="126" y="0"/>
      <point x="161" y="0" type="curve" smooth="yes"/>
      <point x="472" y="0" type="line" smooth="yes"/>
      <point x="504" y="0"/>
      <point x="524" y="4"/>
      <point x="524" y="14" type="curve" smooth="yes"/>
      <point x="524" y="25"/>
      <point x="508" y="25"/>
      <point x="480" y="34" type="curve" smooth="yes"/>
      <point x="427" y="50" type="line" smooth="yes"/>
      <point x="394" y="55"/>
      <point x="374" y="87"/>
      <point x="374" y="137" type="curve" smooth="yes"/>
      <point x="374" y="1307" type="line"/>
      <point x="524" y="1307" type="line" smooth="yes"/>
      <point x="799" y="1307"/>
      <point x="985" y="1172"/>
      <point x="985" y="974" type="curve" smooth="yes"/>
      <point x="985" y="734"/>
      <point x="818" y="570"/>
      <point x="579" y="570" type="curve" smooth="yes"/>
      <point x="416" y="570"/>
      <point x="321" y="591"/>
      <point x="214" y="646" type="curve"/>
      <point x="194" y="581" type="line"/>
      <point x="297" y="521"/>
      <point x="381" y="503"/>
      <point x="529" y="503" type="curve" smooth="yes"/>
      <point x="865" y="503"/>
      <point x="1089" y="670"/>
    </contour>
    <contour>
      <point x="654" y="539" type="line"/>
      <point x="948" y="145" type="line" smooth="yes"/>
      <point x="966" y="123"/>
      <point x="973" y="105"/>
      <point x="973" y="83" type="curve" smooth="yes"/>
      <point x="973" y="60"/>
      <point x="959" y="50"/>
      <point x="932" y="30" type="curve" smooth="yes"/>
      <point x="927" y="27"/>
      <point x="922" y="23"/>
      <point x="922" y="15" type="curve" smooth="yes"/>
      <point x="922" y="1"/>
      <point x="937" y="0"/>
      <point x="959" y="0" type="curve" smooth="yes"/>
      <point x="1230" y="0" type="line" smooth="yes"/>
      <point x="1270" y="0"/>
      <point x="1280" y="8"/>
      <point x="1280" y="21" type="curve" smooth="yes"/>
      <point x="1280" y="33"/>
      <point x="1270" y="28"/>
      <point x="1250" y="30" type="curve" smooth="yes"/>
      <point x="1178" y="53"/>
      <point x="1147" y="86"/>
      <point x="1106" y="133" type="curve" smooth="yes"/>
      <point x="745" y="560" type="line"/>
    </contour>
    <contour>
      <point x="408" y="1699" type="curve" smooth="yes"/>
      <point x="568" y="1535" type="line" smooth="yes"/>
      <point x="585" y="1514"/>
      <point x="592" y="1499"/>
      <point x="615" y="1499" type="curve" smooth="yes"/>
      <point x="636" y="1499"/>
      <point x="649" y="1514"/>
      <point x="661" y="1532" type="curve" smooth="yes"/>
      <point x="823" y="1699" type="line" smooth="yes"/>
      <point x="830" y="1709"/>
      <point x="843" y="1723"/>
      <point x="843" y="1736" type="curve" smooth="yes"/>
      <point x="843" y="1750"/>
      <point x="834" y="1756"/>
      <point x="820" y="1756" type="curve" smooth="yes"/>
      <point x="812" y="1756"/>
      <point x="802" y="1744"/>
      <point x="786" y="1731" type="curve" smooth="yes"/>
      <point x="588" y="1585" type="line"/>
      <point x="642" y="1585" type="line"/>
      <point x="444" y="1731" type="line" smooth="yes"/>
      <point x="426" y="1745"/>
      <point x="417" y="1757"/>
      <point x="411" y="1757" type="curve" smooth="yes"/>
      <point x="396" y="1757"/>
      <point x="388" y="1751"/>
      <point x="388" y="1737" type="curve" smooth="yes"/>
      <point x="388" y="1725"/>
      <point x="401" y="1709"/>
    </contour>
  </outline>
</glyph>
